<svg width="41" height="78" viewBox="0 0 41 78" fill="none" xmlns="http://www.w3.org/2000/svg">
<path d="M3.13469 18.72C1.33469 18.72 0.134688 17.52 0.134688 15.12C0.134688 12.96 1.33469 11.52 3.13469 11.52C15.9747 10.8 23.2947 8.88 26.4147 3.6C27.9747 1.08 29.1747 0.599995 30.6147 0.599995C32.1747 0.599995 33.6147 1.68 33.6147 3.72C33.6147 7.31999 33.1347 16.2 33.1347 37.8C33.1347 46.68 33.3747 55.44 33.6147 64.32C33.7347 69.12 34.0947 70.68 36.2547 70.68C36.8547 70.68 37.3347 70.44 37.8147 70.44C39.8547 70.44 40.9347 72.24 40.9347 74.16C40.9347 76.32 39.8547 78 37.8147 78C32.4147 77.88 26.7747 77.52 21.1347 77.52C15.4947 77.52 6.49469 78 4.57469 78C2.53469 78 1.45469 76.08 1.45469 74.28C1.45469 71.76 2.53469 70.56 4.57469 70.56C5.17469 70.56 5.89469 70.8 6.37469 70.8C8.41469 70.8 8.65469 68.76 8.77469 64.32C9.01469 57.48 9.25469 50.76 9.25469 44.04C9.25469 38.04 9.13469 32.04 8.77469 26.04C8.53469 21.24 8.17469 18.48 5.53469 18.48C4.57469 18.48 3.61469 18.72 3.13469 18.72Z" fill="#FDE9E9"/>
</svg>
