<svg width="119" height="80" viewBox="0 0 119 80" fill="none" xmlns="http://www.w3.org/2000/svg">
<path d="M3.29094 18.72C1.49094 18.72 0.290938 17.52 0.290938 15.12C0.290938 12.96 1.49094 11.52 3.29094 11.52C16.1309 10.8 23.4509 8.88 26.5709 3.6C28.1309 1.08 29.3309 0.599995 30.7709 0.599995C32.3309 0.599995 33.7709 1.68 33.7709 3.72C33.7709 7.31999 33.2909 16.2 33.2909 37.8C33.2909 46.68 33.5309 55.44 33.7709 64.32C33.8909 69.12 34.2509 70.68 36.4109 70.68C37.0109 70.68 37.4909 70.44 37.9709 70.44C40.0109 70.44 41.0909 72.24 41.0909 74.16C41.0909 76.32 40.0109 78 37.9709 78C32.5709 77.88 26.9309 77.52 21.2909 77.52C15.6509 77.52 6.65094 78 4.73094 78C2.69094 78 1.61094 76.08 1.61094 74.28C1.61094 71.76 2.69094 70.56 4.73094 70.56C5.33094 70.56 6.05094 70.8 6.53094 70.8C8.57094 70.8 8.81094 68.76 8.93094 64.32C9.17094 57.48 9.41094 50.76 9.41094 44.04C9.41094 38.04 9.29094 32.04 8.93094 26.04C8.69094 21.24 8.33094 18.48 5.69094 18.48C4.73094 18.48 3.77094 18.72 3.29094 18.72ZM81.9416 1.08C108.462 1.08 118.182 15.84 118.182 37.2C118.182 67.2 103.302 79.2 81.9416 79.2C60.5816 79.2 45.7016 67.2 45.7016 37.2C45.7016 15.84 55.4216 1.08 81.9416 1.08ZM81.9416 70.92C89.0216 70.92 93.2216 66.36 93.2216 33.6C93.2216 13.32 89.7416 8.39999 81.9416 8.39999C74.1416 8.39999 70.6616 13.32 70.6616 33.6C70.6616 66.36 74.8616 70.92 81.9416 70.92Z" fill="#FDE9E9"/>
</svg>
