<svg width="68" height="79" viewBox="0 0 68 79" fill="none" xmlns="http://www.w3.org/2000/svg">
<path d="M33.7792 0.199995C54.7792 0.199995 66.5392 5.72 66.5392 20.84C66.5392 50 39.5392 41.36 22.3792 48.32C20.8192 48.92 19.9792 50 19.9792 50.84C19.9792 51.92 20.5792 52.52 21.7792 52.52C22.6192 52.52 28.3792 51.56 31.8592 51.56C43.0192 51.56 48.1792 56 55.4992 56C59.3392 56 60.5392 55.28 60.5392 53C60.5392 50.36 58.9792 49.52 58.9792 47.84C58.9792 45.32 60.6592 44.12 62.8192 44.12C67.0192 44.12 67.7392 51.44 67.7392 54.08C67.7392 70.76 64.1392 78.2 55.1392 78.2C34.9792 78.2 35.0992 58.16 20.3392 58.16C17.4592 58.16 16.0192 59.72 16.0192 61.64C16.0192 65 27.7792 67.16 27.7792 72.8C27.7792 75.08 26.6992 77 23.5792 77C21.6592 77 18.2992 76.4 15.1792 76.28C10.9792 76.28 7.01922 77 4.85922 77C2.09922 77 0.899219 74.84 0.899219 72.08C0.899219 55.88 7.13922 50.24 15.2992 45.68C31.8592 36.2 42.8992 33.8 42.8992 18.2C42.8992 9.67999 39.5392 7.39999 34.4992 7.39999C28.9792 7.39999 26.9392 9.8 25.2592 18.8C23.3392 30.44 20.2192 35.6 8.57922 35.72C4.97922 35.48 4.13922 33.56 4.13922 30.92V21.2C4.13922 12.56 3.29922 8.96 3.29922 6.31999C3.29922 3.68 4.85922 1.39999 8.57922 1.39999C13.9792 1.39999 21.4192 0.199995 33.7792 0.199995Z" fill="#FDE9E9"/>
</svg>
