<svg width="68" height="78" viewBox="0 0 68 78" fill="none" xmlns="http://www.w3.org/2000/svg">
<path d="M33.0192 70.16C38.2992 70.16 40.8192 67.88 40.8192 58.16C40.8192 46.52 37.4592 43.64 30.6192 43.64C28.8192 43.64 26.0592 44.72 23.8992 44.72C20.5392 44.72 18.7392 42.44 18.7392 40.16C18.7392 37.76 20.4192 35.24 23.8992 35.24C26.0592 35.24 28.9392 35.96 30.6192 35.96C37.3392 35.96 40.5792 32.48 40.5792 17.12C40.5792 9.67999 37.8192 7.76 33.3792 7.76C29.0592 7.76 26.4192 8.84 25.3392 16.52C23.8992 26.6 21.0192 32.96 8.77922 32.84C4.57922 32.84 3.73922 30.44 3.73922 27.44C3.73922 25.16 4.21922 21.56 4.21922 18.56C4.21922 11.12 2.89922 7.99999 2.89922 5.72C2.89922 3.32 4.21922 1.39999 7.57922 1.39999C13.4592 1.39999 18.2592 0.559997 32.8992 0.559997C54.7392 0.559997 66.0192 6.44 66.0192 22.64C66.0192 33.2 59.8992 35.96 47.0592 37.16C45.0192 37.4 43.8192 38.48 43.8192 39.68C43.8192 41.12 44.7792 42.08 47.0592 42.2C61.0992 43.04 67.4592 46.04 67.4592 57.44C67.4592 72.32 55.5792 77.84 32.4192 77.84C16.8192 77.84 8.17922 77 5.41922 77C2.05922 77 0.739219 75.08 0.739219 72.68C0.739219 70.76 2.05922 68.36 2.05922 62.48C2.05922 59.48 1.57922 55.88 1.57922 53.6C1.57922 50.6 2.41922 48.2 6.61922 48.2C20.0592 48.08 23.4192 53.6 24.6192 62.12C25.6992 69.32 28.5792 70.16 33.0192 70.16Z" fill="#FDE9E9"/>
</svg>
