<svg width="79" height="79" viewBox="0 0 79 79" fill="none" xmlns="http://www.w3.org/2000/svg">
<path d="M13.1075 2.44C29.3075 2.44 35.9075 10.12 35.9075 29.2C35.9075 41.32 33.6275 46.36 16.1075 48.4C13.9475 48.64 13.3475 50.08 13.3475 51.4C13.3475 52.84 14.3075 53.92 15.9875 53.92C39.5075 53.92 43.3475 51.88 43.3475 40.6C43.3475 31 41.1875 19 41.1875 16.12C41.1875 12.16 42.7475 10.36 46.4675 9.28C51.3875 7.96 54.7475 5.68 58.3475 2.79999C59.7875 1.6 61.4675 0.639993 63.0275 0.639993C64.8275 0.639993 66.1475 1.96 66.1475 3.64C66.1475 5.55999 64.4675 16.96 64.4675 40.84C64.4675 43.6 64.4675 46.36 64.5875 49.12C64.5875 50.44 65.3075 51.04 66.5075 51.04C67.3475 51.04 68.1875 50.44 68.6675 48.64C69.5075 45.76 70.8275 43 72.0275 38.08C72.7475 35.2 74.0675 34.96 75.1475 34.96C76.9475 34.96 78.1475 35.92 78.1475 38.2C77.7875 44.08 77.6675 50.2 77.6675 56.2C77.6675 59.08 78.0275 61.96 78.1475 64.72C78.1475 67.24 76.9475 68.08 75.1475 68.08C74.0675 68.08 72.9875 67.72 72.0275 64.96C71.0675 62.08 69.6275 60.64 67.9475 58.6C67.3475 57.88 66.6275 57.64 66.1475 57.64C64.8275 57.64 64.5875 58.48 64.5875 59.32C64.5875 70 65.3075 71.8 70.4675 71.8C71.5475 71.8 72.2675 71.44 72.7475 71.44C74.3075 71.44 74.9075 73 74.9075 75.16C74.9075 77.32 73.9475 79 72.7475 79C63.6275 78.52 55.7075 78.4 46.1075 78.4C37.3475 78.4 25.1075 79 18.8675 79C16.4675 79 15.1475 77.2 15.1475 74.92C15.1475 72.88 16.1075 70.84 18.8675 70.84C20.4275 70.84 29.9075 71.68 35.3075 71.68C38.0675 71.56 39.9875 70.6 39.9875 67C39.9875 61.84 39.2675 61.12 31.7075 61.12C12.7475 61.12 6.7475 61.96 3.1475 61.96C1.1075 61.96 0.0275 60.4 0.0275 58.48C0.0275 56.8 0.9875 55.6 2.4275 53.56C4.7075 50.32 5.1875 47.92 5.1875 44.8C5.1875 36.76 7.1075 34.12 18.8675 32.08C25.8275 30.88 28.1075 30.16 28.1075 25.96C28.1075 23.44 26.6675 22.36 24.1475 22.36C19.4675 22.36 15.8675 24.4 10.9475 27.4C8.7875 28.72 7.7075 28.84 6.3875 28.84C4.2275 28.84 3.0275 27.04 3.0275 23.68C3.0275 22.24 3.2675 19.96 3.2675 17.2C3.2675 14.08 2.9075 9.51999 2.9075 7.48C2.9075 4.36 5.1875 2.92 7.3475 2.68C9.2675 2.44 11.1875 2.44 13.1075 2.44Z" fill="#FDE9E9"/>
</svg>
