<svg width="69" height="78" viewBox="0 0 69 78" fill="none" xmlns="http://www.w3.org/2000/svg">
<path d="M53.608 17.6C53.608 14.48 44.488 11 44.488 5.83999C44.488 3.32 45.568 1.39999 48.808 1.39999C50.488 1.39999 53.368 1.76 56.128 1.76C59.248 1.76 62.248 1.39999 63.808 1.39999C66.808 1.39999 68.128 3.44 68.128 6.2C68.128 20.96 62.008 27.92 47.248 27.92C28.408 27.92 21.208 25.04 15.328 25.04C12.088 25.04 8.84797 26.84 8.84797 33.08C8.84797 36.68 11.008 38.48 13.648 38.48C19.768 38.48 24.208 34.52 41.488 34.52C56.008 34.52 66.328 41.48 66.328 57.56C66.328 72.92 54.208 77.48 31.888 77.48C17.008 77.48 11.968 77.24 5.96797 77.24C2.36797 77.24 1.04797 75.44 1.04797 72.32C1.04797 70.88 2.00797 68.6 2.00797 64.04C2.00797 61.64 1.64797 58.76 1.64797 56.84C1.64797 54.32 2.48797 52.28 6.08797 52.28C19.408 52.28 22.408 56.24 24.208 62.12C26.488 69.8 29.248 70.28 33.208 70.28C38.368 70.28 42.088 68.24 42.088 57.32C42.088 47.36 35.128 43.88 26.848 43.88C16.528 43.88 9.80797 46.88 6.32797 46.88C2.48797 46.88 1.76797 43.64 1.76797 41.84C1.76797 39.92 2.36797 36.2 2.36797 32.84C2.36797 21.68 0.327969 9.07999 0.327969 4.88C0.327969 2 2.24797 0.559997 4.76797 0.559997C7.52797 0.559997 8.84797 2.6 8.84797 4.88C8.84797 6.91999 8.24797 11.24 8.24797 15.68C8.24797 17.72 9.56797 18.68 10.888 18.68C12.208 18.68 13.528 17.6 13.648 15.92C14.608 3.8 18.448 0.0799961 25.408 0.0799961C38.968 0.0799961 41.728 21.08 50.368 21.08C52.288 21.08 53.608 20.12 53.608 17.6Z" fill="#FDE9E9"/>
</svg>
