<svg width="68" height="79" viewBox="0 0 68 79" fill="none" xmlns="http://www.w3.org/2000/svg">
<path d="M46.2322 57.92C46.2322 50.72 43.3522 46.28 36.5122 46.28C30.5122 46.28 27.6322 50.48 27.7522 58.88C27.8722 65.96 29.5522 70.88 36.3922 70.88C43.2322 70.88 46.2322 65.84 46.2322 57.92ZM34.2322 8.96C25.7122 8.96 21.8722 20.48 21.8722 42.68C21.8722 44.84 22.5922 46.04 24.5122 46.04C25.8322 46.04 27.0322 45.92 27.7522 43.76C30.6322 34.52 37.3522 31.76 45.8722 31.76C60.5122 31.76 67.5922 40.88 67.5922 52.76C67.5922 67.28 60.9922 78.2 34.2322 78.2C8.43219 78.2 0.392188 63.8 0.392188 43.28C0.392188 14.84 14.3122 0.439999 37.3522 0.439999C46.3522 0.439999 55.1122 1.39999 60.2722 1.39999C63.5122 1.39999 64.8322 3.32 64.8322 5.6C64.8322 7.39999 64.2322 9.92 64.2322 15.32C64.2322 18.2 64.4722 21.44 64.4722 23.6C64.4722 26.24 63.7522 28.16 59.9122 28.4C50.5522 28.4 47.4322 25.88 43.9522 18.2C40.8322 11.84 38.7922 8.96 34.2322 8.96Z" fill="#FDE9E9"/>
</svg>
