<svg width="71" height="77" viewBox="0 0 71 77" fill="none" xmlns="http://www.w3.org/2000/svg">
<path d="M25.7838 0.199995C39.8238 0.199995 42.8238 21.8 52.4238 21.8C54.3438 21.8 55.6638 20.84 55.6638 18.68C55.6638 14.6 45.8238 11.24 45.8238 5.83999C45.8238 3.44 46.9038 1.39999 50.0238 1.39999C51.5838 1.39999 54.4638 1.87999 57.1038 2C60.8238 2 64.4238 1.27999 66.3438 1.27999C69.3438 1.27999 70.6638 3.68 70.6638 6.44C70.6638 43.4 46.0638 31.4 46.0638 62C46.0638 68 47.0238 70.64 47.0238 72.68C47.0238 75.68 44.6238 77 42.1038 77C39.7038 77 34.5438 76.76 31.1837 76.76C26.5038 76.76 22.3038 77 20.2638 77C17.6238 77 16.1837 75.32 16.1837 72.2C16.1837 49.64 28.6638 38.48 47.9838 35.12C51.2238 34.52 52.0638 33.08 52.0638 31.4C52.0638 29.72 50.7438 28.4 48.4638 28.4C46.9038 28.4 42.3438 29.12 39.5838 29.12C30.9438 29.12 24.1038 25.76 17.7438 25.76C12.4638 25.76 10.3038 27.08 10.3038 31.52C10.3038 33.2 10.6638 35.24 10.6638 35.72C10.6638 38.24 9.22375 39.08 6.94375 39.08C4.66375 39.08 2.86375 38.24 2.86375 35.72C2.86375 35.12 3.10375 31.64 3.10375 26.72C2.98375 14.48 0.34375 8.59999 0.34375 5.23999C0.34375 2 2.14375 0.559997 4.66375 0.559997C7.54375 0.559997 8.98375 2.47999 8.98375 6.8C8.98375 9.32 8.50375 12.8 8.50375 16.88C8.50375 18.68 9.34375 19.64 10.9038 19.64C12.3438 19.64 13.5438 18.8 13.7838 16.76C14.9838 4.52 17.2638 0.199995 25.7838 0.199995Z" fill="#FDE9E9"/>
</svg>
