<svg width="67" height="79" viewBox="0 0 67 79" fill="none" xmlns="http://www.w3.org/2000/svg">
<path d="M33.5234 0.199995C56.9234 0.199995 65.3234 7.04 65.3234 18.44C65.3234 28.52 60.2834 32.84 47.3234 34.04C45.8834 34.16 44.9234 35.12 44.9234 36.32C44.9234 37.4 45.4034 38.36 47.3234 38.6C61.0034 40.16 66.8834 44.84 66.8834 57.8C66.8834 71 58.1234 78.2 33.5234 78.2C8.92344 78.2 0.163438 71 0.163438 57.8C0.163438 44.84 6.04344 40.16 19.7234 38.6C21.6434 38.36 22.1234 37.4 22.1234 36.32C22.1234 35.12 21.1634 34.16 19.7234 34.04C6.76344 32.84 1.72344 28.52 1.72344 18.44C1.72344 7.04 10.1234 0.199995 33.5234 0.199995ZM33.5234 40.16C26.9234 40.16 25.1234 43.52 25.1234 58.4C25.1234 68.36 26.9234 71 33.5234 71C40.1234 71 41.9234 68.36 41.9234 58.4C41.9234 43.52 40.1234 40.16 33.5234 40.16ZM33.5234 32.84C40.1234 32.84 42.0434 29.72 42.0434 22.76C42.0434 10.4 40.1234 7.39999 33.5234 7.39999C26.9234 7.39999 25.0034 10.4 25.0034 22.76C25.0034 29.72 26.9234 32.84 33.5234 32.84Z" fill="#FDE9E9"/>
</svg>
