<svg width="68" height="79" viewBox="0 0 68 79" fill="none" xmlns="http://www.w3.org/2000/svg">
<path d="M21.7522 23.12C21.7522 33.32 24.6322 39.56 31.4722 39.56C37.4722 39.56 40.3522 33.8 40.2322 22.16C40.1122 13.64 38.4322 7.76 31.5922 7.76C24.7522 7.76 21.7522 13.76 21.7522 23.12ZM33.7522 69.68C42.2722 69.68 46.1122 60.56 46.1122 43.16C46.1122 41 45.3922 39.8 43.4722 39.8C42.1522 39.8 40.9522 40.04 40.2322 42.08C37.9522 48.68 30.6322 50.48 22.1122 50.48C7.47219 50.48 0.392188 40.88 0.392188 28.28C0.392188 12.44 6.99219 0.439999 33.7522 0.439999C59.5522 0.439999 67.5922 14.84 67.5922 35.36C67.5922 63.8 53.6722 78.2 30.6322 78.2C21.6322 78.2 12.8722 77.24 7.71219 77.24C4.47219 77.24 3.15219 75.32 3.15219 73.04C3.15219 71.24 3.75219 68.72 3.75219 63.32C3.75219 61.64 3.51219 59.84 3.51219 58.64C3.51219 56 4.23219 54.08 8.07219 53.84C17.4322 53.84 21.5122 54.92 24.0322 60.44C27.1522 66.8 29.1922 69.68 33.7522 69.68Z" fill="#FDE9E9"/>
</svg>
