<?xml version="1.0" encoding="utf-8"?>
<svg id="Ebene_1" data-name="Ebene 1" viewBox="-3.083 1.186 76.799 72.568" xmlns="http://www.w3.org/2000/svg">
  <defs>
    <style>
      .cls-1 {
        fill: #FDE9E9;
      }
    </style>
  </defs>
  <path class="cls-1" d="M 35.43 0 C 40.28 0 45.23 1.55 45.23 9.71 C 45.23 23.3 38.34 39.32 38.34 57.47 C 38.34 59.31 39.41 60.19 41.06 60.19 C 42.42 60.19 43.88 59.03 44.46 56.99 C 46.79 48.84 52.03 39.71 60.48 39.71 C 66.4 39.71 70.87 43.79 70.87 50.49 C 70.87 52.82 69.61 54.08 67.57 54.66 C 57.57 57.67 43.79 63.3 39.51 72.23 C 38.44 74.37 36.99 74.95 35.43 74.95 C 33.87 74.95 32.52 74.37 31.35 72.23 C 26.69 63.4 13.29 57.67 3.29 54.66 C 1.25 54.08 -0.01 52.82 -0.01 50.49 C -0.01 43.79 4.46 39.71 10.38 39.71 C 18.83 39.71 24.07 48.84 26.4 56.99 C 26.98 59.03 28.44 60.19 29.8 60.19 C 31.45 60.19 32.52 59.32 32.52 57.47 C 32.52 39.32 25.63 23.3 25.63 9.71 C 25.63 1.55 30.58 0 35.43 0 Z" transform="matrix(0, 1, -1, 0, 72.905009, 2.045004)" style="fill: rgb(113, 62, 90);"/>
</svg>