<svg width="119" height="862" viewBox="0 0 119 862" fill="none" xmlns="http://www.w3.org/2000/svg">
<path d="M29.6051 844.944C29.5091 844.624 29.3171 844.496 29.0931 844.496C28.8691 844.496 28.6451 844.656 28.5491 845.072C28.1011 847.248 27.8771 849.584 27.7171 851.824C27.6211 853.328 27.4291 854 25.8611 854C24.7731 853.904 23.6531 853.84 22.5331 853.84C21.2851 853.84 20.0691 854 18.8211 854C17.2211 854 16.7731 853.136 16.6451 851.952C16.4531 850.096 15.5891 845.808 14.0211 839.92C13.3491 837.456 12.8691 837.008 12.3251 836.528C11.5891 835.888 11.2051 835.472 11.2051 834.96C11.2051 834.288 11.5891 833.84 12.4531 833.84C16.4211 833.936 20.5491 834.032 24.7411 834.032C28.6451 834.064 32.6131 833.936 36.5811 833.84C37.2531 833.84 37.4771 834.192 37.4771 834.896C37.4771 835.44 37.0931 835.856 36.6131 835.856C36.4211 835.856 35.9411 835.792 35.8131 835.792C34.5971 835.792 34.1171 836.368 34.1171 837.456C34.1171 840.4 35.4291 846.544 36.9331 851.248C37.0931 851.792 37.4771 851.984 37.8291 851.984C38.0851 851.984 38.4691 851.792 38.5331 851.44C39.7811 842.928 38.1811 837.264 38.1811 835.184C38.1811 834.256 38.6611 833.84 39.2691 833.84C40.3571 833.84 41.0611 833.968 42.2131 833.968C43.3651 833.968 44.0371 833.84 44.8051 833.84C45.2211 833.84 45.7331 833.968 45.7331 834.736C45.7331 835.024 45.5091 835.504 44.9331 836.24C44.1971 837.2 42.1811 840.752 40.9331 847.056C40.7731 847.888 40.3251 850.064 40.2291 851.856C40.1651 853.232 39.8451 854 38.6931 854C37.7971 854 36.6451 853.84 35.0771 853.84C33.7971 853.84 32.8691 854 32.3571 854C31.0451 854 30.6611 853.392 30.5331 852.048C30.4051 850.512 30.3091 848.08 29.6051 844.944ZM23.3011 836.048C21.3171 836.048 20.7091 836.784 20.7091 838C20.7091 840.112 21.9251 845.488 23.5251 850.864C23.7171 851.504 24.1011 851.696 24.4211 851.696C24.8051 851.696 25.1571 851.376 25.2531 850.896C26.1491 846.576 27.2371 842.64 27.2371 839.088C27.2371 837.328 26.5971 836.048 23.3011 836.048ZM51.0369 833.936C52.7969 833.936 54.3329 833.84 55.9009 833.84C56.5089 833.84 56.7649 834.288 56.7649 834.896C56.7649 835.344 56.5089 835.92 55.9009 835.92C55.7089 835.92 55.4209 835.824 55.1329 835.824C54.3329 835.824 54.2689 836.816 54.2049 837.84C54.1089 839.312 54.0449 841.04 54.0449 842.768C54.0449 845.456 54.1409 848.112 54.2049 850C54.2689 851.504 54.4289 852.048 55.2289 852.048C55.3569 852.048 55.6769 851.984 55.9009 851.984C56.5089 851.984 56.7649 852.464 56.7649 852.976C56.7649 853.552 56.5089 854 55.9009 854C55.1009 854 52.8609 853.904 51.2609 853.904C49.4689 853.904 46.8449 854 45.9489 854C45.3409 854 45.0849 853.552 45.0849 852.976C45.0849 852.464 45.3409 851.984 45.9489 851.984C46.1089 851.984 46.4289 852.048 46.5249 852.048C47.3249 852.048 47.4849 851.504 47.5489 850C47.6129 848.112 47.7089 845.456 47.7089 842.8C47.7089 841.072 47.6449 839.344 47.5489 837.872C47.4849 836.848 47.4209 835.824 46.6209 835.824C46.3649 835.824 46.1089 835.92 45.9489 835.92C45.3409 835.92 45.0849 835.344 45.0849 834.896C45.0849 834.288 45.3409 833.84 45.9489 833.84C47.5809 833.84 49.2129 833.936 51.0369 833.936ZM63.1916 838.96C63.0316 838.736 62.7756 838.64 62.5196 838.64C62.2316 838.64 61.9116 838.864 61.9116 839.44C61.9116 851.376 66.2956 851.472 66.2956 852.944C66.2956 853.616 65.9756 854 65.3676 854C64.3436 854 63.1916 853.904 62.1676 853.904C60.5356 853.904 59.2876 854 58.5836 854C58.1036 854 57.7836 853.616 57.7836 853.04C57.7836 851.664 59.9916 851.152 59.9916 839.792C59.9916 835.952 59.7996 835.76 58.9036 835.76C58.5196 835.76 58.2636 835.856 58.0076 835.856C57.4636 835.856 57.1756 835.408 57.1756 834.832C57.1756 834.32 57.4636 833.84 58.0076 833.84C59.5756 833.84 61.3356 833.968 63.0636 833.968C64.4076 833.968 66.1996 833.84 67.5436 833.84C68.5036 833.84 68.6956 834.48 68.8876 835.504C69.7196 839.856 71.8636 843.216 73.8796 847.088C74.0716 847.472 74.4876 847.568 74.7756 847.568C75.0956 847.568 75.4156 847.312 75.4156 846.768C75.4156 837.232 71.5436 836.592 71.5436 834.896C71.5436 834.32 71.9916 833.84 72.7276 833.84C73.7196 833.904 74.6796 833.936 75.5436 833.936C76.6316 833.936 77.6556 833.904 78.5196 833.84C79.2556 833.84 79.6396 834.32 79.6396 834.928C79.6396 836.208 77.1436 837.488 77.1436 844.72C77.1436 846.896 77.6236 851.408 77.6236 852.528C77.6236 853.552 77.3676 854 76.4396 854C75.7356 854 74.8716 853.872 74.1036 853.872C73.2076 853.872 72.3116 854 71.5436 854C70.6476 854 70.2636 853.616 69.8476 852.816C66.9356 847.184 64.3756 840.624 63.1916 838.96ZM82.9001 853.424C82.9001 854 82.4841 854.32 81.9401 854.32C81.3641 854.32 80.8841 854 80.8841 853.424C80.8841 852.72 81.0761 850.8 81.0761 849.552C81.0761 848.4 80.8841 847.536 80.8841 846.992C80.8841 846.32 81.1401 845.808 82.0361 845.808C84.4041 845.808 86.8041 852.24 91.3161 852.24C92.5321 852.24 93.7161 851.568 93.7161 850.032C93.7161 848.624 92.9801 847.76 88.6921 846.736C83.0921 845.36 81.2361 843.184 81.2361 839.568C81.2361 836.368 83.5081 833.36 88.7561 833.36C92.6601 833.36 93.9401 835.408 95.0921 835.408C95.5721 835.408 95.8921 835.216 95.8921 834.864C95.8921 834.608 95.8281 834.448 95.8281 834.224C95.8281 833.616 96.2441 833.296 96.7561 833.296C97.4281 833.296 97.7161 833.584 97.7161 834.448C97.7161 835.44 97.6201 836.208 97.6201 837.392C97.6201 838.128 97.6841 839.408 97.6841 839.856C97.6841 840.624 97.3321 841.104 96.6601 841.104C93.8121 841.104 91.8921 835.408 88.4041 835.408C86.8681 835.408 85.8761 836.176 85.8761 837.488C85.8761 838.704 86.5801 839.632 90.4841 840.72C96.3401 842.352 98.5481 844.208 98.5481 848.272C98.5481 852.496 95.3481 854.48 91.3481 854.48C86.9961 854.48 85.3321 852.08 83.7961 852.08C83.1561 852.08 82.8361 852.368 82.8361 852.816C82.8361 852.976 82.9001 853.232 82.9001 853.424Z" fill="#FDE9E9"/>
<path d="M95.1415 46.32C95.1415 66.12 88.6615 79.8 62.8615 79.8C42.5815 79.8 23.9815 73.44 23.9815 41.04C23.9815 16.56 36.4615 0.599995 59.0215 0.599995C73.5415 0.599995 78.7015 9.48 85.3015 9.48C86.9815 9.48 88.3015 8.76 88.3015 6.83999C88.3015 5.63999 88.0615 4.32 88.0615 3.95999C88.0615 1.44 89.3815 0.359998 91.5415 0.359998C93.4615 0.359998 95.1415 1.44 95.1415 3.95999C95.1415 5.28 94.6615 12.84 94.5415 17.76C94.4215 21.72 94.4215 26.16 94.4215 29.16C94.4215 32.52 93.7015 34.92 89.1415 35.16C79.4215 35.16 72.9415 30.96 69.1015 21.36C65.3815 12 64.3015 7.8 58.7815 7.8C52.1815 7.8 48.2215 15.12 48.2215 31.92C48.2215 51.84 53.5015 63.36 71.3815 63.36C81.3415 63.36 87.4615 59.52 87.4615 51.96C87.4615 49.56 86.7415 47.4 86.7415 46.08C86.7415 43.8 88.1815 42 90.9415 42C93.3415 42 95.1415 43.2 95.1415 46.32ZM98.7199 148.12C98.7199 170.68 88.2799 182.8 59.2399 182.8C30.3199 182.8 19.8799 171.4 19.8799 148.12C19.8799 120.76 30.3199 103.6 59.2399 103.6C88.2799 103.6 98.7199 121.48 98.7199 148.12ZM72.6799 147.52C72.9199 122.56 69.9199 110.8 59.2399 110.8C48.6799 110.8 45.6799 122.56 45.9199 147.52C46.0399 163.84 48.6799 173.08 59.2399 173.08C69.9199 173.08 72.5599 163.84 72.6799 147.52ZM83.3435 269C83.9435 262.28 84.1835 250.28 84.1835 227C84.1835 222.08 83.8235 220.52 81.6635 220.52C80.4635 220.52 78.9035 221.96 77.8235 225.2C74.3435 235.76 68.5835 259.88 64.9835 278.84C64.1435 283.52 61.7435 283.88 52.9835 283.88C43.2635 283.88 43.3835 283.28 42.1835 278.84C38.2235 264.2 29.5835 234.8 24.5435 224.24C23.5835 222.2 22.3835 220.52 21.3035 220.52C19.6235 220.52 19.0235 222.32 19.0235 225.44C19.0235 254.12 21.0635 269.72 29.8235 275.48C33.5435 277.88 33.5435 279.08 33.5435 280.88C33.5435 281.72 32.8235 284 30.6635 284C28.7435 284 25.6235 283.76 19.8635 283.76C12.6635 283.76 7.02352 284 3.78352 284C1.86352 284 0.543524 282.92 0.543524 281C0.543524 278.72 1.98352 277.88 4.38352 275C9.06352 269.36 11.5835 262.52 11.5835 224.6C11.5835 219.92 10.9835 215.72 7.02352 215.72C5.82352 215.72 4.62352 216.08 3.78352 216.08C1.50352 216.08 0.543524 213.92 0.543524 212.24C0.543524 210.08 1.50352 208.4 3.78352 208.4C11.7035 208.4 21.6635 208.88 28.7435 208.88C34.1435 208.88 36.0635 208.4 39.7835 208.4C44.2235 208.4 45.1835 209.72 46.3835 215.12C47.8235 221.36 51.5435 236.84 54.1835 244.52C56.3435 250.76 57.3035 251.84 59.2235 251.84C61.8635 251.84 62.7035 250.04 64.5035 244.04C67.0235 235.88 69.0635 226.04 71.2235 215.24C72.1835 210.44 72.4235 208.4 77.3435 208.4C84.1835 208.4 88.6235 208.88 99.9035 208.88C105.064 208.88 110.464 208.4 114.904 208.4C117.184 208.4 118.144 210.08 118.144 212.24C118.144 213.92 117.184 216.08 114.904 216.08C114.064 216.08 112.864 215.72 111.664 215.72C108.664 215.72 108.424 219.44 108.184 223.28C107.824 228.92 107.584 235.4 107.584 241.88C107.584 251.96 107.944 261.92 108.184 269C108.424 274.64 109.024 276.68 112.024 276.68C112.624 276.68 113.944 276.44 114.904 276.44C117.184 276.44 118.144 278.24 118.144 280.16C118.144 282.32 117.184 284 114.904 284C111.184 284 104.104 283.76 95.3435 283.76C86.5835 283.76 80.8235 284 76.6235 284C74.3435 284 73.3835 282.32 73.3835 280.16C73.3835 278.24 74.3435 276.44 76.6235 276.44C77.5835 276.44 78.9035 276.68 79.5035 276.68C82.5035 276.68 82.8635 274.64 83.3435 269ZM73.8317 335.76C73.8317 323.52 72.0317 318.84 64.9517 318.84C56.7917 318.84 55.7117 323.4 55.7117 357.72C55.7117 361.2 57.0317 361.92 60.0317 361.92C69.5117 361.92 73.8317 353.04 73.8317 335.76ZM24.3917 387C22.1117 387 21.1517 385.32 21.1517 383.16C21.1517 381 22.5917 379.32 24.3917 379.32C25.2317 379.32 26.7917 379.68 27.2717 379.68C30.2717 379.68 30.8717 377.64 31.1117 372C31.4717 364.8 31.7117 354.96 31.7117 344.88C31.7117 338.4 31.4717 331.92 31.1117 326.28C30.8717 322.44 30.6317 318.72 27.6317 318.72C26.4317 318.72 25.2317 319.08 24.3917 319.08C22.1117 319.08 21.1517 317.4 21.1517 315.24C21.1517 313.08 22.5917 311.4 24.3917 311.4C30.6317 311.4 36.7517 311.64 43.7117 311.64C51.0317 311.64 65.3117 310.92 71.9117 310.92C87.9917 310.92 97.7117 318.24 97.7117 334.92C97.7117 358.8 87.2717 363.48 72.8717 366.36C56.5517 369.6 55.5917 369.96 55.5917 374.76C55.5917 378.36 56.6717 379.68 60.1517 379.68C62.0717 379.68 67.3517 378.72 70.3517 378.72C72.6317 378.72 73.8317 380.64 73.8317 383.16C73.8317 384.84 72.6317 387 70.3517 387C65.9117 387 53.1917 386.76 44.5517 386.76C37.5917 386.76 27.8717 387 24.3917 387ZM54.057 425.8C53.697 432.64 53.697 439.48 53.697 447.52C53.697 466.12 55.617 475.6 67.857 475.6C76.737 475.6 81.177 470.8 81.177 458.44C81.177 436 68.697 424.84 68.697 418C68.697 415.24 70.377 414.4 71.937 414.4C75.537 414.4 79.857 414.76 83.457 414.76C87.537 414.76 91.617 414.4 94.617 414.4C97.377 414.4 98.577 415.84 98.577 417.64C98.577 419.32 98.217 420.28 96.537 423.04C91.497 430.96 88.977 441.76 88.977 454.72V462.16C88.977 481.12 81.177 491.2 59.937 491.2C36.657 491.2 29.457 482.2 29.457 461.2C29.457 452.8 29.817 443.8 29.817 433.72C29.817 423.16 29.697 421.6 26.817 421.6C25.617 421.6 24.537 421.96 23.697 421.96C21.417 421.96 20.457 420.28 20.457 418.12C20.457 415.6 21.897 414.4 23.697 414.4C29.577 414.4 35.337 414.64 41.937 414.64C48.417 414.64 53.097 414.4 58.977 414.4C61.737 414.4 62.817 416.08 62.817 418.24C62.817 420.04 61.737 421.96 58.977 421.96C58.137 421.96 57.297 421.6 56.457 421.6C54.417 421.6 54.177 423.64 54.057 425.8ZM59.7471 518.36C70.0671 518.36 80.9871 517.64 91.6671 517.4C96.1071 517.4 96.5871 519.8 96.5871 523.28C96.3471 527.6 96.1071 532.28 96.1071 536.96C96.1071 541.04 97.1871 547.04 97.1871 548.48C97.1871 551.12 96.1071 552.92 93.8271 552.92C87.9471 552.92 84.8271 544.28 81.3471 533.12C79.4271 527 77.5071 525.32 74.6271 525.32C71.7471 525.32 70.5471 527.12 70.5471 530.12C70.5471 584.96 71.5071 585.68 78.2271 585.68C80.6271 585.68 82.0671 584.96 83.7471 584.96C85.6671 584.96 87.2271 586.4 87.2271 588.92C87.2271 591.2 86.5071 593 83.7471 593C79.7871 593 67.6671 592.76 59.2671 592.76C50.8671 592.76 38.7471 593 34.7871 593C32.0271 593 31.3071 591.2 31.3071 588.92C31.3071 586.4 32.8671 584.96 34.7871 584.96C36.4671 584.96 37.9071 585.68 40.3071 585.68C47.0271 585.68 47.9871 584.96 47.9871 530.12C47.9871 527.12 46.7871 525.32 43.9071 525.32C41.0271 525.32 39.1071 527 37.1871 533.12C33.7071 544.28 30.5871 552.92 24.7071 552.92C22.4271 552.92 21.3471 551.12 21.3471 548.48C21.3471 547.04 22.4271 541.04 22.4271 536.96C22.4271 532.28 22.1871 527.6 21.9471 523.28C21.9471 519.8 22.4271 517.4 26.8671 517.4C37.7871 517.64 48.7071 518.36 59.7471 518.36ZM24.1156 688.32C24.7156 688.32 25.9156 688.68 26.2756 688.68C29.2756 688.68 29.8756 686.64 30.1156 681C30.3556 673.68 30.7156 663.48 30.7156 652.92C30.7156 646.8 30.4756 640.56 30.1156 635.28C29.8756 631.44 29.6356 627.72 26.6356 627.72C25.6756 627.72 24.7156 628.08 24.1156 628.08C21.8356 628.08 20.8756 626.4 20.8756 624.24C20.8756 622.08 22.3156 620.4 24.1156 620.4C30.3556 620.4 36.3556 620.88 43.3156 620.88C54.7156 620.88 81.4756 620.4 88.6756 620.4C91.5556 620.4 93.4756 621.96 93.4756 624.48C93.4756 626.4 93.1156 629.76 93.1156 634.32C93.1156 637.8 93.5956 641.4 93.5956 642.84C93.5956 645.36 92.3956 647.4 90.1156 647.4C82.4356 647.4 78.2356 627.96 61.1956 627.96C57.1156 627.96 55.9156 631.68 55.3156 635.52C54.7156 639.72 54.5956 644.64 54.4756 649.56C54.4756 651.36 55.4356 652.44 56.9956 652.44C65.1556 652.44 69.8356 643.8 75.4756 643.8C76.9156 643.8 77.9956 644.76 77.9956 647.4C77.9956 649.68 77.6356 652.2 77.6356 656.52C77.6356 662.64 77.7556 665.04 77.7556 667.2C77.7556 669.96 76.3156 670.44 74.8756 670.44C69.3556 670.44 66.8356 659.76 57.2356 659.76C55.1956 659.76 54.4756 660.96 54.4756 663C54.4756 669.72 54.4756 676.68 54.8356 681C55.3156 686.28 56.5156 688.2 60.9556 688.2C79.3156 688.2 83.0356 668.04 91.0756 668.04C93.2356 668.04 94.0756 669.84 94.0756 671.88C94.0756 673.32 93.3556 677.04 93.3556 680.52C93.3556 685.68 94.0756 689.28 94.0756 691.56C94.0756 694.2 92.3956 696 89.7556 696C81.1156 696 59.0356 695.28 43.5556 695.28C36.9556 695.28 27.3556 696 24.1156 696C21.8356 696 20.8756 694.32 20.8756 692.04C20.8756 689.88 22.3156 688.32 24.1156 688.32ZM70.0456 745.12C70.0456 734.44 67.8856 730.36 60.0856 730.36C52.0456 730.36 50.8456 733.36 50.8456 756.76C50.8456 761.44 51.5656 762.4 53.4856 762.4C64.7656 762.4 70.0456 756.52 70.0456 745.12ZM91.5256 784.36C94.5256 784.36 95.4856 782.44 95.4856 779.56C95.4856 776.56 93.4456 773.2 93.4456 771.04C93.4456 769 94.6456 767.2 97.1656 767.2C100.766 767.2 101.486 769.12 101.486 776.8C101.486 791.56 99.6856 800.08 83.7256 800.2C72.3256 800.2 66.6856 796.6 66.6856 786.88C66.6856 783.64 67.0456 780.04 67.0456 776.2C67.0456 772.96 65.3656 771.04 60.2056 771.04C54.3256 771.04 51.0856 773.56 51.0856 778C51.0856 780.28 51.2056 783.52 51.3256 785.44C51.5656 790 52.1656 791.68 55.2856 791.68C55.8856 791.68 57.5656 791.44 58.5256 791.44C60.5656 791.44 61.6456 793.24 61.6456 795.16C61.6456 796.84 60.5656 799 58.5256 799C55.2856 799 46.1656 798.76 39.8056 798.76C33.2056 798.76 23.4856 799 20.2456 799C17.9656 799 17.0056 797.32 17.0056 795.16C17.0056 793 18.4456 791.32 20.2456 791.32C20.9656 791.32 22.1656 791.68 22.5256 791.68C25.5256 791.68 26.1256 789.64 26.3656 784C26.6056 776.92 26.9656 766.96 26.9656 756.88C26.9656 750.4 26.7256 743.92 26.3656 738.28C26.1256 734.44 25.8856 730.72 22.8856 730.72C21.9256 730.72 20.9656 731.08 20.2456 731.08C17.9656 731.08 17.0056 729.4 17.0056 727.24C17.0056 725.08 18.4456 723.4 20.2456 723.4C26.2456 723.4 32.2456 723.64 38.9656 723.64C47.2456 723.64 63.3256 722.92 70.7656 722.92C85.8856 722.92 94.8856 728.8 94.8856 742.12C94.8856 758.32 83.4856 761.44 71.0056 763.36C69.6856 763.6 68.9656 764.44 68.9656 765.4C68.9656 766.12 69.8056 767.08 71.2456 767.08C81.0856 767.08 86.0056 769.24 86.9656 779.92C87.2056 782.92 88.8856 784.36 91.5256 784.36Z" fill="#FDE9E9"/>
</svg>
