<?xml version="1.0" encoding="utf-8"?>
<svg id="Ebene_1" data-name="Ebene 1" viewBox="0 0 187.09 187.09" xmlns="http://www.w3.org/2000/svg">
  <path d="m31.86,31.15c.22-.24.49-.17.73.05.17.17.3.48.08.71-.07.07-.21.15-.32.26-.3.31.07.7.44,1.1.54.58,1.18,1.24,1.85,1.88,1.04.99,2.11,1.94,2.86,2.61.61.53.88.67,1.17.36.05-.05.14-.2.22-.28.22-.24.51-.16.7.03.22.21.3.48.08.71-.3.31-1.16,1.14-1.75,1.76-.66.69-1.59,1.75-1.92,2.09-.22.24-.49.17-.72-.04-.2-.19-.29-.47-.07-.7.06-.06.2-.16.24-.2.3-.31.14-.57-.42-1.15-.71-.72-1.7-1.74-2.73-2.72-.67-.64-1.36-1.25-1.97-1.76-.42-.35-.84-.71-1.14-.4-.09.1-.15.23-.21.3-.22.24-.54.12-.72-.04-.24-.22-.31-.49-.09-.72.6-.63,1.24-1.23,1.92-1.94.65-.68,1.18-1.31,1.76-1.92Z" style="fill: rgb(113, 62, 90);"/>
  <path d="m39.92,37.4c-.2-.24-.18-.54.01-.7.07-.06.23-.13.27-.16.33-.28.21-.55-.29-1.19-.65-.82-1.54-1.97-2.51-3.13-.56-.67-1.16-1.33-1.69-1.87-.38-.4-.75-.78-1.07-.51-.1.09-.18.22-.24.27-.25.21-.51.11-.71-.12-.2-.24-.19-.55,0-.72,1.13-.95,2.25-1.8,3.51-2.86.84-.71,2.82-2.45,3.29-2.85.42-.35.61-.34.92.03.03.04.36.48.85,1.07.36.43.8.87.9.99.23.28.24.47-.04.7-1.05.88-2.75-1.3-4.74.38-.51.43-.22.88.1,1.32.59.78,1.27,1.67,1.78,2.28.43.51.57.52.94.22.98-.83.18-2.1,1.08-2.85.24-.2.44-.14.59.04.11.13.55.79,1.06,1.39.4.47.94.98,1.18,1.27.13.16.14.44-.05.6-.83.69-2.26-.45-3.19.33-.29.24-.38.48-.11.81.25.3.61.67.85.94.54.59.86.71,1.3.34.21-.18.71-.67,1.03-.93.2-.17.52-.1.71.12.2.24.24.49-.01.7-.5.42-1.97,1.52-2.95,2.34-.72.61-1.71,1.57-2.06,1.86-.25.21-.51.11-.72-.14Z" style="fill: rgb(113, 62, 90);"/>
  <path d="m50.71,23.95c-1.5-.92-3.46-1.92-4.58-2.42-.64-.28-1-.37-1.17-.65-.18-.31-.11-.51.17-.67.37-.21,1.42-.72,2.49-1.34.58-.33,1.86-1.17,1.99-1.24.28-.16.55-.04.7.23.2.34.13.56-.16.72-.1.06-.25.08-.38.16-.24.14-.31.36-.15.62.49.85,1.27,1.42,2.96,2.7.49.37.94.43,1.25.25.45-.26.35-1.03-.13-1.88-1.31-2.27-1.83-2.19-2.39-3.15-.17-.3-.14-.55.16-.73.16-.09.59-.24,1.31-.65.94-.54,1.31-.85,1.62-1.03.31-.18.53-.18.72.16.33.58.22,1.95.11,4.62-.1,2.65-.12,3.32.49,4.39.51.89,1.02.74,1.42.51.3-.17.46-.33.67-.45.25-.15.51-.01.66.25.12.21.14.55-.11.7-.52.3-2.08,1.16-3.15,1.78-1.04.6-2.52,1.49-3.03,1.78-.25.15-.54-.04-.66-.25-.15-.27-.14-.55.11-.7.21-.12.43-.19.72-.36.39-.22.72-.6-.05-1.93-.24-.42-.84-.94-1.6-1.41Z" style="fill: rgb(113, 62, 90);"/>
  <path d="m65.24,22.29c-3.84,1.53-5.83.56-7.06-2.53-1.44-3.63-.96-6.46,2.88-7.99,3.85-1.53,6.18.29,7.59,3.83,1.19,3,.44,5.15-3.41,6.69Zm-3.8-9.56c-1.4.56-1.18,2.28.17,5.58.88,2.16,1.72,3.25,3.12,2.69,1.42-.56,1.28-1.93.44-4.1-1.29-3.33-2.3-4.73-3.72-4.17Z" style="fill: rgb(113, 62, 90);"/>
  <path d="m73.69,12.96c.61,2.58,1.18,3.84,2.89,3.44,1.23-.29,1.69-1.1,1.29-2.82-.73-3.12-2.83-4.26-3.06-5.21-.09-.38.12-.56.33-.61.5-.12,1.11-.21,1.61-.33.57-.13,1.12-.32,1.54-.41.38-.09.6.07.66.32.05.23.04.38-.11.82-.44,1.27-.44,2.85-.02,4.65l.24,1.03c.62,2.63-.14,4.29-3.09,4.98-3.24.76-4.53-.25-5.22-3.17-.27-1.17-.52-2.43-.85-3.83-.34-1.47-.41-1.68-.81-1.59-.17.04-.3.12-.42.15-.32.07-.5-.13-.58-.43-.08-.35.08-.56.33-.63.82-.19,1.63-.35,2.54-.56.9-.21,1.54-.4,2.36-.59.38-.09.59.11.66.41.06.25-.03.55-.41.64-.12.03-.25,0-.36.03-.28.07-.25.36-.2.66.17.96.4,1.91.66,3.03Z" style="fill: rgb(113, 62, 90);"/>
  <path d="m90.13,6.94c-1.08.06-1.2.75-1.21,1.45-.02,1.87.16,4.64.32,6.21.08.78.26,1.07.83,1.04,1.59-.08,2.08-4.73,3.14-4.78.29-.02.45.08.47.4.02.29-.02,1.49.04,2.66.05,1.03.2,1.74.22,2.17.01.24-.22.42-.39.43-1.01.05-3.85.17-5.82.28-.94.05-2.32.16-2.79.18-.33.02-.48-.28-.49-.52-.02-.31.18-.56.43-.57.1,0,.28.04.33.03.43-.02.5-.32.49-1.12-.02-1.66-.12-4.52-.35-6.5-.06-.55-.13-1.09-.55-1.07-.14,0-.27.07-.37.07-.33.02-.48-.28-.49-.52-.02-.31.18-.56.43-.57.85-.05,1.71-.06,2.67-.11,1.42-.08,2.65-.18,3.95-.24.27-.01.49.18.51.54.01.21-.09.57-.45.59-.21.01-.52-.06-.91-.04Z" style="fill: rgb(113, 62, 90);"/>
  <path d="m100.99,6.11c.32.02.45.26.43.59-.01.24-.17.54-.49.52-.1,0-.25-.06-.41-.07-.43-.02-.49.51-.55,1.05-.09.78-.18,1.71-.23,2.63-.08,1.44-.1,2.86-.12,3.87,0,.81.06,1.1.49,1.12.07,0,.24-.02.36-.01.33.02.45.28.43.55-.02.31-.17.54-.49.52-.43-.02-1.62-.14-2.48-.18-.96-.05-2.36-.08-2.84-.1-.33-.02-.45-.26-.43-.57.01-.27.17-.52.49-.51.08,0,.25.05.31.05.43.02.53-.26.61-1.07.09-1.01.21-2.42.29-3.84.05-.92.06-1.85.06-2.64,0-.55,0-1.1-.44-1.12-.14,0-.28.04-.36.03-.33-.02-.45-.33-.43-.57.02-.32.17-.56.49-.54.87.05,1.74.14,2.72.2.94.05,1.76.04,2.6.09Z" style="fill: rgb(113, 62, 90);"/>
  <path d="m101.45,16.26c.07-.39.3-.5.55-.46.1.02.23.09.29.1.42.08.56-.2.73-.98.21-.99.51-2.38.76-3.8.16-.91.29-1.83.38-2.63.06-.55.12-1.08-.3-1.15-.14-.02-.28,0-.36-.01-.32-.06-.41-.32-.36-.62.07-.39.3-.5.55-.46.84.15,1.66.33,2.61.5.89.16,1.68.26,2.49.4.32.06.41.33.36.6-.05.3-.23.52-.55.46-.08-.01-.21-.07-.33-.09-.24-.04-.36.08-.49.63-.16.6-.35,1.49-.52,2.43-.08.42-.02.52.16.55.95.17,2.96-.89,3.15-1.95.22-1.22-.76-1.21-.63-1.96.04-.24.3-.42.67-.35.41.07.98.24,1.47.33.46.08,1.09.12,1.5.19.42.08.67.24.59.71-.51,2.89-3.01,2.84-5.01,3.41-.15.04-.23.12-.25.25-.03.15.05.29.26.32.37.07.81-.05,1.62.1.73.13,1.34.69,1.15,1.75-.05.29-.19.78-.26,1.19-.11.64-.04.88.34.95.22.04.54-.13.64-.65.12-.66-.15-1.12-.08-1.49.05-.29.32-.43.62-.38.52.09.5.72.29,1.91-.4,2.23-1.33,2.79-2.9,2.53-1.82-.32-2.55-1.03-2.28-2.55.09-.52.25-1.12.36-1.73.15-.83-.3-1.34-1.08-1.48-.41-.07-.62.03-.67.35-.15.86-.24,1.73-.33,2.34-.11.8-.07,1.1.35,1.18.07.01.25,0,.35,0,.32.06.41.32.36.62-.04.24-.23.52-.55.46-.44-.08-1.68-.33-2.53-.48-.95-.17-2.27-.37-2.74-.45-.32-.06-.41-.32-.36-.62Z" style="fill: rgb(113, 62, 90);"/>
  <path d="m114.23,18.21c.41.14.58-.11.87-.86.37-.98.89-2.34,1.37-3.77.28-.83.54-1.68.73-2.41.14-.53.28-1.04-.12-1.18-.13-.04-.28-.04-.36-.07-.31-.1-.36-.38-.26-.67s.37-.45.61-.37c.84.29,1.63.63,2.57.95,1.54.52,5.18,1.69,6.15,2.03.39.13.58.43.46.77-.09.26-.29.7-.5,1.31-.16.47-.26.98-.33,1.17-.12.34-.37.56-.68.46-1.04-.35-.71-3.17-3.01-3.96-.55-.19-.88.26-1.14.75-.27.54-.52,1.2-.76,1.86-.08.24,0,.43.21.5,1.1.38,2.13-.58,2.9-.32.2.07.3.25.17.6-.1.31-.27.63-.47,1.22-.28.83-.38,1.16-.48,1.45-.13.37-.34.37-.54.31-.75-.25-.59-1.81-1.89-2.26-.28-.09-.43.04-.52.31-.31.91-.63,1.85-.78,2.45-.18.74-.1,1.05.5,1.25,2.48.85,3.91-1.71,5-1.34.29.1.32.38.23.66-.07.19-.33.66-.5,1.13-.24.7-.31,1.22-.41,1.53-.12.36-.43.52-.79.4-1.17-.4-4.12-1.51-6.21-2.22-.89-.3-2.22-.65-2.66-.8-.31-.1-.36-.38-.26-.68.1-.29.37-.44.61-.35.08.03.23.13.28.15Z" style="fill: rgb(113, 62, 90);"/>
  <path d="m136.67,17.11c.29.15.3.43.15.72-.11.21-.38.42-.67.27-.09-.05-.2-.17-.34-.24-.38-.2-.66.25-.94.72-.41.67-.87,1.48-1.3,2.3-.67,1.27-1.29,2.56-1.73,3.47-.34.73-.41,1.03-.03,1.23.06.03.23.08.33.14.29.15.29.44.16.69-.14.27-.38.42-.67.27-.38-.2-1.42-.8-2.17-1.2-.85-.45-2.12-1.06-2.54-1.28-.29-.15-.3-.43-.15-.7.13-.24.37-.41.66-.25.08.04.21.15.26.17.38.2.59-.02,1-.72.5-.88,1.21-2.11,1.87-3.37.43-.82.83-1.65,1.15-2.38.23-.5.45-1,.07-1.2-.12-.06-.27-.08-.34-.12-.29-.15-.27-.49-.15-.7.15-.29.38-.44.67-.29.77.41,1.52.86,2.39,1.31.83.44,1.59.78,2.33,1.17Z" style="fill: rgb(113, 62, 90);"/>
  <path d="m146.89,23.78c.52.36.39.68.1,1.09-.38.49-.78,1.02-1.16,1.57-.33.48-.69,1.27-.8,1.44-.21.31-.49.44-.75.25-.69-.47-.36-1.74.13-3.34.27-.88.18-1.23-.16-1.46-.34-.23-.63-.12-.87.24-4.43,6.46-4.37,6.62-3.58,7.16.28.19.51.23.71.36.23.16.29.45.09.75-.18.27-.41.42-.74.2-.47-.32-1.87-1.33-2.86-2-.99-.68-2.44-1.63-2.9-1.95-.33-.22-.26-.49-.08-.76.2-.3.5-.34.73-.19.2.14.31.34.59.53.79.54.96.54,5.39-5.92.24-.35.25-.66-.09-.9-.34-.23-.7-.19-1.42.38-1.31,1.03-2.38,1.8-3.07,1.32-.27-.18-.25-.48-.04-.79.12-.17.73-.79,1.06-1.27.38-.55.73-1.12,1.05-1.65.28-.41.53-.65,1.05-.29,1.27.91,2.49,1.88,3.79,2.77,1.21.83,2.56,1.63,3.84,2.46Z" style="fill: rgb(113, 62, 90);"/>
  <path d="m143.88,35.14c-.21-.21-.22-.39.03-.64.78-.79,6.23-1.93,8.14-3.85.45-.45.24-.9.03-1.1-.12-.12-.32-.22-.42-.33-.27-.27-.2-.6,0-.81.19-.19.52-.26.79,0,.41.41,1.81,1.97,2.63,2.78.75.75,1.53,1.38,1.7,1.54.3.3.37.7-.06,1.13-1.51,1.52-3.71,5.98-4.29,8.05-.12.44-.14.65-.31.82-.16.16-.39.2-.57.01-.29-.29-.9-1.06-1.64-1.8-.61-.6-2.09-1.91-2.22-2.04-.26-.25-.17-.51.05-.73.22-.22.52-.26.73-.05.1.1.17.24.43.5.28.28.69.3,1.2-.21.77-.78.69-.98-.55-2.22-1.09-1.09-1.35-1.05-1.71-.68-.72.73-.18,1.64-.63,2.1-.22.22-.5.3-.73.08-.17-.17-.91-1.07-1.3-1.46-.45-.45-1.03-.86-1.28-1.1Zm6.19.11c1.08,1.07,1.37.98,1.7.67.52-.5,1.59-2.11,1.91-3.1.2-.62.2-.79,0-.98-.58-.58-2.58.56-3.87,1.86-.48.49-.59.72.25,1.55Z" style="fill: rgb(113, 62, 90);"/>
  <path d="m160.12,40.39c-.09-.12-.29-.19-.54,0-5.13,3.8-3.78,5.72-4.41,6.19-.29.21-.56.2-.75-.06-.33-.44-.65-.97-.98-1.41-.52-.7-.96-1.21-1.18-1.51-.15-.21-.09-.47.16-.65.59-.44,1.52.35,6.4-3.27,1.65-1.22,1.67-1.37,1.39-1.75-.12-.17-.25-.24-.33-.35-.17-.23-.07-.5.17-.68.22-.16.52-.19.69.04.5.67,1,1.47,1.55,2.21.43.58,1.05,1.31,1.48,1.89.31.41.09.7-.29,1.11-1.61,1.74-2.37,3.74-3.39,5.84-.1.2-.01.41.08.54.1.14.31.19.55.02,4.1-3.04,3.14-4.91,3.87-5.45.25-.18.6-.14.83.17.29.45.58.87.86,1.24.35.47.69.9.99,1.25.23.32.15.63-.11.83-.55.41-1.9-.26-5.01,2.05-.94.69-2.72,2.34-3.21,2.69-.44.33-.71.36-1.01-.04-.22-.3-.45-.71-.69-1.04-.29-.39-.63-.73-.87-1.06-.29-.39-.24-.67-.03-1.11,1.5-3.05,3.5-6.24,3.84-7.28.04-.14,0-.28-.08-.39Z" style="fill: rgb(113, 62, 90);"/>
  <path d="m160.71,55.81c-.44-.85-1.14-2.06-1.33-2.44-.12-.23-.06-.49.26-.65.35-.18.58-.07.7.16.03.06.08.23.11.29.2.38.49.32,1.23-.02.85-.4,2.06-.97,3.25-1.58.9-.46,1.78-.96,2.52-1.4.47-.28.94-.56.75-.94-.06-.12-.17-.22-.21-.3-.15-.29,0-.52.28-.66.29-.15.6-.08.71.15.39.76.75,1.52,1.19,2.38.54,1.05,1.06,1.94,1.55,2.88,1.67,3.24.1,5.73-3.28,7.48-2.6,1.34-4.66.76-6.32-2.46-.25-.49-.9-1.93-1.39-2.89Zm5.89,2.03c3.9-2.01,4.56-2.89,3.95-4.08-.27-.53-.64-.73-1.44-.4-.76.32-1.67.73-2.52,1.17-1.23.64-2.42,1.33-3.26,1.82-.69.42-.79.89-.52,1.39.82,1.55,1.34,1.37,3.79.1Z" style="fill: rgb(113, 62, 90);"/>
  <path d="m168.24,73.03c.25-.07.54-.04.62.25.12.43.42.36.74.31.79-.15,1.48-.36,2.31-.59.97-.27,1.07-.44.72-1.7-.36-1.27-.52-1.35-1.49-1.08-.83.23-1.52.41-2.28.69-.3.12-.6.22-.48.65.08.3-.15.47-.4.54-.31.09-.54.04-.62-.25-.19-.69-.36-1.41-.58-2.19-.26-.92-.52-1.74-.75-2.56-.07-.25.11-.51.42-.6.3-.08.57-.02.65.3.03.1.01.24.05.38.12.41.64.3,1.17.19,1.12-.24,2.45-.6,3.75-.96.89-.25,1.77-.53,2.52-.79.52-.18,1.02-.36.91-.77-.04-.13-.12-.25-.15-.35-.09-.31.11-.51.4-.59.31-.09.6.05.67.29.23.82.43,1.66.69,2.58.22.78.45,1.48.64,2.17.08.3-.09.45-.4.54-.25.07-.54.04-.62-.25-.12-.43-.42-.36-.74-.31-.61.12-1.15.27-1.78.45-.82.23-.91.36-.55,1.65.38,1.35.59,1.33,1.33,1.12.63-.18,1.17-.33,1.75-.54.3-.12.6-.22.48-.65-.08-.3.15-.47.4-.54.31-.09.54-.04.62.25.19.69.36,1.41.58,2.19.26.92.52,1.74.75,2.56.07.25-.11.51-.42.6-.3.08-.57.02-.65-.3-.03-.1-.01-.25-.05-.38-.12-.41-.64-.3-1.17-.19-.77.16-1.67.38-2.56.63-1.3.37-2.62.75-3.71,1.13-.52.18-1.02.36-.91.77.04.13.12.25.15.35.09.31-.11.51-.4.59-.31.09-.6-.05-.67-.29-.23-.82-.43-1.66-.69-2.58-.22-.78-.45-1.48-.64-2.17-.08-.3.09-.45.4-.54Z" style="fill: rgb(113, 62, 90);"/>
  <path d="m169.33,79.33c-.03-.29.07-.44.43-.48,1.11-.13,6.07,2.39,8.76,2.08.63-.07.75-.55.71-.84-.02-.17-.11-.37-.13-.52-.04-.37.23-.6.51-.63.27-.03.57.12.61.5.07.58.19,2.67.32,3.81.12,1.06.34,2.03.36,2.27.05.43-.15.78-.75.84-2.13.24-6.63,2.35-8.39,3.6-.37.27-.52.42-.76.45-.22.03-.42-.09-.45-.35-.05-.41-.04-1.39-.16-2.43-.1-.85-.44-2.8-.46-2.98-.04-.36.18-.5.49-.54s.57.12.6.41c.02.14-.02.3.02.65.04.39.35.67,1.07.58,1.09-.12,1.15-.34.95-2.08-.18-1.53-.4-1.66-.91-1.6-1.02.12-1.16,1.17-1.81,1.24-.31.04-.58-.07-.61-.4-.03-.24-.04-1.41-.1-1.96-.07-.63-.27-1.31-.31-1.66Zm4.77,3.96c.17,1.52.46,1.62.91,1.59.72-.06,2.56-.66,3.43-1.22.55-.36.65-.49.62-.76-.09-.82-2.36-1.18-4.18-.97-.68.08-.91.19-.78,1.37Z" style="fill: rgb(113, 62, 90);"/>
  <path d="m180.66,96.27c.34,0,.55.16.54.51,0,.22-.1.75-.12,1.75-.02,1.08.06,1.56.05,1.92,0,.36-.11.55-.51.54-.99-.02-1-1.48-9.01-3.08-.74-.15-1.23-.14-1.22-.76,0-.39.13-1.61.14-2.38.02-1.05-.07-2.04-.06-2.18,0-.53.34-.7.99-.77,1.5-.18,6.24-.85,7.88-1.63.85-.4,1.03-.96,1.46-.95.36,0,.53.18.52.51,0,.43-.11,1.59-.14,2.83-.01.67.05,2.2.04,2.35,0,.33-.25.49-.56.49-.39,0-.55-.18-.54-.51,0-.12.06-.26.06-.41,0-.27-.15-.45-.45-.45-1.23-.02-3.19.27-6.74,1.17-1.19.3-1.37.61-1.37,1-.01.72,1.28,1.1,3.99,1.15,3.75.07,3.93-1.11,5.04-1.09Z" style="fill: rgb(113, 62, 90);"/>
  <path d="m171.21,101.79c-.07.42.2.55.99.72,1.03.21,2.45.5,3.94.74.86.14,1.75.25,2.5.33.55.06,1.08.11,1.15-.31.02-.14,0-.28,0-.36.05-.32.31-.42.62-.37s.51.29.46.55c-.15.88-.35,1.71-.52,2.69-.27,1.61-.83,5.38-.99,6.4-.07.41-.33.64-.69.58-.27-.04-.74-.17-1.38-.28-.49-.08-1.01-.1-1.21-.13-.35-.06-.61-.28-.56-.6.18-1.08,3.02-1.22,3.42-3.62.1-.58-.4-.83-.93-1-.58-.18-1.27-.32-1.96-.45-.25-.04-.43.07-.46.29-.19,1.15.92,2.01.79,2.81-.03.2-.19.33-.57.27-.32-.05-.67-.16-1.28-.26-.86-.14-1.2-.18-1.51-.23-.39-.06-.42-.28-.39-.48.13-.78,1.69-.88,1.92-2.24.05-.29-.1-.42-.39-.46-.95-.16-1.93-.32-2.54-.37-.76-.06-1.05.07-1.16.69-.43,2.59,2.32,3.58,2.14,4.72-.05.3-.32.38-.61.33-.2-.03-.71-.22-1.2-.3-.73-.12-1.25-.1-1.57-.16-.37-.06-.59-.34-.52-.72.2-1.22.82-4.31,1.18-6.49.15-.93.28-2.3.35-2.75.05-.32.31-.42.63-.36.3.05.49.29.45.54-.01.08-.09.25-.1.3Z" style="fill: rgb(113, 62, 90);"/>
  <path d="m167.7,114.7c.1-.27.26-.36.6-.24,1.05.38,4.36,4.85,6.91,5.77.6.22.92-.16,1.01-.43.06-.16.06-.38.12-.52.13-.35.47-.43.74-.33.26.09.45.36.32.72-.2.55-1.02,2.47-1.42,3.55-.36,1-.6,1.97-.69,2.19-.15.4-.48.63-1.05.42-2.01-.73-6.98-.86-9.1-.52-.45.08-.65.15-.88.06-.21-.08-.34-.27-.25-.51.14-.39.59-1.26.94-2.25.29-.8.85-2.7.92-2.87.12-.34.39-.37.68-.26.29.1.45.36.35.64-.05.13-.15.26-.27.59-.13.37.02.75.69,1,1.03.37,1.18.21,1.78-1.43.53-1.45.39-1.66-.1-1.84-.97-.35-1.56.53-2.17.31-.29-.1-.48-.32-.37-.63.08-.23.59-1.28.78-1.79.22-.6.34-1.3.46-1.62Zm2.5,5.66c-.52,1.43-.31,1.65.1,1.82.67.26,2.59.56,3.61.44.65-.08.8-.15.89-.4.28-.77-1.59-2.11-3.31-2.73-.64-.23-.9-.24-1.3.88Z" style="fill: rgb(113, 62, 90);"/>
  <path d="m168.3,138.38c.3.17.4.41.22.71-.11.19-.45.61-.95,1.47-.54.93-.71,1.39-.89,1.7-.18.31-.37.42-.71.22-.86-.5-.16-1.78-6.36-7.08-.57-.49-1.01-.72-.7-1.26.2-.34.9-1.34,1.29-2.01.53-.9.94-1.81,1.01-1.93.27-.46.63-.44,1.24-.19,1.39.57,5.86,2.3,7.67,2.42.93.07,1.37-.33,1.74-.12.31.18.37.42.21.7-.21.37-.88,1.33-1.5,2.4-.34.58-1.03,1.94-1.11,2.07-.16.28-.46.31-.72.15-.34-.2-.39-.42-.22-.71.06-.1.17-.2.25-.33.14-.24.09-.46-.18-.62-1.07-.62-2.92-1.32-6.45-2.27-1.19-.31-1.49-.13-1.69.21-.36.62.58,1.59,2.92,2.95,3.24,1.89,3.97.94,4.93,1.5Z" style="fill: rgb(113, 62, 90);"/>
  <path d="m157.26,136.96c.18-.23.36-.26.64-.04.87.69,2.62,5.97,4.74,7.65.5.39.92.14,1.1-.09.11-.13.18-.34.28-.46.23-.3.58-.26.81-.08.22.17.31.49.08.78-.36.46-1.75,2.02-2.46,2.92-.66.83-1.19,1.68-1.34,1.87-.27.34-.66.44-1.13.07-1.68-1.33-6.35-3.01-8.48-3.36-.45-.07-.67-.07-.85-.22-.17-.14-.24-.36-.08-.57.25-.32.95-1.01,1.6-1.83.53-.67,1.66-2.29,1.77-2.44.22-.28.49-.23.73-.04s.31.49.13.72c-.08.11-.22.2-.44.48-.25.31-.22.72.34,1.17.86.68,1.05.57,2.14-.8.96-1.21.89-1.46.49-1.78-.81-.64-1.65,0-2.16-.39-.24-.19-.36-.46-.16-.71.15-.19.96-1.03,1.3-1.46.39-.5.73-1.12.95-1.39Zm.59,6.16c-.95,1.2-.82,1.47-.48,1.76.55.46,2.28,1.34,3.29,1.55.64.13.81.11.98-.1.51-.65-.84-2.5-2.28-3.64-.54-.42-.78-.51-1.51.42Z" style="fill: rgb(113, 62, 90);"/>
  <path d="m146.26,149.19c2.09-2.01,4.63-3.19,7.84.15,2.42,2.52,2.72,5.4.39,7.63-1.5,1.44-2.91,1.03-3.58,1.68-.17.17-.24.37-.05.57.12.12.27.24.31.27.25.26.22.5,0,.71-.2.19-.48.25-.73-.01-.13-.14-.83-.96-1.3-1.48-.38-.42-.82-.88-1.12-1.19-.33-.35-.5-.67-.05-1.14,1-.96,2.08-1.17,3.43-.56,1.31.6,1.84.92,2.4.38.68-.65.36-1.8-1.3-3.53-1.97-2.05-3.65-2.72-5.5-.95-1.03.99-1.28,1.99-.53,2.77.24.25.53.4.66.53.23.23.25.56-.03.84-.25.24-.55.29-.86-.03-1.96-2.04-2.64-4.09.01-6.64Z" style="fill: rgb(113, 62, 90);"/>
  <path d="m142.88,152.79c.24-.17.42-.15.63.14.65.9.88,6.46,2.46,8.66.37.51.85.38,1.08.21.14-.1.27-.28.39-.37.31-.22.63-.09.8.14.16.22.17.55-.14.78-.47.34-2.24,1.47-3.17,2.14-.86.62-1.61,1.29-1.8,1.43-.35.25-.75.25-1.1-.24-1.25-1.74-5.29-4.64-7.24-5.56-.41-.19-.62-.25-.76-.44-.13-.18-.13-.41.08-.56.33-.24,1.2-.71,2.04-1.33.7-.5,2.22-1.75,2.38-1.86.29-.21.53-.09.71.16.18.25.17.56-.07.73-.11.08-.27.13-.56.34-.32.23-.41.63.01,1.22.64.89.86.84,2.28-.18,1.25-.9,1.26-1.16.96-1.58-.6-.83-1.59-.44-1.97-.97-.18-.25-.22-.54.04-.73.2-.14,1.21-.72,1.66-1.04.51-.37,1.01-.88,1.29-1.08Zm-1.12,6.09c-1.24.89-1.19,1.19-.94,1.57.41.59,1.83,1.92,2.74,2.4.58.3.74.33.97.17.67-.48-.13-2.64-1.2-4.12-.4-.56-.61-.7-1.57,0Z" style="fill: rgb(113, 62, 90);"/>
  <path d="m135.04,167.96c.14-.07.24-.25.09-.53-2.91-5.69-5.02-4.67-5.38-5.37-.16-.32-.1-.58.19-.73.49-.25,1.06-.48,1.55-.73.78-.4,1.35-.75,1.69-.92.23-.12.48-.01.62.26.33.66-.59,1.44,2.17,6.86.94,1.83,1.07,1.88,1.5,1.66.18-.09.28-.2.4-.26.26-.13.51.01.65.29.12.24.1.54-.16.68-.75.38-1.62.75-2.44,1.17-.64.33-1.46.83-2.1,1.15-.46.23-.71-.02-1.05-.47-1.46-1.87-3.3-2.95-5.2-4.31-.18-.14-.41-.08-.54-.01-.15.08-.24.28-.11.54,2.32,4.55,4.33,3.91,4.74,4.72.14.27.04.61-.31.79-.49.21-.95.43-1.37.64-.52.26-1,.53-1.4.77-.35.18-.65.04-.8-.25-.31-.61.57-1.83-1.2-5.28-.53-1.04-1.86-3.07-2.13-3.61-.25-.49-.24-.76.21-.99.33-.17.78-.32,1.14-.51.43-.22.82-.5,1.19-.68.43-.22.7-.13,1.1.15,2.76,1.98,5.58,4.48,6.55,4.99.13.07.28.05.4-.01Z" style="fill: rgb(113, 62, 90);"/>
  <path d="m121.27,170.42c1.28,1.2,3,2.59,3.99,3.31.57.41.91.57,1.01.88.11.34,0,.52-.3.62-.41.13-1.54.42-2.71.8-.63.21-2.06.76-2.2.81-.31.1-.55-.07-.64-.37-.12-.37,0-.57.3-.68.11-.04.26-.03.41-.08.26-.08.38-.29.28-.58-.3-.93-.96-1.65-2.35-3.25-.4-.46-.83-.61-1.17-.5-.49.16-.56.94-.25,1.87.82,2.49,1.35,2.51,1.7,3.57.11.33.02.57-.3.67-.18.06-.63.12-1.41.37-1.03.34-1.46.57-1.8.68-.34.11-.55.07-.68-.3-.21-.63.19-1.96.83-4.55.64-2.57.8-3.22.42-4.39-.32-.98-.85-.93-1.29-.79-.33.11-.52.22-.75.3-.28.09-.5-.09-.59-.38-.07-.23-.02-.57.25-.66.57-.19,2.27-.71,3.45-1.09,1.14-.37,2.77-.95,3.33-1.13.28-.09.52.15.59.38.1.29.02.57-.25.66-.23.08-.46.1-.78.2-.42.14-.83.43-.35,1.9.15.46.63,1.09,1.28,1.71Z" style="fill: rgb(113, 62, 90);"/>
  <path d="m111.82,166.9c-.18.04-.51.06-.81.13-1.47.32-2.04,1.52-1.84,2.42.07.32.23.42.47.37.6-.13.53-1.08,1.57-1.31.8-.18,1.48.18,1.71,1.24.25,1.16-.26,2.34-1.75,2.67-1.56.34-2.7-.37-3.13-2.35-.39-1.77.73-3.79,3.49-4.4.4-.09.72,0,.82.47.1.47-.12.67-.53.77Z" style="fill: rgb(113, 62, 90);"/>
  <path d="m104.58,170.42c.02.31-.17.56-.42.58-.12,0-.35-.03-.41-.02-.43.03-.49.33-.47,1.13.02,1.03.09,2.43.19,3.87.06.92.16,1.84.27,2.64.07.54.14,1.07.57,1.04.17-.01.34-.08.46-.08.32-.02.48.21.5.51.02.31-.17.56-.42.58-.89.06-1.76.09-2.75.16-1.04.07-3.07.32-4.01.39-2.29.16-3.75-.78-3.92-3.16-.24-3.4,1.2-4.17,3.22-4.73,2.29-.63,2.42-.69,2.38-1.37-.04-.51-.2-.69-.7-.66-.27.02-1.02.21-1.44.24-.33.02-.52-.24-.54-.6-.02-.24.13-.56.46-.58.63-.04,2.45-.14,3.68-.23.99-.07,2.37-.2,2.87-.24.32-.02.48.21.5.51Zm-5.59,9.6c1.16-.08,1.27-.74.93-5.63-.04-.5-.23-.58-.66-.55-1.35.1-1.88,1.4-1.7,3.86.12,1.74.43,2.39,1.43,2.32Z" style="fill: rgb(113, 62, 90);"/>
  <path d="m86.71,179.95c1.08.07,1.27-.61,1.37-1.3.24-1.86.38-4.63.41-6.21.02-.79-.14-1.09-.7-1.13-1.59-.1-2.62,4.45-3.68,4.39-.29-.02-.44-.13-.42-.46.02-.29.2-1.48.27-2.64.06-1.03,0-1.75.03-2.18.02-.24.27-.4.44-.38,1.01.06,3.85.28,5.81.4.94.06,2.33.11,2.79.14.33.02.44.34.43.58-.02.31-.24.53-.5.52-.1,0-.27-.07-.32-.07-.43-.03-.53.26-.62,1.06-.17,1.66-.41,4.51-.41,6.5,0,.55,0,1.1.43,1.13.14,0,.28-.03.38-.03.33.02.44.34.43.58-.02.31-.24.54-.5.52-.85-.05-1.71-.14-2.67-.2-1.42-.09-2.65-.13-3.95-.22-.27-.02-.47-.24-.44-.59.01-.21.16-.56.51-.53.21.01.51.12.9.14Z" style="fill: rgb(113, 62, 90);"/>
  <path d="m82.45,170.86c-.42-.09-.56.18-.76.96-.24,1.02-.59,2.43-.89,3.91-.18.86-.32,1.74-.42,2.49-.08.54-.15,1.07.27,1.16.13.03.28,0,.36.02.32.06.41.33.34.63-.06.3-.31.5-.56.45-.87-.18-1.7-.42-2.67-.62-1.59-.33-5.35-1.03-6.36-1.23-.4-.08-.63-.36-.55-.71.06-.27.2-.73.33-1.37.1-.49.14-1,.18-1.21.07-.35.3-.6.62-.54,1.07.22,1.11,3.06,3.49,3.55.57.12.84-.37,1.04-.89.2-.57.36-1.25.52-1.94.05-.25-.05-.43-.27-.48-1.14-.23-2.04.84-2.83.68-.2-.04-.32-.21-.25-.58.07-.32.19-.66.31-1.27.18-.86.23-1.2.29-1.5.08-.39.29-.41.5-.37.77.16.82,1.72,2.16,2,.29.06.42-.09.48-.37.19-.94.39-1.91.46-2.53.08-.75-.03-1.06-.65-1.18-2.57-.53-3.67,2.19-4.79,1.96-.3-.06-.37-.34-.31-.62.04-.2.25-.7.35-1.19.15-.72.15-1.25.22-1.56.08-.37.36-.57.73-.5,1.21.25,4.28.98,6.44,1.42.92.19,2.29.36,2.74.46.32.07.4.33.34.65-.06.3-.31.48-.56.43-.08-.02-.24-.1-.29-.11Z" style="fill: rgb(113, 62, 90);"/>
  <path d="m72.35,167.69c.27.1.36.26.24.6-.38,1.05-4.85,4.36-5.78,6.9-.22.6.16.92.43,1.01.16.06.38.06.52.12.35.13.43.47.33.74-.09.26-.36.45-.72.32-.55-.2-2.47-1.03-3.55-1.42-1-.36-1.97-.61-2.19-.69-.4-.15-.63-.48-.42-1.05.73-2.01.86-6.98.53-9.11-.07-.45-.15-.65-.06-.88.08-.21.27-.34.51-.25.39.14,1.26.59,2.24.94.81.29,2.7.85,2.87.92.34.12.37.39.26.68-.11.29-.36.45-.64.35-.13-.05-.26-.15-.59-.27-.37-.13-.75.02-1,.69-.38,1.03-.21,1.18,1.43,1.78,1.45.53,1.66.39,1.84-.1.35-.97-.53-1.56-.3-2.17.11-.29.32-.48.63-.37.23.08,1.28.59,1.79.78.6.22,1.3.34,1.62.46Zm-5.67,2.5c-1.43-.52-1.66-.31-1.82.1-.26.67-.56,2.59-.44,3.61.07.65.15.8.4.89.77.28,2.11-1.58,2.74-3.31.23-.64.24-.9-.88-1.3Z" style="fill: rgb(113, 62, 90);"/>
  <path d="m61.08,163.22c.27.15.42.42.27.69-.18.33-.75,1.19-1.07,1.78-.29.54-.42,1-.56,1.26-.17.32-.42.49-.84.27-1.12-.6-.63-4.24-2.76-5.38-.57-.31-1.3-.29-1.69.44-.35.66-.23,1.26,1.54,2.82,2.3,2.06,2.62,3.56,1.71,5.26-.81,1.51-2.64,2.36-5.12,1.03-1.84-.98-1.93-2.27-2.47-2.56-.23-.12-.43-.11-.51.05-.06.12-.07.21-.13.32-.15.29-.43.33-.67.2-.32-.17-.38-.38-.16-.79.25-.47.49-.81.79-1.37.19-.35.48-.97.59-1.18.19-.36.48-.5.8-.33,1.34.72.81,3.89,2.46,4.77.73.39,1.39.28,1.72-.34.31-.57.21-1.19-1.36-2.69-2.35-2.25-2.93-3.68-1.9-5.6,1.07-1.99,3.08-2.12,4.96-1.12,2.05,1.1,2.23,2.65,2.96,3.04.3.16.53.11.64-.11.04-.08.07-.21.12-.3.15-.27.42-.32.68-.18Z" style="fill: rgb(113, 62, 90);"/>
  <path d="m51.56,159.41c-.35-.25-.59-.07-1.09.56-.64.82-1.54,1.97-2.43,3.19-.51.71-1.01,1.45-1.41,2.09-.29.46-.58.91-.23,1.17.11.08.25.12.32.17.26.19.23.47.05.71-.18.25-.49.32-.7.17-.72-.52-1.37-1.08-2.18-1.67-1.32-.96-4.45-3.15-5.28-3.75-.33-.24-.42-.58-.21-.87.16-.22.48-.58.87-1.11.29-.4.54-.86.66-1.02.21-.29.52-.43.78-.23.89.64-.26,3.24,1.71,4.67.47.34.92.01,1.31-.38.42-.43.85-.99,1.28-1.55.15-.21.13-.41-.05-.54-.94-.68-2.21-.08-2.86-.55-.17-.12-.21-.32.01-.63.19-.26.44-.52.81-1.02.51-.71.7-.99.88-1.24.23-.32.44-.25.6-.13.64.46.03,1.91,1.14,2.71.24.17.42.09.59-.14.56-.78,1.15-1.58,1.47-2.11.39-.65.41-.97-.1-1.34-2.12-1.54-4.24.47-5.17-.2-.25-.18-.2-.46-.02-.7.12-.17.52-.54.81-.94.43-.6.65-1.07.84-1.34.22-.3.57-.37.87-.15,1,.72,3.49,2.66,5.27,3.96.76.55,1.93,1.28,2.31,1.55.26.19.23.47.04.73-.18.25-.48.31-.69.16-.07-.05-.18-.19-.22-.22Z" style="fill: rgb(113, 62, 90);"/>
  <path d="m37.58,145.93c1.99,2.1,3.16,4.65-.19,7.83-2.53,2.41-5.41,2.68-7.63.35-1.43-1.5-1.02-2.91-1.66-3.59-.17-.17-.37-.24-.57-.05-.12.12-.24.27-.27.31-.26.25-.5.22-.71,0-.19-.2-.24-.48.02-.73.14-.13.97-.82,1.49-1.29.42-.38.88-.81,1.19-1.11.35-.33.67-.49,1.14-.04.96,1.01,1.16,2.09.54,3.43-.6,1.3-.93,1.83-.39,2.4.65.68,1.8.37,3.53-1.28,2.06-1.96,2.73-3.64.98-5.49-.98-1.03-1.98-1.29-2.76-.54-.25.24-.4.52-.54.65-.24.22-.56.25-.83-.03-.24-.25-.29-.55.03-.86,2.05-1.95,4.1-2.62,6.64.05Z" style="fill: rgb(113, 62, 90);"/>
  <path d="m30.66,137.38c2.36,3.39,1.88,5.54-.84,7.45-3.2,2.24-6.07,2.42-8.43-.97-2.37-3.4-1.13-6.08,1.99-8.26,2.64-1.84,4.91-1.61,7.29,1.79Zm-8.43,5.89c.86,1.24,2.49.63,5.39-1.44,1.9-1.35,2.77-2.41,1.9-3.65-.87-1.25-2.17-.8-4.09.52-2.94,2.01-4.07,3.33-3.2,4.58Z" style="fill: rgb(113, 62, 90);"/>
  <path d="m18.46,133.81c.07.14.25.24.53.1,5.74-2.81,4.75-4.94,5.46-5.29.32-.16.58-.09.73.2.24.49.47,1.07.71,1.56.38.78.72,1.36.89,1.7.11.23,0,.48-.27.61-.66.32-1.43-.62-6.89,2.06-1.85.91-1.89,1.04-1.68,1.47.09.18.2.29.26.41.13.26-.02.51-.3.64-.25.12-.54.09-.67-.17-.37-.75-.72-1.63-1.13-2.46-.32-.65-.8-1.48-1.12-2.12-.23-.46.04-.7.48-1.04,1.9-1.42,3.01-3.25,4.39-5.13.14-.18.09-.41.02-.54-.08-.15-.27-.25-.54-.12-4.58,2.25-3.98,4.26-4.79,4.66-.28.14-.61.03-.79-.32-.2-.49-.41-.96-.62-1.38-.26-.52-.51-1.01-.75-1.41-.17-.35-.03-.65.26-.79.62-.3,1.82.6,5.29-1.11,1.05-.51,3.1-1.81,3.64-2.07.49-.24.77-.22.99.22.17.34.31.78.49,1.15.21.43.48.83.66,1.2.21.43.12.71-.17,1.09-2.02,2.73-4.57,5.5-5.09,6.46-.07.13-.06.28,0,.4Z" style="fill: rgb(113, 62, 90);"/>
  <path d="m8.42,115.24c-.19-.61.12-.77.59-.92.6-.15,1.25-.32,1.89-.52.56-.17,1.33-.58,1.52-.64.36-.11.65-.04.75.27.25.8-.8,1.59-2.17,2.54-.75.52-.9.85-.78,1.25.12.39.42.48.83.35,7.48-2.33,7.53-2.49,7.25-3.41-.1-.33-.26-.49-.33-.72-.08-.26.05-.54.39-.64.31-.1.59-.08.7.3.17.54.65,2.2,1.01,3.35.36,1.14.9,2.79,1.07,3.33.12.38-.1.55-.41.65-.34.11-.61-.04-.69-.31-.07-.23-.03-.46-.14-.78-.29-.92-.42-1.02-7.9,1.31-.41.13-.6.37-.48.76.12.39.43.58,1.35.58,1.67,0,2.98.06,3.23.86.1.31-.1.53-.46.65-.2.06-1.06.17-1.62.34-.64.2-1.27.43-1.84.65-.47.15-.82.18-1.01-.42-.43-1.5-.8-3.02-1.27-4.52-.44-1.41-1-2.87-1.49-4.31Z" style="fill: rgb(113, 62, 90);"/>
  <path d="m18.51,111.34c.05.29-.05.44-.4.5-1.1.18-6.18-2.1-8.85-1.66-.63.1-.72.59-.67.87.03.17.13.36.15.51.06.37-.2.61-.48.65-.27.04-.57-.1-.63-.47-.09-.58-.31-2.66-.5-3.79-.17-1.05-.43-2.01-.47-2.25-.07-.42.12-.78.71-.88,2.11-.34,6.51-2.66,8.2-4,.35-.28.5-.45.74-.49.22-.04.43.07.47.33.07.41.11,1.39.27,2.42.14.85.57,2.77.6,2.95.06.36-.16.51-.46.56-.3.05-.57-.1-.62-.38-.02-.13,0-.3-.05-.65-.06-.39-.38-.65-1.09-.53-1.08.18-1.13.39-.85,2.12.25,1.52.48,1.64.98,1.56,1.01-.17,1.1-1.22,1.75-1.33.3-.05.58.04.63.37.04.24.11,1.41.2,1.95.1.63.33,1.3.39,1.64Zm-4.95-3.72c-.25-1.5-.54-1.6-.98-1.54-.71.1-2.53.78-3.37,1.38-.53.38-.63.52-.58.79.13.81,2.41,1.06,4.22.77.68-.11.9-.23.71-1.4Z" style="fill: rgb(113, 62, 90);"/>
  <path d="m16.9,94.97c.07,2.9-.77,5.57-5.4,5.69-3.5.09-5.82-1.64-5.9-4.86-.05-2.07,1.2-2.84,1.17-3.78,0-.24-.11-.43-.39-.42-.17,0-.36.04-.41.04-.36,0-.52-.18-.53-.48,0-.27.14-.52.5-.53.19,0,1.27.04,1.97.04.57,0,1.2-.01,1.63-.02.48-.01.83.08.88.73.03,1.39-.54,2.33-1.9,2.91-1.32.57-1.92.73-1.9,1.52.02.94,1.08,1.48,3.48,1.42,2.84-.07,4.47-.87,4.41-3.42-.04-1.42-.61-2.28-1.69-2.26-.34,0-.65.12-.84.12-.33,0-.59-.19-.6-.59,0-.34.16-.6.6-.61,2.83-.07,4.8.81,4.9,4.49Z" style="fill: rgb(113, 62, 90);"/>
  <path d="m6.98,78.62c.07-.63.42-.66.92-.6.61.11,1.27.22,1.93.3.58.07,1.45.01,1.65.04.37.04.61.23.57.55-.1.83-1.38,1.13-3.02,1.44-.9.17-1.17.41-1.22.82-.05.41.19.61.61.66,7.78.91,7.89.79,8.01-.16.04-.34-.04-.56-.01-.79.03-.27.26-.47.62-.43.32.04.57.17.52.56-.07.56-.3,2.28-.44,3.47-.14,1.19-.31,2.91-.37,3.48-.05.39-.31.46-.64.43-.36-.04-.54-.29-.5-.56.03-.24.15-.43.19-.77.11-.95.03-1.1-7.75-2.01-.43-.05-.7.09-.75.5-.05.41.16.71.99,1.08,1.52.68,2.7,1.27,2.6,2.1-.04.32-.31.45-.69.4-.2-.02-1.04-.28-1.62-.35-.66-.08-1.33-.12-1.95-.16-.49-.06-.83-.17-.75-.8.22-1.54.5-3.08.68-4.65.17-1.46.25-3.02.4-4.54Z" style="fill: rgb(113, 62, 90);"/>
  <path d="m14.49,61.93c-.66-.23-.89-.26-.99.03-.06.16.06.44.45.74,1.26.97,4.23,2.89,6.61,4.27.59.33.53.68.11,1.85-.46,1.31-.54,1.26-1.19,1.21-2.16-.16-6.53-.39-8.19-.21-.32.03-.6.11-.65.26-.08.23.13.39.55.54,3.86,1.36,6.06,1.83,7.25.92.5-.39.66-.33.9-.25.11.04.39.25.28.53-.09.26-.27.67-.54,1.44-.34.97-.58,1.74-.73,2.18-.09.26-.3.38-.56.29-.31-.11-.35-.34-.63-.8-.54-.9-1.34-1.56-6.45-3.36-.63-.22-1.22-.34-1.41.19-.06.16-.07.34-.1.45-.11.31-.44.33-.67.25-.29-.1-.47-.31-.36-.62.38-1.07.91-2.39,1.25-3.34.26-.73.28-1.01.46-1.51.21-.6.43-.66,1.22-.57.91.1,3.17.33,4.33.34.94,0,1.13-.07,1.23-.33.12-.36-.08-.55-.8-1.08-.98-.73-2.21-1.47-3.56-2.27-.6-.36-.86-.49-.63-1.15.32-.92.6-1.5,1.13-3.02.24-.7.44-1.45.65-2.04.11-.31.38-.36.67-.25.23.08.47.31.36.62-.04.11-.15.26-.2.42-.14.4.35.61.85.83.74.32,1.6.66,2.48.96,1.36.48,2.72.9,3.68,1.21.77.24,1.07.25,1.22-.15.03-.08.06-.27.1-.4.11-.31.4-.35.65-.26.29.1.47.31.36.61-.18.5-.54,1.44-.96,2.62-.42,1.18-.66,1.97-.86,2.54-.11.31-.38.36-.67.25-.26-.09-.46-.31-.35-.61.05-.13.14-.3.17-.38.14-.4-.12-.55-.85-.88-.88-.4-2.48-1-5.62-2.1Z" style="fill: rgb(113, 62, 90);"/>
  <path d="m23.66,58.64c.21-.37,0-.59-.67-1.02-.89-.55-2.12-1.33-3.43-2.08-.76-.44-1.54-.85-2.22-1.19-.49-.24-.97-.48-1.18-.11-.07.12-.09.26-.14.34-.16.28-.44.28-.71.13s-.37-.45-.24-.67c.45-.77.93-1.48,1.43-2.34.81-1.41,2.67-4.75,3.18-5.64.21-.36.54-.48.85-.3.24.14.63.42,1.19.75.43.25.91.45,1.09.55.31.18.48.47.31.76-.55.95-3.25.08-4.47,2.19-.29.5.08.92.51,1.27.48.37,1.08.74,1.67,1.11.22.13.42.09.54-.11.58-1.01-.15-2.2.25-2.9.1-.18.3-.24.62-.05.28.16.57.39,1.1.7.76.44,1.06.59,1.33.75.34.2.3.41.19.59-.39.68-1.89.23-2.58,1.42-.15.25-.05.43.2.57.83.48,1.69.98,2.25,1.24.69.32,1.01.31,1.33-.24,1.31-2.27-.91-4.17-.34-5.16.15-.27.44-.24.69-.1.18.1.59.46,1.02.71.64.37,1.13.54,1.42.7.33.19.43.52.24.85-.62,1.07-2.28,3.75-3.39,5.66-.47.82-1.07,2.05-1.3,2.45-.16.28-.44.28-.72.12-.27-.15-.36-.44-.23-.67.04-.07.17-.2.2-.24Z" style="fill: rgb(113, 62, 90);"/>
  <path d="m31.17,45.63c.91.67,1.05,1.64.27,2.72-.87,1.19-1.76,1.26-2.68.59-1.11-.81-1.28-1.93-.55-2.94.73-1,1.86-1.16,2.96-.37Z" style="fill: rgb(113, 62, 90);"/>
</svg>