<?xml version="1.0" encoding="utf-8"?>
<svg width="37px" height="37px" viewBox="-64.046 -77.567 37 37" xmlns="http://www.w3.org/2000/svg">
  <path fill-rule="evenodd" clip-rule="evenodd" d="M -45.531 -77.259 C -55.769 -77.259 -64.046 -68.921 -64.046 -58.606 C -64.046 -50.361 -58.743 -43.381 -51.386 -40.911 C -50.466 -40.725 -50.129 -41.312 -50.129 -41.806 C -50.129 -42.239 -50.159 -43.721 -50.159 -45.265 C -55.31 -44.153 -56.382 -47.489 -56.382 -47.489 C -57.21 -49.651 -58.437 -50.206 -58.437 -50.206 C -60.122 -51.349 -58.314 -51.349 -58.314 -51.349 C -56.444 -51.225 -55.463 -49.434 -55.463 -49.434 C -53.808 -46.593 -51.141 -47.396 -50.068 -47.89 C -49.915 -49.095 -49.424 -49.928 -48.903 -50.391 C -53.01 -50.824 -57.333 -52.43 -57.333 -59.595 C -57.333 -61.633 -56.597 -63.3 -55.432 -64.597 C -55.616 -65.06 -56.26 -66.975 -55.248 -69.539 C -55.248 -69.539 -53.685 -70.033 -50.16 -67.624 C -48.651 -68.032 -47.094 -68.24 -45.531 -68.242 C -43.967 -68.242 -42.374 -68.025 -40.902 -67.624 C -37.377 -70.033 -35.813 -69.539 -35.813 -69.539 C -34.801 -66.975 -35.446 -65.06 -35.63 -64.597 C -34.434 -63.3 -33.729 -61.633 -33.729 -59.595 C -33.729 -52.43 -38.051 -50.855 -42.189 -50.391 C -41.515 -49.805 -40.933 -48.693 -40.933 -46.933 C -40.933 -44.431 -40.963 -42.424 -40.963 -41.807 C -40.963 -41.312 -40.626 -40.725 -39.706 -40.911 C -32.349 -43.382 -27.046 -50.361 -27.046 -58.606 C -27.016 -68.921 -35.323 -77.259 -45.531 -77.259 Z" fill="#713E5A"/>
</svg>