<svg width="35" height="35" viewBox="0 0 35 35" fill="none" xmlns="http://www.w3.org/2000/svg">
<path d="M32.4163 0H2.58368C1.15694 0 0 1.13256 0 2.52922V31.733C0 33.1296 1.15694 34.2622 2.58368 34.2622H32.4163C33.8431 34.2622 35 33.1296 35 31.733V2.52922C35 1.13256 33.8431 0 32.4163 0ZM10.4319 29.1895H5.16979V12.8269H10.4319V29.1895ZM7.80208 10.5594C6.12743 10.5594 4.76875 9.31028 4.76875 7.60193C4.76875 5.89358 6.12743 4.64443 7.80208 4.64443C9.47674 4.64443 10.8354 5.89358 10.8354 7.60193C10.8354 9.31028 9.47674 10.5594 7.80208 10.5594ZM29.8326 29.2038H24.5705V20.267C24.5705 17.6308 23.4257 16.817 21.9479 16.817C20.3875 16.817 18.8563 17.9662 18.8563 20.3337V29.2061H13.5941V12.8436H18.6545V15.1111H18.7226C19.2306 14.1046 21.0097 12.3844 23.7247 12.3844C26.6608 12.3844 29.8326 14.0903 29.8326 19.0869V29.2085V29.2038Z" fill="#713E5A"/>
</svg>
