<?xml version="1.0" encoding="utf-8"?>
<svg width="37" height="37" viewBox="0 0 37 37" fill="none" xmlns="http://www.w3.org/2000/svg">
  <path d="M 6.269 18.424 C 6.269 11.326 12.015 6.256 19.607 6.256 C 26.055 6.256 30.631 10.078 30.631 15.798 C 30.631 20.348 27.667 23.52 24.365 23.52 C 22.545 23.52 21.531 22.61 21.297 20.868 C 20.309 22.22 18.671 23.234 16.721 23.234 C 14.251 23.234 12.197 21.258 12.197 18.086 C 12.197 14.082 14.901 11.04 18.645 11.04 C 20.647 11.04 21.505 12.028 22.181 12.028 C 22.909 12.028 23.507 11.248 24.053 11.248 C 24.443 11.248 24.677 11.534 24.625 12.002 L 23.871 18.996 C 23.819 19.568 23.741 20.166 23.741 20.4 C 23.741 21.076 24.027 21.674 24.755 21.674 C 26.445 21.674 27.927 19.256 27.927 15.98 C 27.927 11.04 24.417 7.92 19.295 7.92 C 13.679 7.92 9.207 12.054 9.207 18.19 C 9.207 22.688 12.483 25.938 17.995 25.938 C 21.219 25.938 22.519 25.132 23.117 25.132 C 23.351 25.132 23.715 25.314 23.715 25.73 C 23.715 26.198 23.403 26.51 22.597 26.874 C 21.557 27.316 19.555 27.732 17.345 27.732 C 10.715 27.732 6.269 23.936 6.269 18.424 Z M 18.203 21.154 C 19.659 21.154 21.089 19.932 21.323 17.774 C 21.375 17.124 21.479 16.396 21.479 16.032 C 21.479 14.134 20.257 12.574 18.593 12.574 C 16.383 12.574 15.265 14.966 15.265 17.228 C 15.265 19.724 16.591 21.154 18.203 21.154 Z M 35.02 8.597 C 32.05 3.186 25.619 0 19.087 0 C 16.351 0 13.601 0.56 11.078 1.748 C 4.179 4.998 -1.685 13.333 0.443 21.659 C 1.749 26.77 5.652 29.865 7.861 31.256 L 8.295 31.531 L 3.571 36.771 C 5.528 37.115 7.563 37.068 9.499 36.624 C 11.725 36.121 13.844 35.087 15.627 33.649 L 15.751 33.555 L 15.904 33.555 C 18.67 33.628 21.372 33.236 23.947 32.388 C 26.475 31.553 31.658 29.844 34.663 25.022 C 37.642 20.239 37.786 13.639 35.02 8.597 Z" style="fill: rgb(113, 62, 90);"/>
</svg>