<?xml version="1.0" encoding="UTF-8"?>
<svg id="Ebene_1" data-name="Ebene 1" xmlns="http://www.w3.org/2000/svg" viewBox="0 0 70.87 74.94">
  <defs>
    <style>
      .cls-1 {
        fill: #713e5a;
      }
    </style>
  </defs>
  <path class="cls-1" d="m35.43,0c4.85,0,9.8,1.55,9.8,9.71,0,13.59-6.89,29.61-6.89,47.76,0,1.84,1.07,2.72,2.72,2.72,1.36,0,2.82-1.16,3.4-3.2,2.33-8.15,7.57-17.28,16.02-17.28,5.92,0,10.39,4.08,10.39,10.78,0,2.33-1.26,3.59-3.3,4.17-10,3.01-23.78,8.64-28.06,17.57-1.07,2.14-2.52,2.72-4.08,2.72s-2.91-.58-4.08-2.72c-4.66-8.83-18.06-14.56-28.06-17.57-2.04-.58-3.3-1.84-3.3-4.17,0-6.7,4.47-10.78,10.39-10.78,8.45,0,13.69,9.13,16.02,17.28.58,2.04,2.04,3.2,3.4,3.2,1.65,0,2.72-.87,2.72-2.72,0-18.15-6.89-34.17-6.89-47.76C25.63,1.55,30.58,0,35.43,0Z"/>
</svg>