<svg width="131" height="385" viewBox="0 0 131 385" fill="none" xmlns="http://www.w3.org/2000/svg">
<path d="M67.2834 68.68C79.5234 68.56 80.1234 64.72 80.1234 45.4C80.1234 14.68 76.7634 7.72 67.4034 7.72C63.2034 7.72 60.8034 9.4 60.3234 15.4C59.8434 21.16 59.4834 28.12 59.4834 34.84C59.4834 44.56 59.9634 54.16 60.3234 61C60.6834 66.64 63.3234 68.8 67.2834 68.68ZM71.0034 76.12C67.1634 76.12 56.1234 75.52 48.5634 75.52C41.8434 75.52 32.1234 76 29.1234 76C27.3234 76 25.8834 74.8 25.8834 72.28C25.8834 69.52 27.3234 68.44 29.1234 68.44C29.6034 68.44 30.8034 68.68 31.2834 68.68C34.2834 68.68 34.8834 66.64 35.1234 61C35.3634 54.4 35.7234 45.04 35.7234 35.68C35.7234 28.6 35.4834 21.52 35.1234 15.52C34.8834 11.68 34.6434 7.84 31.6434 7.84C30.6834 7.84 29.7234 8.2 29.1234 8.2C26.8434 8.2 25.8834 6.51999 25.8834 4.36C25.8834 2.07999 27.3234 0.399993 29.1234 0.399993C35.1234 0.399993 41.0034 0.639997 47.7234 0.639997C56.0034 0.639997 63.2034 0.279995 70.6434 0.279995C96.2034 0.279995 106.643 18.04 106.643 44.68C106.643 65.2 96.4434 76.12 71.0034 76.12ZM77.6315 125.12C77.6315 114.44 75.4715 110.36 67.6715 110.36C59.6315 110.36 58.4315 113.36 58.4315 136.76C58.4315 141.44 59.1515 142.4 61.0715 142.4C72.3515 142.4 77.6315 136.52 77.6315 125.12ZM99.1115 164.36C102.111 164.36 103.072 162.44 103.072 159.56C103.072 156.56 101.031 153.2 101.031 151.04C101.031 149 102.231 147.2 104.752 147.2C108.351 147.2 109.071 149.12 109.071 156.8C109.071 171.56 107.271 180.08 91.3115 180.2C79.9115 180.2 74.2715 176.6 74.2715 166.88C74.2715 163.64 74.6315 160.04 74.6315 156.2C74.6315 152.96 72.9515 151.04 67.7915 151.04C61.9115 151.04 58.6715 153.56 58.6715 158C58.6715 160.28 58.7915 163.52 58.9115 165.44C59.1515 170 59.7515 171.68 62.8715 171.68C63.4715 171.68 65.1515 171.44 66.1115 171.44C68.1515 171.44 69.2315 173.24 69.2315 175.16C69.2315 176.84 68.1515 179 66.1115 179C62.8715 179 53.7515 178.76 47.3915 178.76C40.7915 178.76 31.0715 179 27.8315 179C25.5515 179 24.5915 177.32 24.5915 175.16C24.5915 173 26.0315 171.32 27.8315 171.32C28.5515 171.32 29.7515 171.68 30.1115 171.68C33.1115 171.68 33.7115 169.64 33.9515 164C34.1915 156.92 34.5515 146.96 34.5515 136.88C34.5515 130.4 34.3115 123.92 33.9515 118.28C33.7115 114.44 33.4715 110.72 30.4715 110.72C29.5115 110.72 28.5515 111.08 27.8315 111.08C25.5515 111.08 24.5915 109.4 24.5915 107.24C24.5915 105.08 26.0315 103.4 27.8315 103.4C33.8315 103.4 39.8315 103.64 46.5515 103.64C54.8315 103.64 70.9115 102.92 78.3515 102.92C93.4715 102.92 102.471 108.8 102.471 122.12C102.471 138.32 91.0715 141.44 78.5915 143.36C77.2715 143.6 76.5515 144.44 76.5515 145.4C76.5515 146.12 77.3915 147.08 78.8315 147.08C88.6715 147.08 93.5915 149.24 94.5515 159.92C94.7915 162.92 96.4715 164.36 99.1115 164.36ZM41.954 281.16C37.514 281.16 32.594 282 30.194 282C28.154 282 27.194 281.16 27.194 278.64C27.194 270.84 48.674 238.32 48.674 219.36C48.674 214.92 45.434 213.72 43.394 213.72C42.194 213.72 40.754 214.2 39.674 214.2C37.034 214.2 35.714 212.16 35.714 210.12C35.714 208.2 37.034 206.28 39.674 206.28C43.754 206.28 58.394 207.12 66.434 207.12C73.874 207.12 80.834 206.4 82.514 206.4C85.514 206.4 87.794 208.08 87.794 212.28C87.794 227.28 98.834 260.28 106.154 273.48C107.714 276.24 108.674 277.44 108.674 279.12C108.674 280.68 107.714 282 105.914 282C103.034 282 96.194 281.16 88.874 281.16C82.874 281.16 69.074 282 67.754 282C65.234 282 64.394 280.32 64.394 278.16C64.394 276 65.714 274.32 67.754 274.32C68.714 274.32 69.794 274.68 72.314 274.68C75.074 274.68 77.234 272.76 77.234 267.72C77.234 260.04 75.794 259.44 63.554 259.44C52.754 259.44 51.674 260.88 51.674 264.48C51.674 271.68 58.874 273.48 58.874 278.04C58.874 280.2 57.914 282 55.634 282C53.954 282 45.794 281.16 41.954 281.16ZM52.634 245.52C52.634 250.32 53.234 252 61.514 252C72.194 252 73.154 250.08 73.274 246.96C73.394 241.92 70.754 228.6 67.514 222.12C65.474 218.04 64.634 217.2 62.714 217.2C56.954 217.2 52.634 232.68 52.634 245.52ZM69.9632 351.04C69.6032 349.84 68.8832 349.36 68.0432 349.36C67.2032 349.36 66.3632 349.96 66.0032 351.52C64.3232 359.68 63.4832 368.44 62.8832 376.84C62.5232 382.48 61.8032 385 55.9232 385C51.8432 384.64 47.6432 384.4 43.4432 384.4C38.7632 384.4 34.2032 385 29.5232 385C23.5232 385 21.8432 381.76 21.3632 377.32C20.6432 370.36 17.4032 354.28 11.5232 332.2C9.00321 322.96 7.20321 321.28 5.16321 319.48C2.40321 317.08 0.963211 315.52 0.963211 313.6C0.963211 311.08 2.40321 309.4 5.64321 309.4C20.5232 309.76 36.0032 310.12 51.7232 310.12C66.3632 310.24 81.2432 309.76 96.1232 309.4C98.6432 309.4 99.4832 310.72 99.4832 313.36C99.4832 315.4 98.0432 316.96 96.2432 316.96C95.5232 316.96 93.7232 316.72 93.2432 316.72C88.6832 316.72 86.8832 318.88 86.8832 322.96C86.8832 334 91.8032 357.04 97.4432 374.68C98.0432 376.72 99.4832 377.44 100.803 377.44C101.763 377.44 103.203 376.72 103.443 375.4C108.123 343.48 102.123 322.24 102.123 314.44C102.123 310.96 103.923 309.4 106.203 309.4C110.283 309.4 112.923 309.88 117.243 309.88C121.563 309.88 124.083 309.4 126.963 309.4C128.523 309.4 130.443 309.88 130.443 312.76C130.443 313.84 129.603 315.64 127.443 318.4C124.683 322 117.123 335.32 112.443 358.96C111.843 362.08 110.163 370.24 109.803 376.96C109.563 382.12 108.363 385 104.043 385C100.683 385 96.3632 384.4 90.4832 384.4C85.6832 384.4 82.2032 385 80.2832 385C75.3632 385 73.9232 382.72 73.4432 377.68C72.9632 371.92 72.6032 362.8 69.9632 351.04ZM46.3232 317.68C38.8832 317.68 36.6032 320.44 36.6032 325C36.6032 332.92 41.1632 353.08 47.1632 373.24C47.8832 375.64 49.3232 376.36 50.5232 376.36C51.9632 376.36 53.2832 375.16 53.6432 373.36C57.0032 357.16 61.0832 342.4 61.0832 329.08C61.0832 322.48 58.6832 317.68 46.3232 317.68Z" fill="#FDE9E9"/>
</svg>
