<svg width="91" height="549" viewBox="0 0 91 549" fill="none" xmlns="http://www.w3.org/2000/svg">
<path d="M31.222 21.6C31.222 24.48 31.402 26.1 31.402 26.712C31.402 27.396 30.97 27.756 30.214 27.756C29.638 27.756 29.062 27.396 29.062 26.712C29.062 26.496 29.134 26.172 29.134 25.668C29.134 25.128 28.738 24.84 28.162 24.84C25.786 24.84 24.67 27.54 19.27 27.54C14.554 27.54 10.414 25.416 10.414 15.912C10.414 8.568 14.158 3.78 20.926 3.78C25.282 3.78 26.83 6.444 28.81 6.444C29.314 6.444 29.71 6.228 29.71 5.652C29.71 5.292 29.638 4.896 29.638 4.788C29.638 4.032 30.034 3.708 30.682 3.708C31.258 3.708 31.762 4.032 31.762 4.788C31.762 5.184 31.618 7.452 31.582 8.928C31.546 9.864 31.654 10.872 31.654 11.592C31.654 12.636 31.438 13.356 29.962 13.428C27.046 13.428 25.102 12.168 23.95 9.288C23.014 6.912 22.51 5.94 20.854 5.94C19.018 5.94 17.938 8.136 17.938 13.176C17.938 20.952 18.694 24.372 21.466 24.372C23.698 24.372 25.246 22.824 25.246 20.232C25.246 18.252 24.85 17.748 23.734 17.748C23.446 17.748 22.474 17.892 22.186 17.892C21.43 17.892 21.178 17.136 21.178 16.704C21.178 16.092 21.538 15.516 22.222 15.516C23.698 15.516 26.29 15.732 28.342 15.732C30.178 15.732 32.842 15.552 33.526 15.552C33.994 15.552 34.462 15.912 34.462 16.668C34.462 17.424 34.138 17.784 33.526 17.784C33.31 17.784 33.022 17.748 32.842 17.748C31.51 17.748 31.222 18.252 31.222 21.6ZM35.1339 24.696C35.3139 24.696 35.6739 24.804 35.7819 24.804C36.6819 24.804 36.8619 24.192 36.9339 22.5C37.0059 20.304 37.1139 17.244 37.1139 14.076C37.1139 12.24 37.0419 10.368 36.9339 8.784C36.8619 7.632 36.7899 6.516 35.8899 6.516C35.6019 6.516 35.3139 6.624 35.1339 6.624C34.4499 6.624 34.1619 6.12 34.1619 5.472C34.1619 4.824 34.5939 4.32 35.1339 4.32C37.0059 4.32 38.8059 4.464 40.8939 4.464C44.3139 4.464 52.3419 4.32 54.5019 4.32C55.3659 4.32 55.9419 4.788 55.9419 5.544C55.9419 6.12 55.8339 7.128 55.8339 8.496C55.8339 9.54 55.9779 10.62 55.9779 11.052C55.9779 11.808 55.6179 12.42 54.9339 12.42C52.6299 12.42 51.3699 6.588 46.2579 6.588C45.0339 6.588 44.6739 7.704 44.4939 8.856C44.3139 10.116 44.2779 11.592 44.2419 13.068C44.2419 13.608 44.5299 13.932 44.9979 13.932C47.4459 13.932 48.8499 11.34 50.5419 11.34C50.9739 11.34 51.2979 11.628 51.2979 12.42C51.2979 13.104 51.1899 13.86 51.1899 15.156C51.1899 16.992 51.2259 17.712 51.2259 18.36C51.2259 19.188 50.7939 19.332 50.3619 19.332C48.7059 19.332 47.9499 16.128 45.0699 16.128C44.4579 16.128 44.2419 16.488 44.2419 17.1C44.2419 19.116 44.2419 21.204 44.3499 22.5C44.4939 24.084 44.8539 24.66 46.1859 24.66C51.6939 24.66 52.8099 18.612 55.2219 18.612C55.8699 18.612 56.1219 19.152 56.1219 19.764C56.1219 20.196 55.9059 21.312 55.9059 22.356C55.9059 23.904 56.1219 24.984 56.1219 25.668C56.1219 26.46 55.6179 27 54.8259 27C52.2339 27 45.6099 26.784 40.9659 26.784C38.9859 26.784 36.1059 27 35.1339 27C34.4499 27 34.1619 26.496 34.1619 25.812C34.1619 25.164 34.5939 24.696 35.1339 24.696ZM69.0616 4.608C72.1576 4.608 75.4336 4.392 78.6376 4.32C79.9696 4.32 80.1136 5.04 80.1136 6.084C80.0416 7.38 79.9696 8.784 79.9696 10.188C79.9696 11.412 80.2936 13.212 80.2936 13.644C80.2936 14.436 79.9696 14.976 79.2856 14.976C77.5216 14.976 76.5856 12.384 75.5416 9.036C74.9656 7.2 74.3896 6.696 73.5256 6.696C72.6616 6.696 72.3016 7.236 72.3016 8.136C72.3016 24.588 72.5896 24.804 74.6056 24.804C75.3256 24.804 75.7576 24.588 76.2616 24.588C76.8376 24.588 77.3056 25.02 77.3056 25.776C77.3056 26.46 77.0896 27 76.2616 27C75.0736 27 71.4376 26.928 68.9176 26.928C66.3976 26.928 62.7616 27 61.5736 27C60.7456 27 60.5296 26.46 60.5296 25.776C60.5296 25.02 60.9976 24.588 61.5736 24.588C62.0776 24.588 62.5096 24.804 63.2296 24.804C65.2456 24.804 65.5336 24.588 65.5336 8.136C65.5336 7.236 65.1736 6.696 64.3096 6.696C63.4456 6.696 62.8696 7.2 62.2936 9.036C61.2496 12.384 60.3136 14.976 58.5496 14.976C57.8656 14.976 57.5416 14.436 57.5416 13.644C57.5416 13.212 57.8656 11.412 57.8656 10.188C57.8656 8.784 57.7936 7.38 57.7216 6.084C57.7216 5.04 57.8656 4.32 59.1976 4.32C62.4736 4.392 65.7496 4.608 69.0616 4.608Z" fill="#FDE9E9"/>
<path d="M59.2578 83.12C59.2578 72.44 57.0978 68.36 49.2978 68.36C41.2578 68.36 40.0578 71.36 40.0578 94.76C40.0578 99.44 40.7778 100.4 42.6978 100.4C53.9778 100.4 59.2578 94.52 59.2578 83.12ZM80.7378 122.36C83.7378 122.36 84.6978 120.44 84.6978 117.56C84.6978 114.56 82.6578 111.2 82.6578 109.04C82.6578 107 83.8578 105.2 86.3778 105.2C89.9778 105.2 90.6978 107.12 90.6978 114.8C90.6978 129.56 88.8978 138.08 72.9378 138.2C61.5378 138.2 55.8978 134.6 55.8978 124.88C55.8978 121.64 56.2578 118.04 56.2578 114.2C56.2578 110.96 54.5778 109.04 49.4178 109.04C43.5378 109.04 40.2978 111.56 40.2978 116C40.2978 118.28 40.4178 121.52 40.5378 123.44C40.7778 128 41.3778 129.68 44.4978 129.68C45.0978 129.68 46.7778 129.44 47.7378 129.44C49.7778 129.44 50.8578 131.24 50.8578 133.16C50.8578 134.84 49.7778 137 47.7378 137C44.4978 137 35.3778 136.76 29.0178 136.76C22.4178 136.76 12.6978 137 9.45781 137C7.17781 137 6.21781 135.32 6.21781 133.16C6.21781 131 7.65781 129.32 9.45781 129.32C10.1778 129.32 11.3778 129.68 11.7378 129.68C14.7378 129.68 15.3378 127.64 15.5778 122C15.8178 114.92 16.1778 104.96 16.1778 94.88C16.1778 88.4 15.9378 81.92 15.5778 76.28C15.3378 72.44 15.0978 68.72 12.0978 68.72C11.1378 68.72 10.1778 69.08 9.45781 69.08C7.17781 69.08 6.21781 67.4 6.21781 65.24C6.21781 63.08 7.65781 61.4 9.45781 61.4C15.4578 61.4 21.4578 61.64 28.1778 61.64C36.4578 61.64 52.5378 60.92 59.9778 60.92C75.0978 60.92 84.0978 66.8 84.0978 80.12C84.0978 96.32 72.6978 99.44 60.2178 101.36C58.8978 101.6 58.1778 102.44 58.1778 103.4C58.1778 104.12 59.0178 105.08 60.4578 105.08C70.2978 105.08 75.2178 107.24 76.1778 117.92C76.4178 120.92 78.0978 122.36 80.7378 122.36ZM12.7419 232.32C13.3419 232.32 14.5419 232.68 14.9019 232.68C17.9019 232.68 18.5019 230.64 18.7419 225C18.9819 217.68 19.3419 207.48 19.3419 196.92C19.3419 190.8 19.1019 184.56 18.7419 179.28C18.5019 175.44 18.2619 171.72 15.2619 171.72C14.3019 171.72 13.3419 172.08 12.7419 172.08C10.4619 172.08 9.50188 170.4 9.50188 168.24C9.50188 166.08 10.9419 164.4 12.7419 164.4C18.9819 164.4 24.9819 164.88 31.9419 164.88C43.3419 164.88 70.1019 164.4 77.3019 164.4C80.1819 164.4 82.1019 165.96 82.1019 168.48C82.1019 170.4 81.7419 173.76 81.7419 178.32C81.7419 181.8 82.2219 185.4 82.2219 186.84C82.2219 189.36 81.0219 191.4 78.7419 191.4C71.0619 191.4 66.8619 171.96 49.8219 171.96C45.7419 171.96 44.5419 175.68 43.9419 179.52C43.3419 183.72 43.2219 188.64 43.1019 193.56C43.1019 195.36 44.0619 196.44 45.6219 196.44C53.7819 196.44 58.4619 187.8 64.1019 187.8C65.5419 187.8 66.6219 188.76 66.6219 191.4C66.6219 193.68 66.2619 196.2 66.2619 200.52C66.2619 206.64 66.3819 209.04 66.3819 211.2C66.3819 213.96 64.9419 214.44 63.5019 214.44C57.9819 214.44 55.4619 203.76 45.8619 203.76C43.8219 203.76 43.1019 204.96 43.1019 207C43.1019 213.72 43.1019 220.68 43.4619 225C43.9419 230.28 45.1419 232.2 49.5819 232.2C67.9419 232.2 71.6619 212.04 79.7019 212.04C81.8619 212.04 82.7019 213.84 82.7019 215.88C82.7019 217.32 81.9819 221.04 81.9819 224.52C81.9819 229.68 82.7019 233.28 82.7019 235.56C82.7019 238.2 81.0219 240 78.3819 240C69.7419 240 47.6619 239.28 32.1819 239.28C25.5819 239.28 15.9819 240 12.7419 240C10.4619 240 9.50188 238.32 9.50188 236.04C9.50188 233.88 10.9419 232.32 12.7419 232.32ZM22.3498 342.16C17.9098 342.16 12.9898 343 10.5898 343C8.54984 343 7.58984 342.16 7.58984 339.64C7.58984 331.84 29.0698 299.32 29.0698 280.36C29.0698 275.92 25.8298 274.72 23.7898 274.72C22.5898 274.72 21.1498 275.2 20.0698 275.2C17.4298 275.2 16.1098 273.16 16.1098 271.12C16.1098 269.2 17.4298 267.28 20.0698 267.28C24.1498 267.28 38.7898 268.12 46.8298 268.12C54.2698 268.12 61.2298 267.4 62.9098 267.4C65.9098 267.4 68.1898 269.08 68.1898 273.28C68.1898 288.28 79.2298 321.28 86.5498 334.48C88.1098 337.24 89.0698 338.44 89.0698 340.12C89.0698 341.68 88.1098 343 86.3098 343C83.4299 343 76.5898 342.16 69.2698 342.16C63.2698 342.16 49.4698 343 48.1498 343C45.6298 343 44.7898 341.32 44.7898 339.16C44.7898 337 46.1098 335.32 48.1498 335.32C49.1098 335.32 50.1898 335.68 52.7098 335.68C55.4698 335.68 57.6298 333.76 57.6298 328.72C57.6298 321.04 56.1898 320.44 43.9498 320.44C33.1498 320.44 32.0698 321.88 32.0698 325.48C32.0698 332.68 39.2698 334.48 39.2698 339.04C39.2698 341.2 38.3098 343 36.0298 343C34.3498 343 26.1898 342.16 22.3498 342.16ZM33.0298 306.52C33.0298 311.32 33.6298 313 41.9098 313C52.5898 313 53.5498 311.08 53.6698 307.96C53.7898 302.92 51.1498 289.6 47.9098 283.12C45.8698 279.04 45.0298 278.2 43.1098 278.2C37.3498 278.2 33.0298 293.68 33.0298 306.52ZM49.4956 438.68C61.7356 438.56 62.3356 434.72 62.3356 415.4C62.3356 384.68 58.9756 377.72 49.6156 377.72C45.4156 377.72 43.0156 379.4 42.5356 385.4C42.0556 391.16 41.6956 398.12 41.6956 404.84C41.6956 414.56 42.1756 424.16 42.5356 431C42.8956 436.64 45.5356 438.8 49.4956 438.68ZM53.2156 446.12C49.3756 446.12 38.3356 445.52 30.7756 445.52C24.0556 445.52 14.3356 446 11.3356 446C9.53563 446 8.09563 444.8 8.09563 442.28C8.09563 439.52 9.53563 438.44 11.3356 438.44C11.8156 438.44 13.0156 438.68 13.4956 438.68C16.4956 438.68 17.0956 436.64 17.3356 431C17.5756 424.4 17.9356 415.04 17.9356 405.68C17.9356 398.6 17.6956 391.52 17.3356 385.52C17.0956 381.68 16.8556 377.84 13.8556 377.84C12.8956 377.84 11.9356 378.2 11.3356 378.2C9.05563 378.2 8.09563 376.52 8.09563 374.36C8.09563 372.08 9.53563 370.4 11.3356 370.4C17.3356 370.4 23.2156 370.64 29.9356 370.64C38.2156 370.64 45.4156 370.28 52.8556 370.28C78.4156 370.28 88.8556 388.04 88.8556 414.68C88.8556 435.2 78.6556 446.12 53.2156 446.12ZM36.5572 529.8C36.5572 526.44 34.7572 521.16 31.7572 515.64C25.8772 504.84 17.4772 491.88 12.4372 484.92C9.55719 480.96 7.63719 479.16 7.63719 476.88C7.63719 474.36 8.71719 473.4 10.9972 473.4C13.9972 473.4 22.1572 474 30.7972 474C35.4772 474 46.1572 473.4 47.2372 473.4C49.5172 473.4 50.7172 475.08 50.7172 477.24C50.7172 480 49.5172 481.08 47.2372 481.08C46.3972 481.08 45.4372 480.72 44.3572 480.72C42.4372 480.72 41.2372 481.8 41.2372 483.96C41.2372 490.8 43.9972 497.04 49.7572 510.72C51.4372 514.68 53.9572 516.6 56.4772 516.6C60.0772 516.6 62.2372 511.56 62.2372 504.72C62.2372 486.36 58.7572 485.04 58.7572 477.24C58.7572 474.84 59.8372 473.4 62.2372 473.4C63.5572 473.4 66.6772 474 72.4372 474C79.9972 474 83.3572 473.4 85.8772 473.4C88.3972 473.4 89.7172 474.12 89.7172 476.88C89.7172 481.56 84.1972 489.48 74.2372 505.32C64.3972 521.04 61.8772 525 61.8772 533.64C61.8772 540.84 65.4772 541.68 68.7172 541.68C71.1172 541.68 72.6772 541.32 74.3572 541.32C76.3972 541.32 77.4772 543 77.4772 545.16C77.4772 546.84 76.3972 549 74.3572 549C70.1572 549 57.6772 548.76 49.0372 548.76C40.6372 548.76 28.5172 549 24.4372 549C22.3972 549 21.3172 546.84 21.3172 545.16C21.3172 543 22.3972 541.32 24.4372 541.32C26.1172 541.32 27.6772 541.68 30.0772 541.68C33.1972 541.68 36.5572 540.6 36.5572 529.8Z" fill="#FDE9E9"/>
</svg>
