<svg width="808" height="373" viewBox="0 0 808 373" fill="none" xmlns="http://www.w3.org/2000/svg">
<g filter="url(#filter0_d_101_208)">
<path d="M4 174.306C56.38 204.636 227.83 301.566 368.59 339.006C442.93 358.806 487.48 356.286 514.21 334.056C520.6 328.746 529.78 321.096 533.02 308.766C550.57 242.526 375.7 122.916 234.49 61.0857C174.82 34.9857 124.06 20.4057 92.74 12.5757C63.13 66.4857 33.61 120.486 4 174.396V174.306Z" fill="#F01427"/>
<path d="M416.02 342.516C409.18 336.486 399.91 326.586 394.33 312.096C389.02 298.506 390.55 290.136 389.2 284.016C381.91 252.336 292.72 270.156 196.87 234.516C158.53 220.206 131.17 201.936 54.31 176.286C25.6 166.746 15.52 164.586 14.53 166.836C11.74 172.776 78.07 210.126 121.18 232.356C158.17 251.436 185.35 263.226 224.95 280.326C306.85 315.696 341.77 325.596 357.61 329.736C381.91 336.126 402.25 340.086 416.02 342.516Z" fill="#DF0E20"/>
<path d="M469.66 180.966C465.61 173.136 460.93 168.636 457.42 166.026C453.01 162.696 451.48 163.056 442.12 157.566C437.71 154.956 432.85 151.896 426.91 147.756C410.08 136.236 400.9 131.556 389.56 125.256C360.22 108.966 355 106.176 352.03 108.516C349.24 110.676 350.68 115.536 350.86 121.656C351.31 141.186 337.09 155.766 330.88 163.776C297.13 207.246 305.77 301.926 275.62 308.766C272.38 309.486 267.88 309.306 267.34 311.286C266.26 315.336 284.26 323.166 305.5 332.346C320.71 338.916 328.45 341.976 339.07 345.936C377.5 360.246 438.07 369.876 451.03 361.416C452.65 360.336 460.66 354.306 460.48 353.046C457.87 352.776 449.41 348.636 445.9 346.566C438.34 342.066 413.95 334.146 411.25 267.546C408.64 203.376 443.65 196.806 451.03 190.776C457.69 185.286 464.62 182.586 469.66 181.056V180.966Z" fill="#F01427"/>
<path d="M400.54 277.086C381.01 273.666 385.69 271.056 374.89 269.616C358.15 267.276 351.13 266.916 340.15 264.306C323.32 260.166 310.36 254.046 301.99 249.546C300.19 260.166 298.12 268.986 296.41 275.556C291.19 295.626 288.04 299.496 285.79 301.656C277.42 309.756 267.79 307.866 267.25 311.376C266.53 316.416 286.15 322.986 315.58 332.976C354.28 346.116 363.46 349.446 371.47 351.696C373.9 352.416 376.06 352.956 377.86 353.406C427.99 366.186 441.4 361.416 447.25 358.626C448.69 357.906 451.21 356.646 454.09 354.486C446.62 351.516 437.17 346.566 428.53 338.016C421.42 330.996 417.37 324.156 415.21 320.466C411.34 313.806 409.27 308.316 407.38 303.096C405.04 296.886 402.34 288.156 400.45 277.266L400.54 277.086Z" fill="#DF0E20"/>
<path d="M350.32 112.656C350.86 114.996 351.58 118.506 351.58 122.916C351.67 144.156 335.83 159.636 331.6 165.036C295.24 211.926 317.83 291.756 276.34 310.026C274.99 310.656 273.82 311.016 273.37 311.196C272.56 310.386 271.84 309.666 271.03 308.856C273.46 307.776 277.69 305.796 281.92 302.106C303.97 283.026 290.83 251.616 307.75 201.576C311.89 189.156 314.86 180.336 322.33 170.346C330.61 159.186 336.19 157.476 343.39 144.336C348.07 135.696 350.5 127.596 350.68 119.046C350.68 116.436 350.59 114.186 350.41 112.656H350.32Z" fill="#DF0E20"/>
<path d="M445 183.036C441.13 186.726 426.73 200.946 416.65 224.256C414.85 228.396 413.5 232.896 412.51 238.656C405.04 279.786 430.6 331.356 470.02 349.716C505.93 366.456 520.87 341.976 598.54 334.776C687.37 326.586 724.72 351.606 742.45 323.346C749.2 312.636 746.05 300.576 745.87 299.766C734.53 258.366 635.17 270.516 638.41 267.096C641.83 263.496 756.4 278.526 788.62 238.386C800.77 223.176 804.64 202.026 793.57 189.786C762.7 155.496 642.82 212.826 646.78 207.246C650.74 201.666 801.13 155.406 803.56 97.4458C804.37 78.5458 794.92 60.7258 777.01 55.5058C732.64 42.5458 621.31 164.676 623.83 156.666C626.35 148.746 731.65 68.0158 712.3 20.3158C706.45 5.91583 692.68 -0.744169 677.2 0.0658305C639.85 2.04583 561.82 143.256 551.2 138.576C544.72 135.696 573.88 82.4158 550.3 42.2758C548.05 38.4058 535.18 16.7158 520.78 18.1558C487.39 21.5758 484.33 145.596 445 183.126V183.036Z" fill="#FACCCB"/>
<path d="M501.07 60.9956C504.76 61.2656 507.37 74.5856 507.73 84.9356C508.45 107.886 498.37 126.336 479.74 152.256C452.74 189.786 424.66 219.666 423.49 218.586C422.41 217.596 449.41 194.556 470.92 152.526C495.31 104.826 494.59 60.6356 501.07 61.0856V60.9956Z" fill="#F8BEBC"/>
<path d="M427.72 291.216C431.23 284.016 472 285.096 489.01 308.046C496.84 318.666 497.29 330.726 508 334.866C515.74 337.836 523.48 334.686 526.99 333.336C556.78 321.996 611.59 321.186 646.96 319.926C684.31 318.576 694.39 320.826 711.94 313.086C720.04 309.576 730.75 303.366 734.62 307.146C737.68 310.026 735.79 318.396 731.38 323.436C722.92 333.156 705.1 330.546 698.8 329.646C698.8 329.646 657.49 323.976 586.57 329.826C531.94 334.326 509.17 355.206 478.84 343.416C458.32 335.496 445.18 319.296 445.18 319.206C435.73 307.866 425.56 295.716 427.72 291.216Z" fill="#F8BEBC"/>
<path d="M647.95 262.686C647.95 262.686 670.63 265.926 706.9 262.686C761.35 257.916 775.48 245.676 780.07 241.176C788.89 232.626 793.48 222.996 795.82 216.876C788.8 223.536 782.23 227.406 777.46 229.746C770.08 233.436 766.03 233.706 758.38 238.656C752.53 242.436 751.72 244.326 746.86 247.836C738.22 254.136 729.76 256.296 723.01 257.916C696.1 264.396 647.86 263.136 647.86 262.686H647.95Z" fill="#F8BEBC"/>
<path d="M553.63 145.596C552.1 143.346 547.42 145.866 544.99 143.706C542.65 141.546 545.8 136.866 548.32 125.166C549.22 120.846 550.39 115.266 549.67 115.086C548.5 114.636 541.48 127.866 538.6 143.616C538.24 145.416 534.91 164.316 539.14 165.846C542.02 166.926 547.42 159.006 549.76 155.586C552.01 152.256 555.07 147.846 553.54 145.596H553.63Z" fill="#F8BEBC"/>
<path d="M657.94 197.166C657.94 197.166 678.55 189.066 725.08 166.386C733.27 162.426 751.9 153.156 772.51 136.506C788.89 123.276 795.91 113.646 797.71 102.216C799.33 91.9558 796.45 81.2458 794.65 81.1558C793.12 81.1558 794.11 88.7158 789.52 98.0758C784.39 108.606 778.09 109.596 765.76 124.626C761.62 129.666 759.37 133.266 758.11 134.976C739.12 161.886 658.12 197.436 657.94 197.076V197.166Z" fill="#F8BEBC"/>
<path d="M623.56 151.986C623.56 151.986 641.38 136.506 673.42 99.8759C704.56 64.1459 709.33 47.4059 708.79 33.9959C708.52 26.8859 705.91 18.3359 703.84 18.3359C701.5 18.3359 702.58 29.4959 695.2 43.8959C692.32 49.5659 689.53 52.8959 687.19 60.5459C685.48 66.2159 685.03 70.5359 684.94 71.5259C682.69 91.5059 624.19 152.706 623.56 151.986Z" fill="#F8BEBC"/>
<path d="M454.99 276.906C454.45 274.476 502.24 274.656 535.72 238.566C557.77 214.896 562.54 187.626 565.42 188.616C568.39 189.606 567.4 220.926 549.22 244.416C518.44 284.196 455.53 279.696 454.99 276.906Z" fill="#F8BEBC"/>
</g>
<defs>
<filter id="filter0_d_101_208" x="0" y="0" width="807.608" height="372.582" filterUnits="userSpaceOnUse" color-interpolation-filters="sRGB">
<feFlood flood-opacity="0" result="BackgroundImageFix"/>
<feColorMatrix in="SourceAlpha" type="matrix" values="0 0 0 0 0 0 0 0 0 0 0 0 0 0 0 0 0 0 127 0" result="hardAlpha"/>
<feOffset dy="4"/>
<feGaussianBlur stdDeviation="2"/>
<feComposite in2="hardAlpha" operator="out"/>
<feColorMatrix type="matrix" values="0 0 0 0 0 0 0 0 0 0 0 0 0 0 0 0 0 0 0.25 0"/>
<feBlend mode="normal" in2="BackgroundImageFix" result="effect1_dropShadow_101_208"/>
<feBlend mode="normal" in="SourceGraphic" in2="effect1_dropShadow_101_208" result="shape"/>
</filter>
</defs>
</svg>
