<svg width="808" height="373" viewBox="0 0 808 373" fill="none" xmlns="http://www.w3.org/2000/svg">
<g filter="url(#filter0_d_101_209)">
<path d="M803.608 174.306C751.228 204.636 579.778 301.566 439.018 339.006C364.678 358.806 320.128 356.286 293.398 334.056C287.008 328.746 277.828 321.096 274.588 308.766C257.038 242.526 431.908 122.916 573.118 61.0857C632.788 34.9857 683.548 20.4057 714.868 12.5757C744.478 66.4857 773.998 120.486 803.608 174.396V174.306Z" fill="#631A86"/>
<path d="M391.588 342.516C398.428 336.486 407.698 326.586 413.278 312.096C418.588 298.506 417.058 290.136 418.408 284.016C425.698 252.336 514.888 270.156 610.738 234.516C649.078 220.206 676.438 201.936 753.298 176.286C782.008 166.746 792.088 164.586 793.078 166.836C795.868 172.776 729.538 210.126 686.428 232.356C649.438 251.436 622.258 263.226 582.658 280.326C500.758 315.696 465.838 325.596 449.998 329.736C425.698 336.126 405.358 340.086 391.588 342.516Z" fill="#3B1050"/>
<path d="M337.948 180.966C341.998 173.136 346.678 168.636 350.188 166.026C354.598 162.696 356.128 163.056 365.488 157.566C369.898 154.956 374.758 151.896 380.698 147.756C397.528 136.236 406.708 131.556 418.048 125.256C447.388 108.966 452.608 106.176 455.578 108.516C458.368 110.676 456.928 115.536 456.748 121.656C456.298 141.186 470.518 155.766 476.728 163.776C510.478 207.246 501.838 301.926 531.988 308.766C535.228 309.486 539.728 309.306 540.268 311.286C541.348 315.336 523.348 323.166 502.108 332.346C486.898 338.916 479.158 341.976 468.538 345.936C430.108 360.246 369.538 369.876 356.578 361.416C354.958 360.336 346.948 354.306 347.128 353.046C349.738 352.776 358.198 348.636 361.708 346.566C369.268 342.066 393.658 334.146 396.358 267.546C398.968 203.376 363.958 196.806 356.578 190.776C349.918 185.286 342.988 182.586 337.948 181.056V180.966Z" fill="#631A86"/>
<path d="M407.068 277.086C426.598 273.666 421.918 271.056 432.718 269.616C449.458 267.276 456.478 266.916 467.458 264.306C484.288 260.166 497.248 254.046 505.618 249.546C507.418 260.166 509.488 268.986 511.198 275.556C516.418 295.626 519.568 299.496 521.818 301.656C530.188 309.756 539.818 307.866 540.358 311.376C541.078 316.416 521.458 322.986 492.028 332.976C453.328 346.116 444.148 349.446 436.138 351.696C433.708 352.416 431.548 352.956 429.748 353.406C379.618 366.186 366.208 361.416 360.358 358.626C358.918 357.906 356.398 356.646 353.518 354.486C360.988 351.516 370.438 346.566 379.078 338.016C386.188 330.996 390.238 324.156 392.398 320.466C396.268 313.806 398.338 308.316 400.228 303.096C402.568 296.886 405.268 288.156 407.158 277.266L407.068 277.086Z" fill="#3B1050"/>
<path d="M457.288 112.656C456.748 114.996 456.028 118.506 456.028 122.916C455.938 144.156 471.778 159.636 476.008 165.036C512.368 211.926 489.778 291.756 531.268 310.026C532.618 310.656 533.788 311.016 534.238 311.196C535.048 310.386 535.768 309.666 536.578 308.856C534.148 307.776 529.918 305.796 525.688 302.106C503.638 283.026 516.778 251.616 499.858 201.576C495.718 189.156 492.748 180.336 485.278 170.346C476.998 159.186 471.418 157.476 464.218 144.336C459.538 135.696 457.108 127.596 456.928 119.046C456.928 116.436 457.018 114.186 457.198 112.656H457.288Z" fill="#3B1050"/>
<path d="M362.608 183.036C366.478 186.726 380.878 200.946 390.958 224.256C392.758 228.396 394.108 232.896 395.098 238.656C402.568 279.786 377.008 331.356 337.588 349.716C301.678 366.456 286.738 341.976 209.068 334.776C120.238 326.586 82.8881 351.606 65.1581 323.346C58.4081 312.636 61.5581 300.576 61.7381 299.766C73.0781 258.366 172.438 270.516 169.198 267.096C165.778 263.496 51.2081 278.526 18.9881 238.386C6.83807 223.176 2.96807 202.026 14.0381 189.786C44.9081 155.496 164.788 212.826 160.828 207.246C156.868 201.666 6.47807 155.406 4.04807 97.4458C3.23807 78.5458 12.6881 60.7258 30.5981 55.5058C74.9681 42.5458 186.298 164.676 183.778 156.666C181.258 148.746 75.9581 68.0158 95.3081 20.3158C101.158 5.91583 114.928 -0.744169 130.408 0.0658305C167.758 2.04583 245.788 143.256 256.408 138.576C262.888 135.696 233.728 82.4158 257.308 42.2758C259.558 38.4058 272.428 16.7158 286.828 18.1558C320.218 21.5758 323.278 145.596 362.608 183.126V183.036Z" fill="#FACCCB"/>
<path d="M306.538 60.9956C302.848 61.2656 300.238 74.5856 299.878 84.9356C299.158 107.886 309.238 126.336 327.868 152.256C354.868 189.786 382.948 219.666 384.118 218.586C385.198 217.596 358.198 194.556 336.688 152.526C312.298 104.826 313.018 60.6356 306.538 61.0856V60.9956Z" fill="#F8BEBC"/>
<path d="M379.888 291.216C376.378 284.016 335.608 285.096 318.598 308.046C310.768 318.666 310.318 330.726 299.608 334.866C291.868 337.836 284.128 334.686 280.618 333.336C250.828 321.996 196.018 321.186 160.648 319.926C123.298 318.576 113.218 320.826 95.668 313.086C87.568 309.576 76.858 303.366 72.988 307.146C69.928 310.026 71.818 318.396 76.228 323.436C84.688 333.156 102.508 330.546 108.808 329.646C108.808 329.646 150.118 323.976 221.038 329.826C275.668 334.326 298.438 355.206 328.768 343.416C349.288 335.496 362.428 319.296 362.428 319.206C371.878 307.866 382.048 295.716 379.888 291.216Z" fill="#F8BEBC"/>
<path d="M159.658 262.686C159.658 262.686 136.978 265.926 100.708 262.686C46.2583 257.916 32.1283 245.676 27.5383 241.176C18.7183 232.626 14.1283 222.996 11.7883 216.876C18.8083 223.536 25.3783 227.406 30.1483 229.746C37.5283 233.436 41.5783 233.706 49.2283 238.656C55.0783 242.436 55.8883 244.326 60.7483 247.836C69.3883 254.136 77.8483 256.296 84.5983 257.916C111.508 264.396 159.748 263.136 159.748 262.686H159.658Z" fill="#F8BEBC"/>
<path d="M253.978 145.596C255.508 143.346 260.188 145.866 262.618 143.706C264.958 141.546 261.808 136.866 259.288 125.166C258.388 120.846 257.218 115.266 257.938 115.086C259.108 114.636 266.128 127.866 269.008 143.616C269.368 145.416 272.698 164.316 268.468 165.846C265.588 166.926 260.188 159.006 257.848 155.586C255.598 152.256 252.538 147.846 254.068 145.596H253.978Z" fill="#F8BEBC"/>
<path d="M149.668 197.166C149.668 197.166 129.058 189.066 82.5282 166.386C74.3382 162.426 55.7082 153.156 35.0982 136.506C18.7182 123.276 11.6982 113.646 9.8982 102.216C8.2782 91.9558 11.1582 81.2458 12.9582 81.1558C14.4882 81.1558 13.4982 88.7158 18.0882 98.0758C23.2182 108.606 29.5182 109.596 41.8482 124.626C45.9882 129.666 48.2382 133.266 49.4982 134.976C68.4882 161.886 149.488 197.436 149.668 197.076V197.166Z" fill="#F8BEBC"/>
<path d="M184.048 151.986C184.048 151.986 166.228 136.506 134.188 99.8759C103.048 64.1459 98.2778 47.4059 98.8178 33.9959C99.0878 26.8859 101.698 18.3359 103.768 18.3359C106.108 18.3359 105.028 29.4959 112.408 43.8959C115.288 49.5659 118.078 52.8959 120.418 60.5459C122.128 66.2159 122.578 70.5359 122.668 71.5259C124.918 91.5059 183.418 152.706 184.048 151.986Z" fill="#F8BEBC"/>
<path d="M352.618 276.906C353.158 274.476 305.368 274.656 271.888 238.566C249.838 214.896 245.068 187.626 242.188 188.616C239.218 189.606 240.208 220.926 258.388 244.416C289.168 284.196 352.078 279.696 352.618 276.906Z" fill="#F8BEBC"/>
</g>
<defs>
<filter id="filter0_d_101_209" x="0" y="0" width="807.608" height="372.582" filterUnits="userSpaceOnUse" color-interpolation-filters="sRGB">
<feFlood flood-opacity="0" result="BackgroundImageFix"/>
<feColorMatrix in="SourceAlpha" type="matrix" values="0 0 0 0 0 0 0 0 0 0 0 0 0 0 0 0 0 0 127 0" result="hardAlpha"/>
<feOffset dy="4"/>
<feGaussianBlur stdDeviation="2"/>
<feComposite in2="hardAlpha" operator="out"/>
<feColorMatrix type="matrix" values="0 0 0 0 0 0 0 0 0 0 0 0 0 0 0 0 0 0 0.25 0"/>
<feBlend mode="normal" in2="BackgroundImageFix" result="effect1_dropShadow_101_209"/>
<feBlend mode="normal" in="SourceGraphic" in2="effect1_dropShadow_101_209" result="shape"/>
</filter>
</defs>
</svg>
