<?xml version="1.0" encoding="utf-8"?>
<!-- Generator: Adobe Illustrator 27.5.0, SVG Export Plug-In . SVG Version: 6.00 Build 0)  -->
<svg version="1.1" id="Ebene_1" xmlns="http://www.w3.org/2000/svg" xmlns:xlink="http://www.w3.org/1999/xlink" x="0px" y="0px"
	 viewBox="0 0 800 370" style="enable-background:new 0 0 800 370;" xml:space="preserve">
<style type="text/css">
	.st0{fill:#F01427;}
	.st1{fill:#DF0E20;}
	.st2{fill:#FACCCB;}
	.st3{fill:#F8BEBC;}
</style>
<g>
	<path class="st0" d="M0.2,177C52.6,207.3,224,304.3,364.8,341.7c74.3,19.8,118.9,17.3,145.6-5c6.4-5.3,15.6-13,18.8-25.3
		c17.5-66.2-157.3-185.9-298.5-247.7C171,37.7,120.3,23.1,88.9,15.3C59.3,69.2,29.8,123.2,0.2,177L0.2,177z"/>
	<path class="st1" d="M412.2,345.2c-6.8-6-16.1-15.9-21.7-30.4c-5.3-13.6-3.8-22-5.1-28.1c-7.3-31.7-96.5-13.9-192.3-49.5
		c-38.3-14.3-65.7-32.6-142.6-58.2c-28.7-9.5-38.8-11.7-39.8-9.4c-2.8,5.9,63.5,43.3,106.7,65.5c37,19.1,64.2,30.9,103.8,48
		c81.9,35.4,116.8,45.3,132.7,49.4C378.1,338.8,398.4,342.8,412.2,345.2z"/>
	<path class="st0" d="M465.9,183.7c-4.1-7.8-8.7-12.3-12.2-14.9c-4.4-3.3-5.9-3-15.3-8.5c-4.4-2.6-9.3-5.7-15.2-9.8
		c-16.8-11.5-26-16.2-37.4-22.5c-29.3-16.3-34.6-19.1-37.5-16.7c-2.8,2.2-1.4,7-1.2,13.1c0.5,19.5-13.8,34.1-20,42.1
		c-33.8,43.5-25.1,138.1-55.3,145c-3.2,0.7-7.7,0.5-8.3,2.5c-1.1,4,16.9,11.9,38.2,21.1c15.2,6.6,23,9.6,33.6,13.6
		c38.4,14.3,99,23.9,112,15.5c1.6-1.1,9.6-7.1,9.5-8.4c-2.6-0.3-11.1-4.4-14.6-6.5c-7.6-4.5-31.9-12.4-34.6-79
		c-2.6-64.2,32.4-70.7,39.8-76.8C453.9,188,460.8,185.3,465.9,183.7L465.9,183.7z"/>
	<path class="st1" d="M396.7,279.8c-19.5-3.4-14.9-6-25.6-7.5c-16.7-2.3-23.8-2.7-34.7-5.3c-16.8-4.1-29.8-10.3-38.2-14.8
		c-1.8,10.6-3.9,19.4-5.6,26c-5.2,20.1-8.4,23.9-10.6,26.1c-8.4,8.1-18,6.2-18.5,9.7c-0.7,5,18.9,11.6,48.3,21.6
		c38.7,13.1,47.9,16.5,55.9,18.7c2.4,0.7,4.6,1.3,6.4,1.7c50.1,12.8,63.5,8,69.4,5.2c1.4-0.7,4-2,6.8-4.1c-7.5-3-16.9-7.9-25.6-16.5
		c-7.1-7-11.2-13.9-13.3-17.5c-3.9-6.7-5.9-12.1-7.8-17.4c-2.3-6.2-5-14.9-6.9-25.8L396.7,279.8z"/>
	<path class="st1" d="M346.5,115.4c0.5,2.3,1.3,5.8,1.3,10.3c0.1,21.2-15.8,36.7-20,42.1c-36.4,46.9-13.8,126.7-55.3,145
		c-1.4,0.6-2.5,1-3,1.2c-0.8-0.8-1.5-1.5-2.3-2.3c2.4-1.1,6.7-3.1,10.9-6.8c22-19.1,8.9-50.5,25.8-100.5
		c4.1-12.4,7.1-21.2,14.6-31.2c8.3-11.2,13.9-12.9,21.1-26c4.7-8.6,7.1-16.7,7.3-25.3C346.9,119.1,346.8,116.9,346.5,115.4
		L346.5,115.4z"/>
	<path class="st2" d="M441.2,185.7c-3.9,3.7-18.3,17.9-28.4,41.2c-1.8,4.1-3.1,8.6-4.1,14.4c-7.5,41.1,18.1,92.7,57.5,111.1
		c35.9,16.7,50.9-7.7,128.5-14.9c88.8-8.2,126.2,16.8,143.9-11.4c6.8-10.7,3.6-22.8,3.4-23.6c-11.3-41.4-110.7-29.2-107.5-32.7
		c3.4-3.6,118,11.4,150.2-28.7c12.2-15.2,16-36.4,5-48.6C758.9,158.2,639,215.5,643,210c4-5.6,154.3-51.8,156.8-109.8
		c0.8-18.9-8.6-36.7-26.5-41.9c-44.4-13-155.7,109.2-153.2,101.2c2.5-7.9,107.8-88.7,88.5-136.4C702.6,8.6,688.9,2,673.4,2.8
		C636,4.8,558,146,547.4,141.3c-6.5-2.9,22.7-56.2-0.9-96.3c-2.2-3.9-15.1-25.6-29.5-24.1C483.6,24.3,480.5,148.3,441.2,185.7
		L441.2,185.7z"/>
	<path class="st3" d="M497.3,63.7c3.7,0.3,6.3,13.6,6.7,23.9c0.7,23-9.4,41.4-28,67.3c-27,37.5-55.1,67.4-56.2,66.3
		c-1.1-1,25.9-24,47.4-66.1C491.5,107.5,490.8,63.3,497.3,63.7L497.3,63.7z"/>
	<path class="st3" d="M423.9,293.9c3.5-7.2,44.3-6.1,61.3,16.8c7.8,10.6,8.3,22.7,19,26.8c7.7,3,15.5-0.2,19-1.5
		c29.8-11.3,84.6-12.1,120-13.4c37.3-1.4,47.4,0.9,65-6.8c8.1-3.5,18.8-9.7,22.7-5.9c3.1,2.9,1.2,11.2-3.2,16.3
		c-8.5,9.7-26.3,7.1-32.6,6.2c0,0-41.3-5.7-112.2,0.2c-54.6,4.5-77.4,25.4-107.7,13.6c-20.5-7.9-33.7-24.1-33.7-24.2
		C431.9,310.6,421.8,298.4,423.9,293.9z"/>
	<path class="st3" d="M644.1,265.4c0,0,22.7,3.2,59,0c54.4-4.8,68.6-17,73.2-21.5c8.8-8.5,13.4-18.2,15.8-24.3
		c-7,6.7-13.6,10.5-18.4,12.9c-7.4,3.7-11.4,4-19.1,8.9c-5.8,3.8-6.7,5.7-11.5,9.2c-8.6,6.3-17.1,8.5-23.8,10.1
		C692.3,267.1,644.1,265.8,644.1,265.4L644.1,265.4z"/>
	<path class="st3" d="M549.8,148.3c-1.5-2.2-6.2,0.3-8.6-1.9c-2.3-2.2,0.8-6.8,3.3-18.5c0.9-4.3,2.1-9.9,1.3-10.1
		c-1.2-0.4-8.2,12.8-11.1,28.5c-0.4,1.8-3.7,20.7,0.5,22.2c2.9,1.1,8.3-6.8,10.6-10.3C548.2,155,551.3,150.6,549.8,148.3
		L549.8,148.3z"/>
	<path class="st3" d="M654.1,199.9c0,0,20.6-8.1,67.1-30.8c8.2-4,26.8-13.2,47.4-29.9c16.4-13.2,23.4-22.9,25.2-34.3
		c1.6-10.3-1.3-21-3.1-21.1c-1.5,0-0.5,7.6-5.1,16.9c-5.1,10.5-11.4,11.5-23.8,26.6c-4.1,5-6.4,8.6-7.7,10.4
		C735.3,164.6,654.3,200.1,654.1,199.9L654.1,199.9z"/>
	<path class="st3" d="M619.8,154.7c0,0,17.8-15.5,49.9-52.1c31.1-35.7,35.9-52.5,35.4-65.9c-0.3-7.1-2.9-15.7-4.9-15.7
		c-2.3,0-1.3,11.2-8.6,25.6c-2.9,5.7-5.7,9-8,16.6c-1.7,5.7-2.2,10-2.2,11C678.9,94.2,620.4,155.4,619.8,154.7z"/>
	<path class="st3" d="M451.2,279.6c-0.5-2.4,47.2-2.2,80.7-38.3c22.1-23.7,26.8-50.9,29.7-49.9c3,1,2,32.3-16.2,55.8
		C514.6,286.9,451.7,282.4,451.2,279.6z"/>
</g>
</svg>
