<svg width="433" height="363" viewBox="0 0 433 363" fill="none" xmlns="http://www.w3.org/2000/svg">
<path d="M205.921 61.6189C192.223 61.6189 202.071 22.4204 177.784 22.4204C172.897 22.4204 168.973 25.6127 168.973 33.3336C168.973 38.8274 171.786 43.1332 175.637 43.1332C176.007 43.1332 176.673 42.7621 176.673 41.9454C176.673 40.4606 174.082 38.9758 174.082 35.4123C174.082 30.364 177.636 28.805 181.264 28.805C188.224 28.805 191.482 33.7048 191.482 43.9499C191.482 55.9767 186.299 61.322 176.377 61.322C163.493 61.322 152.905 49.5921 143.279 49.5921C136.763 49.5921 133.134 51.8193 133.134 54.8631C133.134 56.0509 133.949 57.0903 136.17 57.0903C140.021 57.0903 143.427 53.6753 146.907 53.6753C148.758 53.6753 149.869 54.9373 149.869 56.4221C149.869 59.2432 146.833 61.322 140.391 61.322C127.803 61.322 123.583 54.0465 123.583 46.6225C123.583 38.6789 128.84 33.2594 137.947 33.2594C155.052 33.2594 166.973 53.6753 177.636 53.6753C183.041 53.6753 186.447 48.8497 186.447 42.5393C186.447 37.491 184.966 34.7442 182.449 34.7442C180.228 34.7442 179.487 36.229 179.487 38.0107C179.487 40.1637 180.45 41.5742 180.45 43.2817C180.45 44.915 179.191 46.2513 177.414 46.2513C161.938 46.2513 154.386 37.3425 154.386 27.3202C154.386 16.11 160.235 9.50268 172.749 9.50268C195.999 9.50268 199.183 48.4043 206.884 48.4043C208.291 48.4043 208.661 47.2164 208.661 45.8801C208.661 24.4991 184.966 8.53756 184.966 2.22719C184.966 0.890877 185.707 0 186.892 0C188.595 0 192.667 0.3712 195.925 0.3712C197.702 0.3712 201.182 0.0742414 204.885 0.0742414C206.292 0.0742414 207.698 1.41055 208.809 4.6771C210.734 10.3936 212.363 20.3417 212.363 36.8229C212.363 51.5223 211.549 61.4704 205.773 61.4704L205.921 61.6189Z" fill="#713E5A"/>
<path d="M223.174 4.82554C224.211 1.55899 225.692 0.222672 227.098 0.222672C230.801 0.222672 234.281 0.519637 236.058 0.519637C239.316 0.519637 243.462 0.148438 245.091 0.148438C246.35 0.148438 247.017 1.03931 247.017 2.37563C247.017 8.686 223.322 24.6475 223.322 46.0285C223.322 47.3649 223.692 48.5527 225.099 48.5527C232.726 48.5527 235.91 9.65111 259.234 9.65111C271.748 9.65111 277.598 16.2584 277.598 27.4686C277.598 37.5652 270.045 46.3998 254.569 46.3998C252.792 46.3998 251.533 45.0634 251.533 43.4302C251.533 41.7226 252.496 40.3121 252.496 38.1591C252.496 36.3774 251.756 34.8926 249.534 34.8926C247.017 34.8926 245.536 37.6395 245.536 42.6878C245.536 48.9981 248.942 53.8237 254.347 53.8237C265.01 53.8237 276.931 33.4078 294.036 33.4078C303.217 33.4078 308.401 38.8273 308.401 46.7709C308.401 54.1949 304.254 61.4704 291.592 61.4704C285.076 61.4704 282.114 59.3917 282.114 56.5706C282.114 55.0858 283.151 53.8237 285.076 53.8237C288.556 53.8237 292.036 57.2387 295.813 57.2387C298.034 57.2387 298.849 56.1994 298.849 55.0116C298.849 51.9677 295.22 49.7405 288.704 49.7405C279.004 49.7405 268.49 61.4704 255.606 61.4704C245.684 61.4704 240.501 56.1251 240.501 44.0983C240.501 33.8532 243.759 28.9534 250.719 28.9534C254.347 28.9534 257.901 30.4382 257.901 35.5608C257.901 39.1243 255.31 40.5348 255.31 42.0939C255.31 42.9105 256.05 43.2817 256.346 43.2817C260.197 43.2817 263.011 38.9758 263.011 33.482C263.011 25.7611 259.086 22.5688 254.199 22.5688C229.838 22.5688 239.686 61.7674 226.062 61.7674C220.286 61.7674 219.472 51.8192 219.472 37.1198C219.472 20.6386 221.101 10.6905 223.026 4.97401L223.174 4.82554Z" fill="#713E5A"/>
<path d="M151.72 120.342C151.72 118.115 150.239 115.665 150.239 114.032C150.239 112.547 151.127 111.211 152.978 111.211C155.644 111.211 156.162 112.621 156.162 118.338C156.162 129.325 154.829 135.636 143.056 135.71C134.615 135.71 130.468 133.037 130.468 125.836C130.468 123.46 130.765 120.788 130.765 117.892C130.765 115.517 129.506 114.032 125.729 114.032C121.361 114.032 118.991 115.888 118.991 119.229C118.991 120.936 119.065 123.312 119.139 124.723C119.287 128.138 119.732 129.325 122.101 129.325C122.545 129.325 123.804 129.177 124.471 129.177C125.952 129.177 126.766 130.513 126.766 131.924C126.766 133.186 125.952 134.745 124.471 134.745C122.101 134.745 115.289 134.596 110.624 134.596C105.959 134.596 98.5547 134.745 96.1112 134.745C94.4081 134.745 93.7417 133.483 93.7417 131.924C93.7417 130.365 94.7784 129.103 96.1112 129.103C96.6295 129.103 97.5181 129.4 97.8142 129.4C100.036 129.4 100.48 127.915 100.628 123.683C100.776 118.412 101.072 111.062 101.072 103.564C101.072 98.7386 100.924 93.9873 100.628 89.7556C100.48 86.9345 100.258 84.1134 98.0364 84.1134C97.2959 84.1134 96.6295 84.4104 96.1112 84.4104C94.4081 84.4104 93.7417 83.1483 93.7417 81.5893C93.7417 80.0302 94.7784 78.7682 96.1112 78.7682C100.554 78.7682 104.997 78.9166 109.958 78.9166C116.104 78.9166 127.951 78.397 133.504 78.397C144.685 78.397 151.349 82.7771 151.349 92.651C151.349 104.678 142.908 106.979 133.652 108.39C132.69 108.538 132.171 109.206 132.171 109.875C132.171 110.394 132.764 111.137 133.874 111.137C141.131 111.137 144.833 112.77 145.5 120.639C145.648 122.867 146.907 123.906 148.906 123.906C151.127 123.906 151.868 122.495 151.868 120.342H151.72ZM125.507 83.8165C119.584 83.8165 118.695 86.0437 118.695 103.416C118.695 106.905 119.213 107.573 120.62 107.573C128.987 107.573 132.912 103.193 132.912 94.7297C132.912 86.786 131.283 83.7422 125.507 83.7422V83.8165Z" fill="#713E5A"/>
<path d="M187.039 136.082C165.64 136.082 157.939 127.618 157.939 110.32C157.939 90.0529 165.64 77.2837 187.039 77.2837C208.439 77.2837 216.287 90.5726 216.287 110.32C216.287 127.024 208.587 136.082 187.039 136.082ZM187.039 82.6289C179.191 82.6289 176.969 91.3892 177.191 109.875C177.265 121.976 179.265 128.806 187.039 128.806C194.814 128.806 196.888 121.976 196.962 109.875C197.11 91.315 194.888 82.6289 187.039 82.6289Z" fill="#713E5A"/>
<path d="M250.349 136.082C235.317 136.082 221.545 131.33 221.545 107.351C221.545 89.1621 230.801 77.358 247.461 77.358C258.198 77.358 262.048 83.9653 266.935 83.9653C268.194 83.9653 269.156 83.4456 269.156 82.035C269.156 81.1442 269.008 80.179 269.008 79.8821C269.008 78.0261 269.971 77.2095 271.6 77.2095C273.007 77.2095 274.265 78.0261 274.265 79.8821C274.265 80.8472 273.895 86.4894 273.821 90.1272C273.747 93.0968 273.747 96.3633 273.747 98.5905C273.747 101.04 273.229 102.896 269.823 103.045C262.64 103.045 257.827 99.9268 255.014 92.7998C252.274 85.8213 251.459 82.7032 247.387 82.7032C242.5 82.7032 239.538 88.1227 239.538 100.595C239.538 115.369 243.462 123.906 256.717 123.906C264.121 123.906 268.638 121.085 268.638 115.443C268.638 113.661 268.12 112.028 268.12 111.063C268.12 109.355 269.156 108.019 271.23 108.019C273.007 108.019 274.34 108.91 274.34 111.211C274.34 125.911 269.527 136.082 250.423 136.082H250.349Z" fill="#713E5A"/>
<path d="M278.189 131.924C278.189 129.845 279.226 129.103 280.559 129.103C281.077 129.103 281.818 129.4 282.188 129.4C284.409 129.4 284.854 127.915 285.002 123.684C285.15 118.413 285.446 111.063 285.446 103.565C285.446 98.739 285.298 93.9877 285.002 89.756C284.854 86.9349 284.631 84.1138 282.41 84.1138C281.67 84.1138 281.003 84.4108 280.559 84.4108C278.856 84.4108 278.189 83.1487 278.189 81.5897C278.189 79.511 279.226 78.7686 280.559 78.7686C285.002 78.7686 289.37 78.917 294.331 78.917C299.07 78.917 303.143 78.7686 307.363 78.7686C309.067 78.7686 309.733 80.1049 309.733 81.5154C309.733 83.1487 308.992 84.3365 307.363 84.3365C306.919 84.3365 306.179 84.1881 305.586 84.1881C304.328 84.1881 303.809 84.9305 303.661 87.8258C303.365 91.0181 303.217 95.7694 303.217 100.744C303.217 102.971 303.587 103.416 304.55 103.416C309.511 103.416 318.841 96.2149 318.841 90.5727C318.841 84.1881 313.879 85.0789 313.879 81.1442C313.879 79.8821 315.064 78.7686 316.989 78.7686C319.137 78.7686 322.247 79.1398 324.838 79.1398C327.208 79.1398 330.54 78.7686 332.687 78.7686C334.834 78.7686 336.315 79.3625 336.315 81.8866C336.315 97.1058 323.505 99.1845 313.879 103.862C313.139 104.233 312.843 104.678 312.843 105.346C312.843 106.163 313.361 106.757 314.472 106.757C316.397 106.757 318.544 105.792 322.839 105.792C326.689 105.792 330.318 108.093 330.318 113.735C330.318 115.22 330.021 117.893 330.021 120.046C330.021 123.461 330.614 124.574 332.613 124.574C333.798 124.574 335.279 123.387 335.279 120.64C335.279 117.15 333.502 115.072 333.502 113.067C333.502 111.582 334.76 110.617 336.315 110.617C339.055 110.617 339.499 113.81 339.499 120.12C339.499 131.85 335.205 135.636 326.986 135.71C317.36 135.71 313.065 132.741 313.065 124.723C313.065 121.976 313.361 118.784 313.361 115.517C313.361 111.137 310.621 108.91 306.549 108.91C304.402 108.91 303.439 109.652 303.439 111.286C303.439 115.814 303.809 120.343 303.883 123.609C304.031 127.767 304.476 129.326 306.697 129.326C307.067 129.326 307.956 129.029 308.474 129.029C310.177 129.029 310.844 130.291 310.844 131.85C310.844 133.112 310.103 134.671 308.474 134.671C306.179 134.671 299.589 134.523 295.146 134.523C290.185 134.523 283.225 134.671 280.781 134.671C279.078 134.671 278.412 133.409 278.412 131.85L278.189 131.924Z" fill="#713E5A"/>
<path d="M2.96183 209.875C1.33282 209.875 0 208.985 0 207.351C0 205.421 0.518318 200.076 0.518318 196.586C0.518318 193.394 0 190.944 0 189.459C0 187.603 0.740459 186.193 3.18397 186.193C9.77404 186.193 16.4382 204.085 28.9519 204.085C32.358 204.085 35.616 202.229 35.616 197.923C35.616 193.988 33.5427 191.612 21.6954 188.717C6.1458 184.857 1.03664 178.843 1.03664 168.747C1.03664 159.838 7.33052 151.449 21.9175 151.449C32.7282 151.449 36.2824 157.165 39.5404 157.165C40.8732 157.165 41.7618 156.646 41.7618 155.68C41.7618 154.938 41.6137 154.493 41.6137 153.899C41.6137 152.191 42.7984 151.3 44.2053 151.3C46.0564 151.3 46.8709 152.117 46.8709 154.493C46.8709 157.239 46.5748 159.392 46.5748 162.659C46.5748 164.738 46.7229 168.301 46.7229 169.489C46.7229 171.642 45.7603 172.978 43.9091 172.978C35.9862 172.978 30.6549 157.165 21.029 157.165C16.7343 157.165 13.9946 159.318 13.9946 162.956C13.9946 166.371 15.9198 168.895 26.8045 171.939C43.0206 176.468 49.1664 181.664 49.1664 192.949C49.1664 204.233 40.2809 210.247 29.174 210.247C17.1046 210.247 12.5137 203.565 8.21908 203.565C6.44198 203.565 5.55343 204.382 5.55343 205.644C5.55343 206.089 5.70152 206.832 5.70152 207.351C5.70152 208.985 4.51679 209.875 3.03587 209.875H2.96183Z" fill="#713E5A"/>
<path d="M83.3013 210.321C68.2701 210.321 54.4976 205.569 54.4976 181.59C54.4976 163.401 63.7533 151.597 80.4136 151.597C91.1502 151.597 95.0006 158.205 99.8876 158.205C101.146 158.205 102.109 157.685 102.109 156.274C102.109 155.383 101.961 154.418 101.961 154.121C101.961 152.265 102.923 151.449 104.552 151.449C105.959 151.449 107.218 152.265 107.218 154.121C107.218 155.086 106.848 160.729 106.774 164.366C106.7 167.336 106.7 170.603 106.7 172.83C106.7 175.28 106.181 177.136 102.775 177.284C95.5929 177.284 90.78 174.166 87.9662 167.039C85.2265 160.061 84.412 156.942 80.3395 156.942C75.4525 156.942 72.4907 162.362 72.4907 174.834C72.4907 189.608 76.4151 198.145 89.6693 198.145C97.0738 198.145 101.591 195.324 101.591 189.682C101.591 187.9 101.072 186.267 101.072 185.302C101.072 183.595 102.109 182.258 104.182 182.258C105.959 182.258 107.292 183.149 107.292 185.451C107.292 200.15 102.479 210.321 83.3754 210.321H83.3013Z" fill="#713E5A"/>
<path d="M141.131 152.934C142.834 152.934 143.501 154.196 143.501 155.903C143.501 157.165 142.76 158.724 141.131 158.724C140.613 158.724 139.799 158.427 138.984 158.427C136.763 158.427 136.615 161.174 136.393 164.07C136.096 168.153 135.948 172.978 135.948 177.804C135.948 185.302 136.244 192.652 136.393 197.923C136.541 202.08 136.985 203.639 139.206 203.639C139.576 203.639 140.465 203.491 141.057 203.491C142.76 203.491 143.427 204.827 143.427 206.238C143.427 207.871 142.686 209.059 141.057 209.059C138.836 209.059 132.616 208.762 128.173 208.762C123.212 208.762 115.882 209.059 113.438 209.059C111.735 209.059 111.069 207.797 111.069 206.238C111.069 204.827 111.809 203.491 113.438 203.491C113.883 203.491 114.771 203.639 115.067 203.639C117.289 203.639 117.733 202.155 117.881 197.923C118.029 192.652 118.325 185.302 118.325 177.878C118.325 173.053 118.177 168.227 117.881 164.144C117.733 161.323 117.511 158.427 115.289 158.427C114.549 158.427 113.883 158.724 113.438 158.724C111.735 158.724 111.069 157.091 111.069 155.903C111.069 154.196 111.809 152.934 113.438 152.934C117.955 152.934 122.472 153.231 127.581 153.231C132.69 153.231 136.763 152.934 141.057 152.934H141.131Z" fill="#713E5A"/>
<path d="M149.202 209.875C147.573 209.875 146.24 208.985 146.24 207.351C146.24 205.421 146.759 200.076 146.759 196.586C146.759 193.394 146.24 190.944 146.24 189.459C146.24 187.603 146.981 186.193 149.424 186.193C156.014 186.193 162.678 204.085 175.192 204.085C178.598 204.085 181.856 202.229 181.856 197.923C181.856 193.988 179.783 191.612 167.936 188.717C152.386 184.857 147.277 178.843 147.277 168.747C147.277 159.838 153.571 151.449 168.158 151.449C178.968 151.449 182.523 157.165 185.781 157.165C187.113 157.165 188.002 156.646 188.002 155.68C188.002 154.938 187.854 154.493 187.854 153.899C187.854 152.191 189.039 151.3 190.446 151.3C192.297 151.3 193.111 152.117 193.111 154.493C193.111 157.239 192.815 159.392 192.815 162.659C192.815 164.738 192.963 168.301 192.963 169.489C192.963 171.642 192.001 172.978 190.149 172.978C182.226 172.978 176.895 157.165 167.269 157.165C162.975 157.165 160.235 159.318 160.235 162.956C160.235 166.371 162.16 168.895 173.045 171.939C189.261 176.468 195.407 181.664 195.407 192.949C195.407 204.233 186.521 210.247 175.414 210.247C163.345 210.247 158.754 203.565 154.459 203.565C152.682 203.565 151.794 204.382 151.794 205.644C151.794 206.089 151.942 206.832 151.942 207.351C151.942 208.985 150.757 209.875 149.276 209.875H149.202ZM203.626 209.875C201.997 209.875 200.664 208.985 200.664 207.351C200.664 205.421 201.182 200.076 201.182 196.586C201.182 193.394 200.664 190.944 200.664 189.459C200.664 187.603 201.404 186.193 203.848 186.193C210.438 186.193 217.102 204.085 229.616 204.085C233.022 204.085 236.28 202.229 236.28 197.923C236.28 193.988 234.207 191.612 222.359 188.717C206.81 184.857 201.701 178.843 201.701 168.747C201.701 159.838 207.994 151.449 222.581 151.449C233.392 151.449 236.946 157.165 240.204 157.165C241.537 157.165 242.426 156.646 242.426 155.68C242.426 154.938 242.278 154.493 242.278 153.899C242.278 152.191 243.462 151.3 244.869 151.3C246.72 151.3 247.535 152.117 247.535 154.493C247.535 157.239 247.239 159.392 247.239 162.659C247.239 164.738 247.387 168.301 247.387 169.489C247.387 171.642 246.424 172.978 244.573 172.978C236.65 172.978 231.319 157.165 221.693 157.165C217.398 157.165 214.659 159.318 214.659 162.956C214.659 166.371 216.584 168.895 227.468 171.939C243.758 176.468 249.83 181.664 249.83 192.949C249.83 204.233 240.945 210.247 229.838 210.247C217.768 210.247 213.178 203.565 208.883 203.565C207.106 203.565 206.217 204.382 206.217 205.644C206.217 206.089 206.365 206.832 206.365 207.351C206.365 208.985 205.181 209.875 203.7 209.875H203.626Z" fill="#713E5A"/>
<path d="M284.336 210.321C262.937 210.321 255.236 201.857 255.236 184.56C255.236 164.292 262.937 151.523 284.336 151.523C305.735 151.523 313.584 164.812 313.584 184.56C313.584 201.264 305.883 210.321 284.336 210.321ZM284.336 156.868C276.487 156.868 274.266 165.628 274.488 184.114C274.562 196.215 276.561 203.045 284.336 203.045C292.111 203.045 294.184 196.215 294.258 184.114C294.406 165.554 292.185 156.868 284.336 156.868Z" fill="#713E5A"/>
<path d="M375.042 194.582C375.042 192.355 373.561 189.905 373.561 188.272C373.561 186.787 374.449 185.451 376.301 185.451C378.966 185.451 379.485 186.861 379.485 192.578C379.485 203.565 378.152 209.876 366.378 209.95C357.937 209.95 353.791 207.277 353.791 200.076C353.791 197.7 354.087 195.028 354.087 192.132C354.087 189.757 352.828 188.272 349.052 188.272C344.683 188.272 342.314 190.128 342.314 193.469C342.314 195.176 342.388 197.552 342.462 198.962C342.61 202.377 343.054 203.565 345.423 203.565C345.868 203.565 347.127 203.417 347.793 203.417C349.274 203.417 350.088 204.753 350.088 206.164C350.088 207.426 349.274 208.985 347.793 208.985C345.423 208.985 338.611 208.836 333.946 208.836C329.281 208.836 321.877 208.985 319.433 208.985C317.73 208.985 317.064 207.723 317.064 206.164C317.064 204.605 318.101 203.342 319.433 203.342C319.952 203.342 320.84 203.639 321.136 203.639C323.358 203.639 323.802 202.155 323.95 197.923C324.098 192.652 324.394 185.302 324.394 177.804C324.394 172.978 324.246 168.227 323.95 163.995C323.802 161.174 323.58 158.353 321.359 158.353C320.618 158.353 319.952 158.65 319.433 158.65C317.73 158.65 317.064 157.388 317.064 155.829C317.064 154.27 318.101 153.008 319.433 153.008C323.876 153.008 328.319 153.156 333.28 153.156C339.426 153.156 351.273 152.637 356.826 152.637C368.007 152.637 374.672 157.017 374.672 166.891C374.672 178.918 366.23 181.219 356.975 182.63C356.012 182.778 355.494 183.446 355.494 184.114C355.494 184.634 356.086 185.376 357.197 185.376C364.453 185.376 368.155 187.01 368.822 194.879C368.97 197.106 370.229 198.146 372.228 198.146C374.449 198.146 375.19 196.735 375.19 194.582H375.042ZM348.83 158.056C342.906 158.056 342.017 160.283 342.017 177.656C342.017 181.145 342.536 181.813 343.943 181.813C352.31 181.813 356.234 177.433 356.234 168.969C356.234 161.026 354.605 157.982 348.83 157.982V158.056Z" fill="#713E5A"/>
<path d="M386.223 209.875C384.594 209.875 383.261 208.985 383.261 207.351C383.261 205.421 383.779 200.076 383.779 196.586C383.779 193.394 383.261 190.944 383.261 189.459C383.261 187.603 384.001 186.193 386.445 186.193C393.035 186.193 399.699 204.085 412.213 204.085C415.619 204.085 418.877 202.229 418.877 197.923C418.877 193.988 416.803 191.612 404.956 188.717C389.407 184.857 384.297 178.843 384.297 168.747C384.297 159.838 390.591 151.449 405.178 151.449C415.989 151.449 419.543 157.165 422.801 157.165C424.134 157.165 425.023 156.646 425.023 155.68C425.023 154.938 424.874 154.493 424.874 153.899C424.874 152.191 426.059 151.3 427.466 151.3C429.317 151.3 430.132 152.117 430.132 154.493C430.132 157.239 429.836 159.392 429.836 162.659C429.836 164.738 429.984 168.301 429.984 169.489C429.984 171.642 429.021 172.978 427.17 172.978C419.247 172.978 413.916 157.165 404.29 157.165C399.995 157.165 397.255 159.318 397.255 162.956C397.255 166.371 399.181 168.895 410.065 171.939C426.281 176.468 432.427 181.664 432.427 192.949C432.427 204.233 423.542 210.247 412.435 210.247C400.365 210.247 395.774 203.565 391.48 203.565C389.703 203.565 388.814 204.382 388.814 205.644C388.814 206.089 388.962 206.832 388.962 207.351C388.962 208.985 387.778 209.875 386.297 209.875H386.223Z" fill="#713E5A"/>
<path d="M70.4917 280.403C70.4917 278.77 71.5283 277.582 72.8612 277.582C73.4535 277.582 74.6382 277.879 75.0085 277.879C77.2298 277.879 77.6741 276.394 77.8222 272.163C78.1184 266.817 78.2665 259.542 78.2665 252.044C78.2665 247.218 78.1184 242.467 77.8222 238.235C77.6741 235.414 77.452 232.593 75.2306 232.593C74.3421 232.593 73.4535 232.89 72.8612 232.89C71.1581 232.89 70.4917 231.628 70.4917 230.069C70.4917 228.51 71.5283 227.248 72.8612 227.248C77.452 227.248 82.0428 227.396 87.152 227.396C92.5573 227.396 103.146 226.876 108.033 226.876C119.954 226.876 127.137 232.296 127.137 244.694C127.137 262.437 119.436 265.852 108.773 268.005C96.7039 270.381 95.9634 270.678 95.9634 274.241C95.9634 276.914 96.7779 277.879 99.3695 277.879C100.776 277.879 104.701 277.137 106.922 277.137C108.625 277.137 109.514 278.547 109.514 280.403C109.514 281.665 108.625 283.224 106.922 283.224C103.664 283.224 94.2604 283.076 87.8184 283.076C82.6352 283.076 75.4528 283.224 72.8612 283.224C71.1581 283.224 70.4917 281.962 70.4917 280.403ZM102.924 232.667C96.852 232.667 96.1115 236.082 96.1115 261.546C96.1115 264.145 97.0741 264.664 99.2955 264.664C106.33 264.664 109.514 258.057 109.514 245.288C109.514 236.231 108.181 232.741 102.924 232.741V232.667Z" fill="#713E5A"/>
<path d="M125.433 283.224C123.952 283.224 123.212 282.63 123.212 280.7C123.212 274.909 139.132 250.782 139.132 236.75C139.132 233.484 136.762 232.593 135.207 232.593C134.319 232.593 133.282 232.964 132.468 232.964C130.542 232.964 129.506 231.479 129.506 229.92C129.506 228.51 130.468 227.099 132.468 227.099C135.504 227.099 146.314 227.693 152.238 227.693C157.717 227.693 162.9 227.173 164.159 227.173C166.381 227.173 168.084 228.435 168.084 231.553C168.084 242.689 176.229 267.189 181.634 276.988C182.819 279.067 183.485 279.958 183.485 281.146C183.485 282.333 182.745 283.299 181.412 283.299C179.265 283.299 174.229 282.705 168.824 282.705C164.381 282.705 154.163 283.299 153.2 283.299C151.349 283.299 150.683 282.036 150.683 280.477C150.683 278.918 151.645 277.656 153.2 277.656C153.941 277.656 154.681 277.953 156.607 277.953C158.68 277.953 160.235 276.543 160.235 272.757C160.235 267.04 159.198 266.595 150.09 266.595C142.094 266.595 141.279 267.634 141.279 270.307C141.279 275.652 146.61 276.988 146.61 280.403C146.61 282.036 145.87 283.373 144.241 283.373C142.982 283.373 136.984 282.779 134.097 282.779C130.839 282.779 127.136 283.373 125.359 283.373L125.433 283.224ZM148.61 260.952C156.532 260.952 157.199 259.542 157.347 257.24C157.421 253.528 155.496 243.655 153.052 238.829C151.571 235.785 150.905 235.191 149.498 235.191C145.203 235.191 142.02 246.698 142.02 256.201C142.02 259.765 142.464 261.027 148.61 261.027V260.952Z" fill="#713E5A"/>
<path d="M181.856 280.403C181.856 278.77 182.893 277.582 184.226 277.582C184.818 277.582 186.003 277.879 186.373 277.879C188.595 277.879 189.039 276.394 189.187 272.163C189.483 266.817 189.631 259.542 189.631 252.044C189.631 247.218 189.483 242.467 189.187 238.235C189.039 235.414 188.817 232.593 186.595 232.593C185.707 232.593 184.818 232.89 184.226 232.89C182.523 232.89 181.856 231.628 181.856 230.069C181.856 228.51 182.893 227.248 184.226 227.248C188.817 227.248 193.408 227.396 198.517 227.396C203.922 227.396 214.511 226.876 219.398 226.876C231.319 226.876 238.501 232.296 238.501 244.694C238.501 262.437 230.801 265.852 220.138 268.005C208.069 270.381 207.328 270.678 207.328 274.241C207.328 276.914 208.143 277.879 210.734 277.879C212.141 277.879 216.066 277.137 218.287 277.137C219.99 277.137 220.879 278.547 220.879 280.403C220.879 281.665 219.99 283.224 218.287 283.224C215.029 283.224 205.625 283.076 199.183 283.076C194 283.076 186.818 283.224 184.226 283.224C182.523 283.224 181.856 281.962 181.856 280.403ZM214.288 232.667C208.217 232.667 207.476 236.082 207.476 261.546C207.476 264.145 208.439 264.664 210.66 264.664C217.695 264.664 220.879 258.057 220.879 245.288C220.879 236.231 219.546 232.741 214.288 232.741V232.667Z" fill="#713E5A"/>
<path d="M244.203 277.805C246.424 277.805 246.869 276.32 247.017 272.088C247.165 266.669 247.461 259.096 247.461 251.227C247.461 246.698 247.313 242.021 247.017 238.161C246.869 235.34 246.646 232.519 244.425 232.519C243.685 232.519 243.018 232.816 242.574 232.816C240.871 232.816 240.204 231.553 240.204 229.994C240.204 228.435 241.241 227.173 242.574 227.173C247.165 227.173 251.607 227.545 256.791 227.545C265.232 227.545 285.002 227.173 290.333 227.173C292.481 227.173 293.888 228.361 293.888 230.217C293.888 231.628 293.591 234.152 293.591 237.493C293.591 240.091 293.962 242.764 293.962 243.803C293.962 245.659 293.073 247.218 291.37 247.218C285.669 247.218 282.559 232.816 269.971 232.816C266.935 232.816 266.046 235.562 265.602 238.384C265.158 241.502 265.084 245.139 265.01 248.777C265.01 250.113 265.75 250.93 266.861 250.93C272.933 250.93 276.339 244.545 280.559 244.545C281.596 244.545 282.41 245.288 282.41 247.218C282.41 248.926 282.114 250.782 282.114 253.974C282.114 258.502 282.188 260.284 282.188 261.918C282.188 263.996 281.152 264.293 280.041 264.293C275.969 264.293 274.117 256.35 267.009 256.35C265.528 256.35 264.936 257.24 264.936 258.725C264.936 263.699 264.936 268.896 265.232 272.088C265.602 276.023 266.491 277.434 269.749 277.434C283.373 277.434 286.113 262.437 292.036 262.437C293.665 262.437 294.258 263.774 294.258 265.258C294.258 266.298 293.739 269.119 293.739 271.643C293.739 275.503 294.258 278.176 294.258 279.809C294.258 281.739 292.999 283.076 291.074 283.076C284.706 283.076 268.342 282.556 256.865 282.556C251.978 282.556 244.869 283.076 242.5 283.076C240.797 283.076 240.13 281.814 240.13 280.106C240.13 278.473 241.167 277.359 242.5 277.359C242.944 277.359 243.833 277.656 244.129 277.656L244.203 277.805Z" fill="#713E5A"/>
<path d="M356.678 268.822C356.678 266.595 355.198 264.145 355.198 262.512C355.198 261.027 356.086 259.69 357.937 259.69C360.603 259.69 361.121 261.101 361.121 266.817C361.121 277.805 359.788 284.115 348.015 284.189C339.574 284.189 335.427 281.517 335.427 274.316C335.427 271.94 335.724 269.267 335.724 266.372C335.724 263.996 334.465 262.512 330.688 262.512C326.32 262.512 323.95 264.367 323.95 267.708C323.95 269.416 324.024 271.791 324.098 273.202C324.246 276.617 324.691 277.805 327.06 277.805C327.504 277.805 328.763 277.656 329.43 277.656C330.911 277.656 331.725 278.993 331.725 280.403C331.725 281.665 330.911 283.224 329.43 283.224C327.06 283.224 320.248 283.076 315.583 283.076C310.918 283.076 303.514 283.224 301.07 283.224C299.367 283.224 298.701 281.962 298.701 280.403C298.701 278.844 299.737 277.582 301.07 277.582C301.588 277.582 302.477 277.879 302.773 277.879C304.995 277.879 305.439 276.394 305.587 272.163C305.735 266.892 306.031 259.542 306.031 252.044C306.031 247.218 305.883 242.467 305.587 238.235C305.439 235.414 305.217 232.593 302.995 232.593C302.255 232.593 301.588 232.89 301.07 232.89C299.367 232.89 298.701 231.628 298.701 230.069C298.701 228.51 299.737 227.248 301.07 227.248C305.513 227.248 309.956 227.396 314.917 227.396C321.063 227.396 332.91 226.876 338.463 226.876C349.644 226.876 356.308 231.257 356.308 241.13C356.308 253.157 347.867 255.459 338.611 256.869C337.649 257.018 337.13 257.686 337.13 258.354C337.13 258.874 337.723 259.616 338.833 259.616C346.09 259.616 349.792 261.249 350.459 269.119C350.607 271.346 351.866 272.385 353.865 272.385C356.086 272.385 356.827 270.975 356.827 268.822H356.678ZM330.466 232.296C324.543 232.296 323.654 234.523 323.654 251.895C323.654 255.385 324.172 256.053 325.579 256.053C333.946 256.053 337.871 251.673 337.871 243.209C337.871 235.266 336.242 232.222 330.466 232.222V232.296Z" fill="#713E5A"/>
<path d="M208.957 357.761C207.92 361.028 206.44 362.364 205.033 362.364C201.33 362.364 197.85 362.067 196.073 362.067C192.815 362.067 188.669 362.438 187.04 362.438C185.781 362.438 185.114 361.547 185.114 360.211C185.114 353.901 208.809 337.939 208.809 316.558C208.809 315.222 208.439 314.034 207.032 314.034C199.405 314.034 196.221 352.936 172.897 352.936C160.383 352.936 154.533 346.328 154.533 335.118C154.533 325.021 162.086 316.187 177.562 316.187C179.339 316.187 180.598 317.523 180.598 319.157C180.598 320.864 179.635 322.275 179.635 324.428C179.635 326.209 180.375 327.694 182.597 327.694C185.114 327.694 186.595 324.947 186.595 319.899C186.595 313.589 183.189 308.763 177.784 308.763C167.121 308.763 155.2 329.179 138.095 329.179C128.914 329.179 123.73 323.759 123.73 315.816C123.73 308.392 127.877 301.116 140.539 301.116C147.055 301.116 150.017 303.195 150.017 306.016C150.017 307.501 148.98 308.763 147.055 308.763C143.575 308.763 140.095 305.348 136.318 305.348C134.097 305.348 133.282 306.387 133.282 307.575C133.282 310.619 136.911 312.846 143.427 312.846C153.127 312.846 163.641 301.116 176.525 301.116C186.447 301.116 191.63 306.462 191.63 318.488C191.63 328.733 188.372 333.633 181.412 333.633C177.784 333.633 174.23 332.148 174.23 327.026C174.23 323.462 176.821 322.052 176.821 320.493C176.821 319.676 176.081 319.305 175.785 319.305C171.934 319.305 169.12 323.611 169.12 329.105C169.12 336.826 173.045 340.018 177.932 340.018C202.293 340.018 192.445 300.819 206.069 300.819C211.845 300.819 212.659 310.767 212.659 325.467C212.659 341.948 211.03 351.896 209.105 357.613L208.957 357.761Z" fill="#713E5A"/>
<path d="M226.284 300.968C239.982 300.968 230.134 340.166 254.421 340.166C259.308 340.166 263.233 336.974 263.233 329.253C263.233 323.759 260.419 319.453 256.568 319.453C256.198 319.453 255.532 319.825 255.532 320.641C255.532 322.126 258.123 323.611 258.123 327.174C258.123 332.223 254.569 333.782 250.941 333.782C243.981 333.782 240.723 328.882 240.723 318.637C240.723 306.61 245.906 301.265 255.828 301.265C268.712 301.265 279.301 312.995 288.926 312.995C295.442 312.995 299.071 310.767 299.071 307.724C299.071 306.536 298.256 305.496 296.035 305.496C292.184 305.496 288.778 308.911 285.298 308.911C283.447 308.911 282.336 307.649 282.336 306.165C282.336 303.343 285.372 301.265 291.814 301.265C304.402 301.265 308.623 308.54 308.623 315.964C308.623 323.908 303.365 329.327 294.258 329.327C277.153 329.327 265.232 308.911 254.569 308.911C249.164 308.911 245.758 313.737 245.758 320.047C245.758 325.096 247.239 327.843 249.756 327.843C251.978 327.843 252.718 326.358 252.718 324.576C252.718 322.423 251.755 321.012 251.755 319.305C251.755 317.672 253.014 316.335 254.791 316.335C270.267 316.335 277.82 325.244 277.82 335.266C277.82 346.477 271.97 353.084 259.456 353.084C236.206 353.084 233.022 314.182 225.321 314.182C223.914 314.182 223.544 315.37 223.544 316.707C223.544 338.088 247.239 354.049 247.239 360.36C247.239 361.696 246.498 362.587 245.314 362.587C243.61 362.587 239.538 362.215 236.28 362.215C234.503 362.215 231.023 362.512 227.32 362.512C225.914 362.512 224.507 361.176 223.396 357.91C221.471 352.193 219.842 342.245 219.842 325.764C219.842 311.064 220.656 301.116 226.432 301.116L226.284 300.968Z" fill="#713E5A"/>
</svg>
