<svg width="1070" height="938" viewBox="0 0 1070 938" fill="none" xmlns="http://www.w3.org/2000/svg">
<path d="M-560.447 -249C-477.687 -236.543 -205.021 -172.962 -44.43 -120.28C335.384 5.06674 816.377 271.071 787.32 446.504C781.872 479.204 760.079 501.262 745.032 516.574C681.47 580.675 567.059 598.062 370.148 565.104C-0.585473 511.124 -577.311 250.569 -720 184.912C-720 184.912 -617.523 -94.5876 -560.447 -249Z" fill="#631A86"/>
<path d="M339.275 543.823C297.247 537.076 204.628 519.948 -15.3732 448.581C-121.742 414.065 -194.903 390.189 -295.045 349.964C-411.791 302.992 -592.358 222.801 -586.65 206.711C-584.575 200.742 -558.112 203.857 -481.579 221.504C-276.884 268.995 -201.648 309.48 -99.1708 336.989C157.151 405.501 383.12 337.767 409.582 417.698C414.512 433.269 412.695 455.069 429.818 489.065C447.719 525.138 474.182 548.495 493.38 562.249C457.318 559.394 403.615 554.204 339.275 543.823Z" fill="#3B1050"/>
<path d="M592.484 132.23C579.772 137.42 562.649 145.984 546.823 161.815C529.182 179.203 440.455 204.635 462.766 369.947C486.115 541.228 550.974 555.761 571.729 565.623C581.328 570.035 604.158 578.858 610.904 578.858C611.682 581.972 592.484 599.619 588.592 602.734C557.201 627.647 398.426 617.786 295.69 590.277C267.411 582.751 246.656 576.522 205.666 563.287C148.59 544.861 100.075 529.031 101.891 518.131C102.929 512.941 114.344 512.162 122.646 509.567C198.92 484.394 153.26 242.006 229.793 121.33C243.803 99.0119 277.01 58.0083 271.043 7.66205C268.968 -8.16846 264.298 -20.3658 270.784 -26.5942C277.789 -33.3416 292.058 -27.3727 371.704 7.40254C402.577 20.8974 427.483 30.759 473.662 56.4512C490.007 65.7938 503.238 72.2817 515.431 77.991C540.856 89.9288 544.748 88.6312 556.941 96.1572C566.8 102.126 580.031 112.766 592.484 132.23Z" fill="#631A86"/>
<path d="M437.083 397.715C444.607 425.483 453.687 447.283 461.21 462.854C467.437 475.83 474.182 489.584 485.597 505.934C492.083 515.017 504.277 531.626 524.253 547.975C548.64 567.958 574.324 578.339 594.301 584.308C587.296 590.536 581.07 594.429 577.697 596.764C563.168 605.328 529.701 620.899 397.13 600.398C392.46 599.619 386.752 598.841 380.266 597.543C358.993 593.65 334.606 587.422 231.351 562.768C153.001 544.082 100.595 531.885 101.114 518.909C101.633 509.826 127.057 512.162 146.515 489.325C151.704 483.096 158.968 472.456 167.529 419.255C170.383 401.867 173.496 378.511 175.572 350.743C198.402 360.345 233.167 373.061 277.789 379.549C306.846 383.701 325.007 382.923 368.851 384.739C397.13 385.777 385.715 393.822 436.823 397.715H437.083Z" fill="#3B1050"/>
<path d="M267.671 -15.4351C268.449 -11.5423 269.227 -5.83294 270.006 0.914493C271.562 22.9734 267.411 44.5133 257.293 68.1293C241.987 103.943 227.977 109.652 209.298 140.534C192.434 168.303 186.986 191.659 179.203 224.877C147.812 358.269 189.321 436.124 137.175 490.882C127.057 501.522 116.679 507.491 110.712 510.865C113.047 512.681 115.123 514.498 117.458 516.314C118.495 515.795 121.609 514.498 124.722 512.681C227.458 455.328 149.628 254.722 231.869 124.444C241.468 109.392 278.567 65.5341 273.119 10.7761C272.081 -0.642618 269.227 -9.46618 267.671 -15.4351Z" fill="#3B1050"/>
<path d="M-611.815 231.625C-548.513 84.9979 -485.47 -61.629 -422.168 -208.256C-339.408 -195.799 -204.761 -170.366 -44.1702 -117.685C335.643 7.40241 816.637 273.666 787.58 449.1C782.132 481.799 760.339 503.858 745.292 519.169C681.73 583.27 567.319 600.657 370.408 567.699C-2.40113 505.415 -469.125 297.023 -611.815 231.625Z" fill="#631A86"/>
<path d="M325.057 556.885C283.029 550.137 190.41 533.009 -29.5909 461.642C-135.959 427.126 -209.12 403.251 -309.262 363.026C-426.008 316.053 -606.575 235.863 -600.868 219.772C-598.792 213.804 -572.33 216.918 -495.796 234.565C-291.102 282.056 -215.866 322.541 -113.389 350.05C142.934 418.562 368.902 350.828 395.364 430.759C400.294 446.33 398.478 468.13 415.6 502.126C433.501 538.199 459.964 561.556 479.162 575.31C443.101 572.456 389.397 567.265 325.057 556.885Z" fill="#3B1050"/>
<path d="M592.484 134.825C579.772 140.015 562.649 148.579 546.823 164.41C529.182 181.797 440.455 207.23 462.766 372.542C486.115 543.823 550.974 558.356 571.729 568.218C581.328 572.629 604.158 581.453 610.904 581.453C611.682 584.567 592.484 602.214 588.592 605.329C557.201 630.242 398.426 620.381 295.69 592.872C267.411 585.346 246.656 579.117 205.666 565.882C148.59 547.456 100.075 531.626 101.891 520.726C102.929 515.536 114.344 514.757 122.646 512.162C198.92 486.989 153.26 244.6 229.793 123.925C243.803 101.607 277.01 60.6032 271.043 10.257C268.968 -5.57349 264.298 -17.7708 270.784 -23.9992C277.789 -30.7466 292.058 -24.7777 371.704 9.99751C402.577 23.4924 427.483 33.354 473.662 59.0461C490.007 68.3887 503.238 74.8766 515.431 80.586C540.856 92.5238 544.748 91.2262 556.941 98.7522C567.059 104.721 580.29 115.361 592.484 134.825Z" fill="#631A86"/>
<path d="M437.342 400.311C444.866 428.079 453.946 449.878 461.47 465.449C467.696 478.425 474.442 492.179 485.857 508.529C492.343 517.612 504.536 534.221 524.513 550.571C548.9 570.554 574.324 592.353 594.301 598.062C587.296 604.291 581.07 608.183 577.697 610.519C563.168 619.083 490.267 629.204 338.757 602.993C230.313 579.637 138.473 546.418 101.633 521.245C102.152 512.162 127.576 514.498 147.034 491.66C152.223 485.432 159.487 474.792 168.048 421.591C170.902 404.203 174.015 380.847 176.091 353.079C198.921 362.681 233.685 375.397 278.308 381.885C307.365 386.037 325.007 394.861 368.851 396.677C397.13 397.715 385.974 396.158 437.342 400.051V400.311Z" fill="#3B1050"/>
<path d="M267.93 -12.8401C268.709 -8.94734 269.487 -3.23797 270.265 3.50946C271.822 25.5684 267.671 47.1082 257.553 70.7242C242.246 106.538 228.237 112.247 209.558 143.129C192.694 170.898 187.246 194.254 179.463 227.472C148.071 360.864 189.581 438.719 137.434 493.477C127.316 504.117 116.939 510.086 110.972 513.459C113.307 515.276 115.382 517.093 117.717 518.909C118.755 518.39 121.868 517.093 124.982 515.276C227.718 457.923 149.887 257.317 232.128 127.039C241.728 111.987 278.827 68.1291 273.379 13.3711C272.341 1.95235 269.487 -6.87121 267.93 -12.8401Z" fill="#3B1050"/>
<path d="M486.894 502.041C472.106 483.615 454.724 444.169 454.724 444.169C450.054 433.529 446.682 421.85 444.087 406.799C424.63 300.137 491.045 166.227 593.263 118.476C610.645 110.431 625.952 106.019 641.258 104.462C688.995 99.2714 740.363 94.3406 926.897 157.403C1012.51 186.209 1036.12 197.888 1051.94 224.877C1072.44 259.393 1075.55 310.777 1057.91 322.196C1047.27 329.203 1029.63 329.982 1029.89 332.577C1029.89 334.134 1037.68 333.355 1042.86 335.431C1072.44 346.591 1066.73 469.861 1033.78 478.944C1026.78 480.761 1015.62 478.425 1015.1 480.501C1014.85 482.058 1021.33 484.134 1025.48 486.47C1042.61 497.11 1043.64 536.816 1032.49 565.882C1028.86 575.484 1016.66 607.924 987.605 614.931C978.265 617.266 969.963 616.228 964.515 614.931C962.699 614.412 975.93 618.564 983.973 626.09C1000.06 641.142 997.204 675.398 985.01 698.495C982.676 702.907 970.223 725.485 943.501 735.606C918.854 744.949 890.576 736.644 834.019 720.035C820.269 715.883 809.113 712.25 792.509 706.54C765.269 697.457 742.957 689.153 727.65 683.443C697.556 670.208 664.089 652.561 629.065 629.204C564.984 586.903 518.805 540.19 486.894 502.041Z" fill="#F8C8C9"/>
<path d="M517.248 840.451C521.658 897.804 509.984 921.16 525.031 929.984C554.347 947.371 590.409 931.541 622.319 897.544C630.362 888.98 654.749 831.108 656.305 794.776C657.343 765.71 656.824 715.623 660.975 675.658C662.791 658.01 665.645 644.256 669.018 632.318C680.433 592.872 692.626 579.636 701.188 553.166C709.23 527.474 707.414 507.491 703.004 468.044C698.334 425.743 690.551 356.452 644.89 282.49C616.612 236.556 583.145 182.836 539.041 185.171C494.937 187.766 465.101 244.86 461.469 251.607C449.535 274.185 447.719 293.909 444.087 332.577C442.012 355.933 436.564 434.567 457.059 508.529C463.804 533.183 472.885 554.204 482.224 575.484C486.635 585.346 490.526 589.239 493.899 599.1C497.79 610.519 500.644 620.64 502.72 630.761C507.908 655.934 508.427 676.436 508.687 683.962C509.465 705.502 509.984 737.423 507.908 778.426C511.022 792.959 515.173 814.499 517.248 840.451Z" fill="#F8C8C9"/>
<path d="M829.09 713.288C830.128 710.692 810.411 703.686 741.661 667.353C664.608 626.609 644.372 611.298 635.033 619.343C619.207 633.097 653.193 701.09 658.641 699.793C660.198 699.274 658.901 692.526 660.717 674.36C661.755 665.018 663.052 657.232 664.089 651.523C665.387 652.301 666.943 653.08 668.759 654.118C747.628 699.014 827.015 718.478 829.09 713.288Z" fill="#F0B7B9"/>
<path d="M1037.68 328.944C1034.3 327.905 1030.67 329.463 1029.37 332.317C1028.34 334.393 1028.6 337.508 1030.41 339.324C1018.74 333.355 1009.14 327.906 1001.87 324.013C986.048 315.189 976.189 309.739 966.59 303.511C959.586 299.099 947.911 291.833 948.43 291.054C948.949 290.276 963.218 298.58 984.491 307.404C1010.69 318.822 1040.27 329.722 1037.68 328.944Z" fill="#F0B7B9"/>
<path d="M1019.26 477.387C1015.11 476.868 1011.21 478.425 1010.44 481.02C1009.4 483.096 1010.44 485.432 1012.77 487.249C998.502 483.097 986.568 479.463 977.487 476.609C957.77 470.64 945.836 466.487 933.902 462.335C925.081 459.221 910.553 454.031 910.812 453.252C911.331 452.474 928.973 458.442 954.657 464.152C986.827 470.899 1022.37 477.647 1019.26 477.387Z" fill="#F0B7B9"/>
<path d="M966.85 607.145C962.699 606.367 958.548 608.184 957.25 611.298C956.213 613.633 956.991 616.748 959.326 618.564C944.538 613.374 932.345 608.703 923.005 605.069C902.769 597.284 890.576 592.353 878.123 586.903C869.042 583.01 854.255 576.263 854.514 575.484C855.033 574.446 873.193 582.232 899.915 589.498C933.123 598.841 969.963 607.664 966.85 607.145Z" fill="#F0B7B9"/>
<path d="M507.909 770.641C508.428 761.039 508.946 746.506 508.946 729.118C508.946 729.118 509.206 699.533 507.649 671.765C504.795 619.083 467.696 549.533 451.611 502.041C415.031 393.563 452.908 291.833 453.687 292.092C454.465 292.092 431.635 359.398 451.611 444C461.729 487.08 464 493.5 508.946 610.5C519.324 640.085 523 664.5 523 702C518.849 729.768 516.47 757.146 507.909 770.641Z" fill="#F0B7B9"/>
</svg>
