<svg width="1790" height="1187" viewBox="0 0 1790 1187" fill="none" xmlns="http://www.w3.org/2000/svg">
<path d="M159.553 0C242.313 12.4568 514.979 76.0384 675.57 128.72C1055.38 254.067 1536.38 520.071 1507.32 695.504C1501.87 728.204 1480.08 750.262 1465.03 765.574C1401.47 829.675 1287.06 847.062 1090.15 814.104C719.415 760.124 142.689 499.569 -0.000152284 433.912C-0.000152284 433.912 102.477 154.412 159.553 0Z" fill="#631A86"/>
<path d="M1059.28 792.823C1017.25 786.076 924.628 768.948 704.627 697.581C598.258 663.065 525.097 639.19 424.955 598.965C308.209 551.992 127.642 471.801 133.35 455.711C135.425 449.743 161.888 452.857 238.421 470.504C443.116 517.995 518.352 558.48 620.829 585.989C877.151 654.501 1103.12 586.767 1129.58 666.698C1134.51 682.269 1132.7 704.069 1149.82 738.065C1167.72 774.138 1194.18 797.495 1213.38 811.249C1177.32 808.394 1123.62 803.204 1059.28 792.823Z" fill="#3B1050"/>
<path d="M1312.48 381.23C1299.77 386.42 1282.65 394.984 1266.82 410.815C1249.18 428.203 1160.45 453.635 1182.77 618.947C1206.12 790.228 1270.97 804.761 1291.73 814.623C1301.33 819.035 1324.16 827.858 1330.9 827.858C1331.68 830.972 1312.48 848.619 1308.59 851.734C1277.2 876.647 1118.43 866.786 1015.69 839.277C987.411 831.751 966.657 825.522 925.666 812.287C868.59 793.861 820.076 778.031 821.892 767.131C822.929 761.941 834.344 761.162 842.646 758.567C918.92 733.394 873.26 491.006 949.793 370.33C963.803 348.012 997.011 307.008 991.044 256.662C988.968 240.832 984.298 228.634 990.784 222.406C997.789 215.658 1012.06 221.627 1091.7 256.403C1122.58 269.897 1147.48 279.759 1193.66 305.451C1210.01 314.794 1223.24 321.282 1235.43 326.991C1260.86 338.929 1264.75 337.631 1276.94 345.157C1286.8 351.126 1300.03 361.766 1312.48 381.23Z" fill="#631A86"/>
<path d="M1157.08 646.715C1164.61 674.483 1173.69 696.283 1181.21 711.854C1187.44 724.83 1194.18 738.584 1205.6 754.934C1212.08 764.017 1224.28 780.626 1244.25 796.975C1268.64 816.958 1294.32 827.339 1314.3 833.308C1307.3 839.536 1301.07 843.429 1297.7 845.764C1283.17 854.328 1249.7 869.899 1117.13 849.398C1112.46 848.619 1106.75 847.841 1100.27 846.543C1078.99 842.65 1054.61 836.422 951.351 811.768C873.001 793.082 820.595 780.885 821.114 767.909C821.633 758.826 847.057 761.162 866.515 738.325C871.704 732.096 878.968 721.456 887.529 668.255C890.383 650.867 893.496 627.511 895.572 599.743C918.402 609.345 953.167 622.061 997.789 628.549C1026.85 632.701 1045.01 631.923 1088.85 633.739C1117.13 634.777 1105.71 642.822 1156.82 646.715H1157.08Z" fill="#3B1050"/>
<path d="M987.671 233.565C988.449 237.458 989.228 243.167 990.006 249.914C991.562 271.973 987.412 293.513 977.294 317.129C961.987 352.943 947.977 358.652 929.298 389.534C912.435 417.303 906.987 440.659 899.203 473.877C867.812 607.269 909.321 685.124 857.175 739.882C847.057 750.522 836.68 756.491 830.713 759.865C833.047 761.681 835.123 763.498 837.458 765.314C838.496 764.795 841.609 763.498 844.722 761.681C947.458 704.328 869.628 503.722 951.869 373.444C961.468 358.392 998.567 314.534 993.119 259.776C992.081 248.357 989.228 239.534 987.671 233.565Z" fill="#3B1050"/>
<path d="M108.185 480.625C171.487 333.998 234.53 187.371 297.832 40.7441C380.592 53.2009 515.239 78.6336 675.83 131.315C1055.64 256.402 1536.64 522.666 1507.58 698.1C1502.13 730.799 1480.34 752.858 1465.29 768.169C1401.73 832.27 1287.32 849.657 1090.41 816.699C717.599 754.415 250.875 546.023 108.185 480.625Z" fill="#631A86"/>
<path d="M1045.06 805.885C1003.03 799.137 910.411 782.009 690.409 710.642C584.041 676.126 510.88 652.251 410.738 612.026C293.992 565.053 113.425 484.863 119.132 468.772C121.208 462.804 147.67 465.918 224.204 483.565C428.898 531.056 504.135 571.541 606.612 599.05C862.934 667.562 1088.9 599.828 1115.36 679.759C1120.29 695.33 1118.48 717.13 1135.6 751.126C1153.5 787.199 1179.96 810.556 1199.16 824.31C1163.1 821.456 1109.4 816.265 1045.06 805.885Z" fill="#3B1050"/>
<path d="M1312.48 383.825C1299.77 389.016 1282.65 397.58 1266.82 413.41C1249.18 430.798 1160.45 456.23 1182.77 621.542C1206.12 792.823 1270.97 807.356 1291.73 817.218C1301.33 821.63 1324.16 830.453 1330.9 830.453C1331.68 833.568 1312.48 851.215 1308.59 854.329C1277.2 879.242 1118.43 869.381 1015.69 841.872C987.411 834.346 966.657 828.118 925.666 814.882C868.59 796.457 820.076 780.626 821.892 769.726C822.929 764.536 834.344 763.758 842.646 761.162C918.92 735.989 873.26 493.601 949.793 372.926C963.803 350.607 997.011 309.603 991.044 259.257C988.968 243.427 984.298 231.229 990.784 225.001C997.789 218.254 1012.06 224.223 1091.7 258.998C1122.58 272.493 1147.48 282.354 1193.66 308.046C1210.01 317.389 1223.24 323.877 1235.43 329.586C1260.86 341.524 1264.75 340.226 1276.94 347.752C1287.06 353.721 1300.29 364.361 1312.48 383.825Z" fill="#631A86"/>
<path d="M1157.34 649.311C1164.87 677.079 1173.95 698.878 1181.47 714.449C1187.7 727.425 1194.44 741.179 1205.86 757.529C1212.34 766.612 1224.54 783.221 1244.51 799.571C1268.9 819.554 1294.32 841.353 1314.3 847.062C1307.3 853.291 1301.07 857.183 1297.7 859.519C1283.17 868.083 1210.27 878.204 1058.76 851.993C950.313 828.637 858.473 795.418 821.633 770.245C822.152 761.162 847.576 763.498 867.034 740.66C872.223 734.432 879.487 723.792 888.048 670.591C890.902 653.203 894.015 629.847 896.091 602.079C918.921 611.681 953.685 624.397 998.308 630.885C1027.37 635.037 1045.01 643.861 1088.85 645.677C1117.13 646.715 1105.97 645.158 1157.34 649.051V649.311Z" fill="#3B1050"/>
<path d="M987.931 236.16C988.709 240.053 989.488 245.762 990.266 252.51C991.822 274.569 987.672 296.108 977.554 319.724C962.247 355.538 948.237 361.247 929.558 392.13C912.695 419.898 907.247 443.254 899.463 476.473C868.072 609.864 909.581 687.719 857.435 742.477C847.317 753.117 836.94 759.086 830.973 762.46C833.307 764.276 835.383 766.093 837.718 767.91C838.756 767.391 841.869 766.093 844.982 764.276C947.718 706.923 869.888 506.317 952.129 376.04C961.728 360.988 998.827 317.129 993.379 262.371C992.341 250.953 989.488 242.129 987.931 236.16Z" fill="#3B1050"/>
<path d="M1206.89 751.041C1192.11 732.615 1174.72 693.169 1174.72 693.169C1170.05 682.529 1166.68 670.85 1164.09 655.799C1144.63 549.137 1211.05 415.227 1313.26 367.476C1330.65 359.431 1345.95 355.019 1361.26 353.462C1408.99 348.271 1460.36 343.341 1646.9 406.403C1732.51 435.209 1756.12 446.888 1771.95 473.877C1792.44 508.393 1795.55 559.777 1777.91 571.196C1767.28 578.203 1749.63 578.982 1749.89 581.577C1749.89 583.134 1757.68 582.355 1762.87 584.431C1792.44 595.591 1786.73 718.861 1753.78 727.944C1746.78 729.761 1735.62 727.425 1735.11 729.501C1734.85 731.058 1741.33 733.134 1745.48 735.47C1762.61 746.11 1763.64 785.816 1752.49 814.882C1748.86 824.484 1736.66 856.924 1707.61 863.931C1698.27 866.266 1689.96 865.228 1684.52 863.931C1682.7 863.412 1695.93 867.564 1703.97 875.09C1720.06 890.142 1717.2 924.398 1705.01 947.495C1702.68 951.907 1690.22 974.485 1663.5 984.606C1638.85 993.949 1610.58 985.644 1554.02 969.035C1540.27 964.883 1529.11 961.25 1512.51 955.54C1485.27 946.457 1462.96 938.153 1447.65 932.443C1417.56 919.208 1384.09 901.561 1349.07 878.204C1284.98 835.903 1238.81 789.19 1206.89 751.041Z" fill="#F8C8C9"/>
<path d="M1237.25 1089.45C1241.66 1146.8 1229.98 1170.16 1245.03 1178.98C1274.35 1196.37 1310.41 1180.54 1342.32 1146.54C1350.36 1137.98 1374.75 1080.11 1376.31 1043.78C1377.34 1014.71 1376.83 964.623 1380.98 924.658C1382.79 907.01 1385.65 893.256 1389.02 881.318C1400.43 841.872 1412.63 828.636 1421.19 802.166C1429.23 776.474 1427.41 756.491 1423 717.044C1418.33 674.743 1410.55 605.452 1364.89 531.49C1336.61 485.556 1303.15 431.836 1259.04 434.171C1214.94 436.766 1185.1 493.86 1181.47 500.607C1169.54 523.185 1167.72 542.909 1164.09 581.577C1162.01 604.933 1156.56 683.567 1177.06 757.529C1183.81 782.183 1192.89 803.204 1202.22 824.484C1206.64 834.346 1210.53 838.239 1213.9 848.1C1217.79 859.519 1220.64 869.64 1222.72 879.761C1227.91 904.934 1228.43 925.436 1228.69 932.962C1229.47 954.502 1229.98 986.423 1227.91 1027.43C1231.02 1041.96 1235.17 1063.5 1237.25 1089.45Z" fill="#F8C8C9"/>
<path d="M1549.09 962.288C1550.13 959.692 1530.41 952.686 1461.66 916.353C1384.61 875.609 1364.37 860.298 1355.03 868.343C1339.21 882.097 1373.19 950.09 1378.64 948.793C1380.2 948.274 1378.9 941.526 1380.72 923.36C1381.75 914.018 1383.05 906.232 1384.09 900.523C1385.39 901.301 1386.94 902.08 1388.76 903.118C1467.63 948.014 1547.02 967.478 1549.09 962.288Z" fill="#F0B7B9"/>
<path d="M1757.68 577.944C1754.3 576.905 1750.67 578.463 1749.37 581.317C1748.34 583.393 1748.6 586.508 1750.41 588.324C1738.74 582.355 1729.14 576.906 1721.87 573.013C1706.05 564.189 1696.19 558.739 1686.59 552.511C1679.59 548.099 1667.91 540.833 1668.43 540.054C1668.95 539.276 1683.22 547.58 1704.49 556.404C1730.69 567.822 1760.27 578.722 1757.68 577.944Z" fill="#F0B7B9"/>
<path d="M1739.26 726.387C1735.11 725.868 1731.21 727.425 1730.44 730.02C1729.4 732.096 1730.44 734.432 1732.77 736.249C1718.5 732.096 1706.57 728.463 1697.49 725.608C1677.77 719.639 1665.84 715.487 1653.9 711.335C1645.08 708.221 1630.55 703.03 1630.81 702.252C1631.33 701.473 1648.97 707.442 1674.66 713.152C1706.83 719.899 1742.37 726.646 1739.26 726.387Z" fill="#F0B7B9"/>
<path d="M1686.85 856.145C1682.7 855.367 1678.55 857.183 1677.25 860.297C1676.21 862.633 1676.99 865.747 1679.33 867.564C1664.54 862.374 1652.35 857.702 1643.01 854.069C1622.77 846.284 1610.58 841.353 1598.12 835.903C1589.04 832.01 1574.26 825.263 1574.51 824.484C1575.03 823.446 1593.19 831.232 1619.92 838.498C1653.12 847.841 1689.96 856.664 1686.85 856.145Z" fill="#F0B7B9"/>
<path d="M1227.91 1019.64C1228.43 1010.04 1228.95 995.506 1228.95 978.118C1228.95 978.118 1229.21 948.533 1227.65 920.765C1224.8 868.083 1187.7 798.533 1171.61 751.041C1135.03 642.563 1172.91 540.833 1173.69 541.092C1174.47 541.092 1151.63 608.398 1171.61 693C1181.73 736.08 1184 742.5 1228.95 859.5C1239.32 889.085 1243 913.5 1243 951C1238.85 978.768 1236.47 1006.15 1227.91 1019.64Z" fill="#F0B7B9"/>
</svg>
