<?xml version="1.0" encoding="UTF-8" standalone="no"?>
<svg
   width="800"
   height="353"
   viewBox="0 0 800 353"
   fill="none"
   version="1.1"
   id="svg881"
   sodipodi:docname="paper_computer.svg"
   inkscape:version="1.2.2 (732a01da63, 2022-12-09, custom)"
   xmlns:inkscape="http://www.inkscape.org/namespaces/inkscape"
   xmlns:sodipodi="http://sodipodi.sourceforge.net/DTD/sodipodi-0.dtd"
   xmlns="http://www.w3.org/2000/svg"
   xmlns:svg="http://www.w3.org/2000/svg">
  <defs
     id="defs885" />
  <sodipodi:namedview
     id="namedview883"
     pagecolor="#ffffff"
     bordercolor="#000000"
     borderopacity="0.25"
     inkscape:showpageshadow="2"
     inkscape:pageopacity="0.0"
     inkscape:pagecheckerboard="0"
     inkscape:deskcolor="#d1d1d1"
     showgrid="false"
     inkscape:zoom="0.70977223"
     inkscape:cx="309.95859"
     inkscape:cy="190.90631"
     inkscape:window-width="1843"
     inkscape:window-height="852"
     inkscape:window-x="82"
     inkscape:window-y="52"
     inkscape:window-maximized="0"
     inkscape:current-layer="svg881" />
  <g
     id="g1018"
     transform="translate(5.2365371,0.49703727)">
    <path
       d="M 0.526672,161.73 C 52.9067,192.06 224.357,288.99 365.117,326.43 c 74.34,19.8 118.89,17.28 145.62,-4.95 6.39,-5.31 15.57,-12.96 18.81,-25.29 C 547.097,229.95 372.227,110.34 231.017,48.51 171.347,22.41 120.587,7.83 89.2667,0 59.6567,53.91 30.1367,107.91 0.526672,161.82 Z"
       fill="#f01427"
       id="path853" />
    <path
       d="m 412.547,329.94 c -6.84,-6.03 -16.11,-15.93 -21.69,-30.42 -5.31,-13.59 -3.78,-21.96 -5.13,-28.08 -7.29,-31.68 -96.48,-13.86 -192.33,-49.5 -38.34,-14.31 -65.7,-32.58 -142.5601,-58.23 -28.71,-9.54 -38.79,-11.7 -39.78,-9.45 -2.78996,5.94 63.54,43.29 106.6501,65.52 36.99,19.08 64.17,30.87 103.77,47.97 81.9,35.37 116.82,45.27 132.66,49.41 24.3,6.39 44.64,10.35 58.41,12.78 z"
       fill="#df0e20"
       id="path855" />
    <path
       d="m 466.187,168.39 c -4.05,-7.83 -8.73,-12.33 -12.24,-14.94 -4.41,-3.33 -5.94,-2.97 -15.3,-8.46 -4.41,-2.61 -9.27,-5.67 -15.21,-9.81 -16.83,-11.52 -26.01,-16.2 -37.35,-22.5 -29.34,-16.2901 -34.56,-19.0801 -37.53,-16.7401 -2.79,2.16 -1.35,7.0201 -1.17,13.1401 0.45,19.53 -13.77,34.11 -19.98,42.12 -33.75,43.47 -25.11,138.15 -55.26,144.99 -3.24,0.72 -7.74,0.54 -8.28,2.52 -1.08,4.05 16.92,11.88 38.16,21.06 15.21,6.57 22.95,9.63 33.57,13.59 38.43,14.31 99,23.94 111.96,15.48 1.62,-1.08 9.63,-7.11 9.45,-8.37 -2.61,-0.27 -11.07,-4.41 -14.58,-6.48 -7.56,-4.5 -31.95,-12.42 -34.65,-79.02 -2.61,-64.17 32.4,-70.74 39.78,-76.77 6.66,-5.49 13.59,-8.19 18.63,-9.72 z"
       fill="#f01427"
       id="path857" />
    <path
       d="m 397.067,264.51 c -19.53,-3.42 -14.85,-6.03 -25.65,-7.47 -16.74,-2.34 -23.76,-2.7 -34.74,-5.31 -16.83,-4.14 -29.79,-10.26 -38.16,-14.76 -1.8,10.62 -3.87,19.44 -5.58,26.01 -5.22,20.07 -8.37,23.94 -10.62,26.1 -8.37,8.1 -18,6.21 -18.54,9.72 -0.72,5.04 18.9,11.61 48.33,21.6 38.7,13.14 47.88,16.47 55.89,18.72 2.43,0.72 4.59,1.26 6.39,1.71 50.13,12.78 63.54,8.01 69.39,5.22 1.44,-0.72 3.96,-1.98 6.84,-4.14 -7.47,-2.97 -16.92,-7.92 -25.56,-16.47 -7.11,-7.02 -11.16,-13.86 -13.32,-17.55 -3.87,-6.66 -5.94,-12.15 -7.83,-17.37 -2.34,-6.21 -5.04,-14.94 -6.93,-25.83 z"
       fill="#df0e20"
       id="path859" />
    <path
       d="m 346.847,100.08 c 0.54,2.34 1.26,5.85 1.26,10.26 0.09,21.24 -15.75,36.72 -19.98,42.12 -36.36,46.89 -13.77,126.72 -55.26,144.99 -1.35,0.63 -2.52,0.99 -2.97,1.17 -0.81,-0.81 -1.53,-1.53 -2.34,-2.34 2.43,-1.08 6.66,-3.06 10.89,-6.75 22.05,-19.08 8.91,-50.49 25.83,-100.53 4.14,-12.42 7.11,-21.24 14.58,-31.23 8.28,-11.16 13.86,-12.87 21.06,-26.01 4.68,-8.64 7.11,-16.74 7.29,-25.29 0,-2.61 -0.09,-4.86 -0.27,-6.39 z"
       fill="#df0e20"
       id="path861" />
    <path
       d="m 441.527,170.46 c -4.05,3.78 -18.45,18.18 -28.35,41.22 -1.8,4.14 -3.15,8.64 -4.14,14.4 -7.47,41.13 18.09,92.7 57.51,111.06 6.66,3.15 12.6,4.77 18.45,5.4 43.47,4.77 76.86,-8.1 110.07,-20.43 91.71,-34.02 140.4,-30.96 153.09,-62.37 5.22,-13.05 -5.58,-41.94 -19.71,-35.91 -50.58,21.6 -93.51,30.69 -93.51,30.69 0,0 116.37,-27.45 140.67,-62.1 4.68,-6.66 6.75,-13.5 7.11,-19.89 0.72,-13.23 -11.25,-35.64 -23.76,-37.17 -8.73,-0.99 -19.89,7.92 -32.85,15.21 -59.13,33.57 -82.89,44.37 -82.89,44.37 0,0 28.35,-14.13 80.01,-42.75 48.15,-26.55 63.9,-36.9 65.61,-53.4599 1.35,-12.69 -5.76,-29.79 -18.09,-35.64 -6.93,-3.24 -13.77,-2.16 -16.38,-1.71 -32.58,5.31 -123.93,74.9699 -133.92,82.6199 28.71,-20.52 50.67,-35.1 61.92,-43.83 36.09,-28.0799 50.22,-25.3799 51.39,-48.4199 0.36,-7.38 -8.82,-19.89 -14.13,-23.76 -35.37,-25.65 -138.24,58.5 -163.89,80.0999 -6.84,2.07 -70.83,21.87 -101.25,49.41 -6.12,5.58 -12.87,12.87 -12.87,12.87 z"
       fill="#facccb"
       id="path863" />
    <path
       d="m 423.077,290.25 c 8.19,12.15 27.45,36.54 58.5,43.38 13.59,2.97 25.29,1.71 36.72,0.45 19.62,-2.16 30.6,-6.93 60.3,-17.19 25.92,-8.91 38.79,-13.5 49.95,-16.38 26.91,-7.02 65.43,-13.95 81.63,-26.1 2.25,-1.71 4.95,-4.14 10.44,-7.65 9.54,-6.12 13.5,-6.48 17.55,-11.88 2.97,-4.05 3.96,-8.19 5.04,-7.92 1.08,0.27 0.72,5.13 0.72,5.4 -1.17,2.25 -3.87,10.71 -4.68,12.24 -6.12,11.7 -32.31,18.63 -32.31,18.63 0,0 -20.43,5.49 -76.59,23.13 -3.96,1.26 -14.13,4.68 -34.47,11.61 -33.21,11.34 -40.59,14.04 -54.63,17.28 -24.48,5.67 -37.08,5.31 -40.95,5.13 -9.09,-0.36 -19.08,-0.9 -30.96,-5.76 -16.11,-6.66 -25.92,-17.28 -32.4,-24.48 -6.66,-7.47 -11.07,-14.67 -13.95,-19.98 z"
       fill="#f8bebc"
       id="path865" />
    <path
       d="m 670.667,237.15 c -22.32,7.92 -35.55,11.52 -35.37,12.06 0.18,0.63 20.88,-4.32 42.66,-10.89 0,0 26.55,-7.92 60.12,-23.13 0,0 8.82,-3.96 22.86,-14.4 1.26,-0.9 7.38,-5.49 10.98,-12.06 0,-0.18 0.18,-0.27 0.18,-0.36 2.07,-3.69 5.13,-11.07 3.24,-12.87 -1.71,-1.62 -7.2,1.62 -7.56,1.8 -8.1,4.86 -8.28,12.15 -14.04,19.08 -4.32,5.22 -9.09,7.02 -17.19,10.44 -35.46,15.03 -32.04,18.36 -65.88,30.33 z"
       fill="#f8bebc"
       id="path867" />
    <path
       d="m 705.677,149.94 c -32.49,25.38 -64.62,38.07 -64.35,38.7 0.27,0.45 18.99,-9.54 55.53,-27.99 0,0 19.89,-9.99 51.84,-28.98 16.74,-9.9 29.7,-18.18 32.4,-32.1301 1.17,-6.21 0.45,-13.77 -1.17,-14.04 -1.44,-0.27 -2.61,5.76 -7.65,13.86 -0.45,0.63 -5.22,8.2801 -12.24,14.5801 -7.56,6.66 -14.76,9.18 -19.53,11.16 -14.22,6.03 -19.62,12.87 -34.83,24.84 z"
       fill="#f8bebc"
       id="path869" />
    <path
       d="m 634.847,126.36 c -9.63,7.74 -15.93,12.24 -15.84,12.33 0.18,0.18 16.38,-12.87 39.96,-28.71 17.55,-11.8799 33.21,-26.9999 52.29,-36.1799 1.62,-0.81 8.01,-3.78 12.33,-10.53 3.33,-5.13 4.86,-11.7 3.33,-12.6 -2.07,-1.17 -6.3,10.26 -19.98,18.18 -6.84,4.05 -12.24,4.86 -20.25,11.61 -2.97,2.52 -4.95,4.59 -6.12,5.94 -12.69,13.6799 -28.89,26.5499 -45.63,39.9599 z"
       fill="#f8bebc"
       id="path871" />
    <path
       d="m 521.087,110.16 c 10.08,0.9 10.17,5.94 33.21,18.36 23.85,12.78 32.04,11.79 33.93,18.99 3.15,11.61 -13.59,29.88 -30.96,32.76 -6.66,1.08 -12.24,-0.27 -13.32,-0.54 -15.12,-4.14 -22.32,-12.06 -25.02,-16.47 -0.45,-0.72 -0.72,-0.9 -0.99,-0.99 0,0 -0.18,0 -0.27,0 -1.08,0 -58.05,133.29 -86.94,131.04 -16.92,-1.26 -27.72,-49.14 -26.46,-81.18 0.45,-12.24 1.71,-34.65 17.19,-50.85 4.05,-4.23 7.2,-8.37 13.59,-10.71 18.09,-6.48 31.86,-13.59 41.67,-19.35 22.23,-12.96 30.06,-22.23 44.37,-20.97 z"
       fill="#facccb"
       id="path873" />
    <path
       d="m 422.356,289.53 c 1.26,1.44 3.96,3.96 7.92,4.86 13.231,3.15 28.35,-15.03 39.96,-28.89 3.06,-3.69 9.99,-12.24 17.91,-25.11 18.18,-29.34 23.67,-51.93 25.02,-57.69 2.16,-9.63 3.69,-20.79 2.88,-20.97 -0.72,-0.18 -2.16,6.48 -6.84,17.73 -2.61,6.3 -5.85,12.69 -12.06,25.38 -5.67,11.43 -9.81,19.17 -17.82,33.48 -5.13,9.18 -9.27,16.2 -15.21,24.75 -6.3,9.09 -13.41,18 -18.18,22.41 -4.68,4.41 -10.26,8.37 -16.65,7.29 -3.06,-0.54 -5.31,-2.07 -6.84,-3.33 z"
       fill="#f8bebc"
       id="path875" />
    <path
       d="m 518.027,158.4 c 1.44,2.34 10.71,16.47 28.26,18.9 2.16,0.27 11.25,1.35 21.15,-3.33 12.24,-5.76 23.4,-19.35 20.25,-27.81 -0.45,-1.17 -1.08,-2.16 -1.71,-2.7 1.08,1.08 2.88,3.15 3.51,6.12 2.25,9.9 -14.13,29.25 -35.19,34.29 -4.68,1.08 -15.12,3.6 -24.12,-2.07 -4.68,-2.88 -7.38,-6.93 -8.37,-8.64 -3.69,-6.21 -3.96,-12.15 -3.87,-14.76 z"
       fill="#f8bebc"
       id="path877" />
    <path
       d="m 562.217,136.53 c -1.17,-0.72 -9.9,-5.76 -16.02,-9.9 -2.16,-1.44 -3.24,-2.25 -4.41,-3.06 -3.33,-2.43 -4.41,-3.51 -7.56,-5.31 -6.12,-3.6 -9.27,-5.4 -13.77,-5.76 -4.95,-0.45 -8.64,1.17 -14.85,3.87 -5.22,2.25 -7.02,3.78 -15.39,8.55 0,0 -4.95,2.79 -11.34,6.21 -13.23,6.93 -23.94,11.07 -23.94,10.98 0,0 7.65,-2.7 17.37,-8.01 7.83,-4.23 9,-5.85 20.34,-13.32 20.61,-13.5 25.29,-13.86 28.8,-13.32 4.68,0.63 7.92,2.97 13.59,6.93 7.56,5.4 8.64,9.09 17.82,15.93 5.31,4.05 9.54,6.3 9.45,6.3 z"
       fill="#f8bebc"
       id="path879" />
  </g>
</svg>
