<svg width="789" height="353" viewBox="0 0 789 353" fill="none" xmlns="http://www.w3.org/2000/svg">
<path d="M788.473 161.73C736.093 192.06 564.643 288.99 423.883 326.43C349.543 346.23 304.993 343.71 278.263 321.48C271.873 316.17 262.693 308.52 259.453 296.19C241.903 229.95 416.773 110.34 557.983 48.51C617.653 22.41 668.413 7.83 699.733 0C729.343 53.91 758.863 107.91 788.473 161.82V161.73Z" fill="#631A86"/>
<path d="M376.453 329.94C383.293 323.91 392.563 314.01 398.143 299.52C403.453 285.93 401.923 277.56 403.273 271.44C410.563 239.76 499.753 257.58 595.603 221.94C633.943 207.63 661.303 189.36 738.163 163.71C766.873 154.17 776.953 152.01 777.943 154.26C780.733 160.2 714.403 197.55 671.293 219.78C634.303 238.86 607.123 250.65 567.523 267.75C485.623 303.12 450.703 313.02 434.863 317.16C410.563 323.55 390.223 327.51 376.453 329.94Z" fill="#3B1050"/>
<path d="M322.813 168.39C326.863 160.56 331.543 156.06 335.053 153.45C339.463 150.12 340.993 150.48 350.353 144.99C354.763 142.38 359.623 139.32 365.563 135.18C382.393 123.66 391.573 118.98 402.913 112.68C432.253 96.3899 437.473 93.5999 440.443 95.9399C443.233 98.0999 441.793 102.96 441.613 109.08C441.163 128.61 455.383 143.19 461.593 151.2C495.343 194.67 486.703 289.35 516.853 296.19C520.093 296.91 524.593 296.73 525.133 298.71C526.213 302.76 508.213 310.59 486.973 319.77C471.763 326.34 464.023 329.4 453.403 333.36C414.973 347.67 354.403 357.3 341.443 348.84C339.823 347.76 331.813 341.73 331.993 340.47C334.603 340.2 343.063 336.06 346.573 333.99C354.133 329.49 378.523 321.57 381.223 254.97C383.833 190.8 348.823 184.23 341.443 178.2C334.783 172.71 327.853 170.01 322.813 168.48V168.39Z" fill="#631A86"/>
<path d="M391.933 264.51C411.463 261.09 406.783 258.48 417.583 257.04C434.323 254.7 441.343 254.34 452.323 251.73C469.153 247.59 482.113 241.47 490.483 236.97C492.283 247.59 494.353 256.41 496.063 262.98C501.283 283.05 504.433 286.92 506.683 289.08C515.053 297.18 524.683 295.29 525.223 298.8C525.943 303.84 506.323 310.41 476.893 320.4C438.193 333.54 429.013 336.87 421.003 339.12C418.573 339.84 416.413 340.38 414.613 340.83C364.483 353.61 351.073 348.84 345.223 346.05C343.783 345.33 341.263 344.07 338.383 341.91C345.853 338.94 355.303 333.99 363.943 325.44C371.053 318.42 375.103 311.58 377.263 307.89C381.133 301.23 383.203 295.74 385.093 290.52C387.433 284.31 390.133 275.58 392.023 264.69L391.933 264.51Z" fill="#3B1050"/>
<path d="M442.153 100.08C441.613 102.42 440.893 105.93 440.893 110.34C440.803 131.58 456.643 147.06 460.873 152.46C497.233 199.35 474.643 279.18 516.133 297.45C517.483 298.08 518.653 298.44 519.103 298.62C519.913 297.81 520.633 297.09 521.443 296.28C519.013 295.2 514.783 293.22 510.553 289.53C488.503 270.45 501.643 239.04 484.723 189C480.583 176.58 477.613 167.76 470.143 157.77C461.863 146.61 456.283 144.9 449.083 131.76C444.403 123.12 441.973 115.02 441.793 106.47C441.793 103.86 441.883 101.61 442.063 100.08H442.153Z" fill="#3B1050"/>
<path d="M347.473 170.46C351.523 174.24 365.923 188.64 375.823 211.68C377.623 215.82 378.973 220.32 379.963 226.08C387.433 267.21 361.873 318.78 322.453 337.14C315.793 340.29 309.853 341.91 304.003 342.54C260.533 347.31 227.143 334.44 193.933 322.11C102.223 288.09 53.5332 291.15 40.8433 259.74C35.6232 246.69 46.4233 217.8 60.5533 223.83C111.133 245.43 154.063 254.52 154.063 254.52C154.063 254.52 37.6932 227.07 13.3932 192.42C8.71325 185.76 6.64325 178.92 6.28325 172.53C5.56325 159.3 17.5333 136.89 30.0433 135.36C38.7733 134.37 49.9332 143.28 62.8932 150.57C122.023 184.14 145.783 194.94 145.783 194.94C145.783 194.94 117.433 180.81 65.7732 152.19C17.6232 125.64 1.87325 115.29 0.163254 98.7301C-1.18675 86.0401 5.92325 68.9401 18.2532 63.0901C25.1832 59.8501 32.0233 60.9301 34.6333 61.3801C67.2132 66.6901 158.563 136.35 168.553 144C139.843 123.48 117.883 108.9 106.633 100.17C70.5432 72.0901 56.4133 74.7901 55.2433 51.7501C54.8833 44.3701 64.0633 31.8601 69.3733 27.9901C104.743 2.3401 207.613 86.4901 233.263 108.09C240.103 110.16 304.093 129.96 334.513 157.5C340.633 163.08 347.383 170.37 347.383 170.37L347.473 170.46Z" fill="#FACCCB"/>
<path d="M365.923 290.25C357.733 302.4 338.473 326.79 307.423 333.63C293.833 336.6 282.133 335.34 270.703 334.08C251.083 331.92 240.103 327.15 210.403 316.89C184.483 307.98 171.613 303.39 160.453 300.51C133.543 293.49 95.023 286.56 78.823 274.41C76.573 272.7 73.873 270.27 68.383 266.76C58.843 260.64 54.883 260.28 50.833 254.88C47.863 250.83 46.873 246.69 45.793 246.96C44.713 247.23 45.073 252.09 45.073 252.36C46.243 254.61 48.943 263.07 49.753 264.6C55.873 276.3 82.063 283.23 82.063 283.23C82.063 283.23 102.493 288.72 158.653 306.36C162.613 307.62 172.783 311.04 193.123 317.97C226.333 329.31 233.713 332.01 247.753 335.25C272.233 340.92 284.833 340.56 288.703 340.38C297.793 340.02 307.783 339.48 319.663 334.62C335.773 327.96 345.583 317.34 352.063 310.14C358.723 302.67 363.133 295.47 366.013 290.16L365.923 290.25Z" fill="#F8BEBC"/>
<path d="M118.333 237.15C140.653 245.07 153.883 248.67 153.703 249.21C153.523 249.84 132.823 244.89 111.043 238.32C111.043 238.32 84.4934 230.4 50.9234 215.19C50.9234 215.19 42.1034 211.23 28.0634 200.79C26.8034 199.89 20.6834 195.3 17.0834 188.73C17.0834 188.55 16.9034 188.46 16.9034 188.37C14.8334 184.68 11.7734 177.3 13.6634 175.5C15.3734 173.88 20.8634 177.12 21.2234 177.3C29.3234 182.16 29.5034 189.45 35.2634 196.38C39.5834 201.6 44.3534 203.4 52.4534 206.82C87.9134 221.85 84.4934 225.18 118.333 237.15Z" fill="#F8BEBC"/>
<path d="M83.323 149.94C115.813 175.32 147.943 188.01 147.673 188.64C147.403 189.09 128.683 179.1 92.143 160.65C92.143 160.65 72.253 150.66 40.303 131.67C23.563 121.77 10.603 113.49 7.90303 99.5399C6.73303 93.3299 7.45303 85.7699 9.07303 85.4999C10.513 85.2299 11.683 91.2599 16.723 99.3599C17.173 99.9899 21.943 107.64 28.963 113.94C36.523 120.6 43.723 123.12 48.493 125.1C62.713 131.13 68.113 137.97 83.323 149.94Z" fill="#F8BEBC"/>
<path d="M154.153 126.36C163.783 134.1 170.083 138.6 169.993 138.69C169.813 138.87 153.613 125.82 130.033 109.98C112.483 98.1001 96.8234 82.9801 77.7434 73.8001C76.1234 72.9901 69.7334 70.0201 65.4134 63.2701C62.0834 58.1401 60.5534 51.5701 62.0834 50.6701C64.1534 49.5001 68.3834 60.9301 82.0634 68.8501C88.9034 72.9001 94.3034 73.7101 102.313 80.4601C105.283 82.9801 107.263 85.0501 108.433 86.4001C121.123 100.08 137.323 112.95 154.063 126.36H154.153Z" fill="#F8BEBC"/>
<path d="M267.913 110.16C257.833 111.06 257.743 116.1 234.703 128.52C210.853 141.3 202.663 140.31 200.773 147.51C197.623 159.12 214.363 177.39 231.733 180.27C238.393 181.35 243.973 180 245.053 179.73C260.173 175.59 267.373 167.67 270.073 163.26C270.523 162.54 270.793 162.36 271.063 162.27C271.063 162.27 271.243 162.27 271.333 162.27C272.413 162.27 329.383 295.56 358.273 293.31C375.193 292.05 385.993 244.17 384.733 212.13C384.283 199.89 383.023 177.48 367.543 161.28C363.493 157.05 360.343 152.91 353.953 150.57C335.863 144.09 322.093 136.98 312.283 131.22C290.053 118.26 282.223 108.99 267.913 110.25V110.16Z" fill="#FACCCB"/>
<path d="M366.644 289.53C365.384 290.97 362.684 293.49 358.724 294.39C345.493 297.54 330.374 279.36 318.764 265.5C315.704 261.81 308.774 253.26 300.854 240.39C282.674 211.05 277.184 188.46 275.834 182.7C273.674 173.07 272.144 161.91 272.954 161.73C273.674 161.55 275.114 168.21 279.794 179.46C282.404 185.76 285.644 192.15 291.854 204.84C297.524 216.27 301.664 224.01 309.674 238.32C314.804 247.5 318.944 254.52 324.884 263.07C331.184 272.16 338.294 281.07 343.064 285.48C347.744 289.89 353.324 293.85 359.714 292.77C362.774 292.23 365.024 290.7 366.554 289.44L366.644 289.53Z" fill="#F8BEBC"/>
<path d="M270.973 158.4C269.533 160.74 260.263 174.87 242.713 177.3C240.553 177.57 231.463 178.65 221.563 173.97C209.323 168.21 198.163 154.62 201.313 146.16C201.763 144.99 202.393 144 203.023 143.46C201.943 144.54 200.143 146.61 199.513 149.58C197.263 159.48 213.643 178.83 234.703 183.87C239.383 184.95 249.823 187.47 258.823 181.8C263.503 178.92 266.203 174.87 267.193 173.16C270.883 166.95 271.153 161.01 271.063 158.4H270.973Z" fill="#F8BEBC"/>
<path d="M226.783 136.53C227.953 135.81 236.683 130.77 242.803 126.63C244.963 125.19 246.043 124.38 247.213 123.57C250.543 121.14 251.623 120.06 254.773 118.26C260.893 114.66 264.043 112.86 268.543 112.5C273.493 112.05 277.183 113.67 283.393 116.37C288.613 118.62 290.413 120.15 298.783 124.92C298.783 124.92 303.733 127.71 310.123 131.13C323.353 138.06 334.063 142.2 334.063 142.11C334.063 142.11 326.413 139.41 316.693 134.1C308.863 129.87 307.693 128.25 296.353 120.78C275.743 107.28 271.063 106.92 267.553 107.46C262.873 108.09 259.633 110.43 253.963 114.39C246.403 119.79 245.323 123.48 236.143 130.32C230.833 134.37 226.603 136.62 226.693 136.62L226.783 136.53Z" fill="#F8BEBC"/>
</svg>
