<?xml version="1.0" encoding="utf-8"?>
<!-- Generator: Adobe Illustrator 27.5.0, SVG Export Plug-In . SVG Version: 6.00 Build 0)  -->
<svg version="1.1" id="Ebene_1" xmlns="http://www.w3.org/2000/svg" xmlns:xlink="http://www.w3.org/1999/xlink" x="0px" y="0px"
	 viewBox="0 0 800 353" style="enable-background:new 0 0 800 353;" xml:space="preserve">
<style type="text/css">
	.st0{fill:#631A86;}
	.st1{fill:#3B1050;}
	.st2{fill:#FACCCB;}
	.st3{fill:#F8BEBC;}
</style>
<g>
	<path class="st0" d="M794.2,161.7C741.9,192.1,570.4,289,429.6,326.4c-74.3,19.8-118.9,17.3-145.6-4.9c-6.4-5.3-15.6-13-18.8-25.3
		c-17.6-66.2,157.3-185.9,298.5-247.7C623.4,22.4,674.2,7.8,705.5,0C735.1,53.9,764.6,107.9,794.2,161.7L794.2,161.7z"/>
	<path class="st1" d="M382.2,329.9c6.8-6,16.1-15.9,21.7-30.4c5.3-13.6,3.8-22,5.1-28.1c7.3-31.7,96.5-13.9,192.3-49.5
		c38.3-14.3,65.7-32.6,142.6-58.2c28.7-9.5,38.8-11.7,39.8-9.5c2.8,5.9-63.5,43.3-106.6,65.5c-37,19.1-64.2,30.9-103.8,48
		c-81.9,35.4-116.8,45.3-132.7,49.4C416.3,323.5,396,327.5,382.2,329.9z"/>
	<path class="st0" d="M328.6,168.4c4.1-7.8,8.7-12.3,12.2-14.9c4.4-3.3,5.9-3,15.3-8.5c4.4-2.6,9.3-5.7,15.2-9.8
		c16.8-11.5,26-16.2,37.4-22.5c29.3-16.3,34.6-19.1,37.5-16.7c2.8,2.2,1.4,7,1.2,13.1c-0.5,19.5,13.8,34.1,20,42.1
		c33.8,43.5,25.1,138.2,55.3,145c3.2,0.7,7.7,0.5,8.3,2.5c1.1,4.1-16.9,11.9-38.2,21.1c-15.2,6.6-22.9,9.6-33.6,13.6
		c-38.4,14.3-99,23.9-112,15.5c-1.6-1.1-9.6-7.1-9.4-8.4c2.6-0.3,11.1-4.4,14.6-6.5c7.6-4.5,32-12.4,34.6-79
		c2.6-64.2-32.4-70.7-39.8-76.8C340.5,172.7,333.6,170,328.6,168.4L328.6,168.4z"/>
	<path class="st1" d="M397.7,264.5c19.5-3.4,14.8-6,25.6-7.5c16.7-2.3,23.8-2.7,34.7-5.3c16.8-4.1,29.8-10.3,38.2-14.8
		c1.8,10.6,3.9,19.4,5.6,26c5.2,20.1,8.4,23.9,10.6,26.1c8.4,8.1,18,6.2,18.5,9.7c0.7,5-18.9,11.6-48.3,21.6
		c-38.7,13.1-47.9,16.5-55.9,18.7c-2.4,0.7-4.6,1.3-6.4,1.7c-50.1,12.8-63.5,8-69.4,5.2c-1.4-0.7-4-2-6.8-4.1
		c7.5-3,16.9-7.9,25.6-16.5c7.1-7,11.2-13.9,13.3-17.5c3.9-6.7,5.9-12.2,7.8-17.4c2.3-6.2,5-14.9,6.9-25.8L397.7,264.5z"/>
	<path class="st1" d="M447.9,100.1c-0.5,2.3-1.3,5.8-1.3,10.3c-0.1,21.2,15.8,36.7,20,42.1c36.4,46.9,13.8,126.7,55.3,145
		c1.3,0.6,2.5,1,3,1.2c0.8-0.8,1.5-1.5,2.3-2.3c-2.4-1.1-6.7-3.1-10.9-6.8c-22.1-19.1-8.9-50.5-25.8-100.5
		c-4.1-12.4-7.1-21.2-14.6-31.2c-8.3-11.2-13.9-12.9-21.1-26c-4.7-8.6-7.1-16.7-7.3-25.3C447.6,103.9,447.6,101.6,447.9,100.1
		L447.9,100.1z"/>
	<path class="st2" d="M353.2,170.5c4.1,3.8,18.5,18.2,28.4,41.2c1.8,4.1,3.1,8.6,4.1,14.4c7.5,41.1-18.1,92.7-57.5,111.1
		c-6.7,3.1-12.6,4.8-18.5,5.4c-43.5,4.8-76.9-8.1-110.1-20.4c-91.7-34-140.4-31-153.1-62.4c-5.2-13,5.6-41.9,19.7-35.9
		c50.6,21.6,93.5,30.7,93.5,30.7S43.5,227.1,19.2,192.4c-4.7-6.7-6.7-13.5-7.1-19.9c-0.7-13.2,11.3-35.6,23.8-37.2
		c8.7-1,19.9,7.9,32.8,15.2c59.1,33.6,82.9,44.4,82.9,44.4s-28.4-14.1-80-42.8C23.4,125.6,7.6,115.3,5.9,98.7
		C4.6,86,11.7,68.9,24,63.1c6.9-3.2,13.8-2.2,16.4-1.7c32.6,5.3,123.9,75,133.9,82.6c-28.7-20.5-50.7-35.1-61.9-43.8
		C76.3,72.1,62.2,74.8,61,51.8c-0.4-7.4,8.8-19.9,14.1-23.8C110.5,2.3,213.4,86.5,239,108.1c6.8,2.1,70.8,21.9,101.2,49.4
		C346.4,163.1,353.1,170.4,353.2,170.5L353.2,170.5z"/>
	<path class="st3" d="M371.7,290.2c-8.2,12.1-27.5,36.5-58.5,43.4c-13.6,3-25.3,1.7-36.7,0.4c-19.6-2.2-30.6-6.9-60.3-17.2
		c-25.9-8.9-38.8-13.5-49.9-16.4c-26.9-7-65.4-14-81.6-26.1c-2.2-1.7-4.9-4.1-10.4-7.6c-9.5-6.1-13.5-6.5-17.6-11.9
		c-3-4.1-4-8.2-5-7.9c-1.1,0.3-0.7,5.1-0.7,5.4c1.2,2.2,3.9,10.7,4.7,12.2c6.1,11.7,32.3,18.6,32.3,18.6s20.4,5.5,76.6,23.1
		c4,1.3,14.1,4.7,34.5,11.6c33.2,11.3,40.6,14,54.6,17.3c24.5,5.7,37.1,5.3,40.9,5.1c9.1-0.4,19.1-0.9,31-5.8
		c16.1-6.7,25.9-17.3,32.4-24.5C364.5,302.7,368.9,295.5,371.7,290.2L371.7,290.2z"/>
	<path class="st3" d="M124.1,237.1c22.3,7.9,35.5,11.5,35.4,12.1c-0.2,0.6-20.9-4.3-42.7-10.9c0,0-26.5-7.9-60.1-23.1
		c0,0-8.8-4-22.9-14.4c-1.3-0.9-7.4-5.5-11-12.1c0-0.2-0.2-0.3-0.2-0.4c-2.1-3.7-5.1-11.1-3.2-12.9c1.7-1.6,7.2,1.6,7.6,1.8
		c8.1,4.9,8.3,12.1,14,19.1c4.3,5.2,9.1,7,17.2,10.4C93.7,221.9,90.3,225.2,124.1,237.1z"/>
	<path class="st3" d="M89.1,149.9c32.5,25.4,64.6,38.1,64.4,38.7c-0.3,0.4-19-9.5-55.5-28c0,0-19.9-10-51.8-29
		c-16.7-9.9-29.7-18.2-32.4-32.1c-1.2-6.2-0.4-13.8,1.2-14c1.4-0.3,2.6,5.8,7.6,13.9c0.5,0.6,5.2,8.3,12.2,14.6
		c7.6,6.7,14.8,9.2,19.5,11.2C68.5,131.1,73.9,138,89.1,149.9z"/>
	<path class="st3" d="M159.9,126.4c9.6,7.7,15.9,12.2,15.8,12.3c-0.2,0.2-16.4-12.9-40-28.7c-17.6-11.9-33.2-27-52.3-36.2
		c-1.6-0.8-8-3.8-12.3-10.5c-3.3-5.1-4.9-11.7-3.3-12.6c2.1-1.2,6.3,10.3,20,18.2c6.8,4.1,12.2,4.9,20.2,11.6c3,2.5,4.9,4.6,6.1,5.9
		C126.9,100.1,143.1,112.9,159.9,126.4L159.9,126.4z"/>
	<path class="st2" d="M273.7,110.2c-10.1,0.9-10.2,5.9-33.2,18.4c-23.9,12.8-32,11.8-33.9,19c-3.1,11.6,13.6,29.9,31,32.8
		c6.7,1.1,12.2-0.3,13.3-0.5c15.1-4.1,22.3-12.1,25-16.5c0.5-0.7,0.7-0.9,1-1c0,0,0.2,0,0.3,0c1.1,0,58,133.3,86.9,131
		c16.9-1.3,27.7-49.1,26.5-81.2c-0.5-12.2-1.7-34.7-17.2-50.9c-4-4.2-7.2-8.4-13.6-10.7c-18.1-6.5-31.9-13.6-41.7-19.4
		C295.8,118.3,288,109,273.7,110.2L273.7,110.2z"/>
	<path class="st3" d="M372.4,289.5c-1.3,1.4-4,4-7.9,4.9c-13.2,3.1-28.4-15-40-28.9c-3.1-3.7-10-12.2-17.9-25.1
		c-18.2-29.3-23.7-51.9-25-57.7c-2.2-9.6-3.7-20.8-2.9-21c0.7-0.2,2.2,6.5,6.8,17.7c2.6,6.3,5.9,12.7,12.1,25.4
		c5.7,11.4,9.8,19.2,17.8,33.5c5.1,9.2,9.3,16.2,15.2,24.8c6.3,9.1,13.4,18,18.2,22.4c4.7,4.4,10.3,8.4,16.6,7.3
		C368.5,292.2,370.8,290.7,372.4,289.5L372.4,289.5z"/>
	<path class="st3" d="M276.7,158.4c-1.4,2.3-10.7,16.5-28.3,18.9c-2.2,0.3-11.2,1.3-21.1-3.3c-12.2-5.8-23.4-19.4-20.2-27.8
		c0.4-1.2,1.1-2.2,1.7-2.7c-1.1,1.1-2.9,3.1-3.5,6.1c-2.2,9.9,14.1,29.2,35.2,34.3c4.7,1.1,15.1,3.6,24.1-2.1
		c4.7-2.9,7.4-6.9,8.4-8.6C276.6,166.9,276.9,161,276.7,158.4L276.7,158.4z"/>
	<path class="st3" d="M232.5,136.5c1.2-0.7,9.9-5.8,16-9.9c2.2-1.4,3.2-2.2,4.4-3.1c3.3-2.4,4.4-3.5,7.6-5.3
		c6.1-3.6,9.3-5.4,13.8-5.8c5-0.4,8.6,1.2,14.9,3.9c5.2,2.2,7,3.8,15.4,8.5c0,0,5,2.8,11.3,6.2c13.2,6.9,23.9,11.1,23.9,11
		c0,0-7.6-2.7-17.4-8c-7.8-4.2-9-5.9-20.3-13.3c-20.6-13.5-25.3-13.9-28.8-13.3c-4.7,0.6-7.9,3-13.6,6.9c-7.6,5.4-8.6,9.1-17.8,15.9
		C236.6,134.4,232.4,136.6,232.5,136.5L232.5,136.5z"/>
</g>
</svg>
