<?xml version="1.0" encoding="utf-8"?>
<!-- Generator: Adobe Illustrator 27.5.0, SVG Export Plug-In . SVG Version: 6.00 Build 0)  -->
<svg version="1.1" id="Ebene_1" xmlns="http://www.w3.org/2000/svg" xmlns:xlink="http://www.w3.org/1999/xlink" x="0px" y="0px"
	 viewBox="0 0 800 353" style="enable-background:new 0 0 800 353;" xml:space="preserve">
<style type="text/css">
	.st0{fill:#F01427;}
	.st1{fill:#DF0E20;}
	.st2{fill:#FACCCB;}
	.st3{fill:#F8BEBC;}
</style>
<g>
	<path class="st0" d="M5.8,161.7C58.1,192.1,229.6,289,370.4,326.4c74.3,19.8,118.9,17.3,145.6-4.9c6.4-5.3,15.6-13,18.8-25.3
		c17.5-66.2-157.3-185.9-298.5-247.7C176.6,22.4,125.8,7.8,94.5,0C64.9,53.9,35.4,107.9,5.8,161.7L5.8,161.7z"/>
	<path class="st1" d="M417.8,329.9c-6.8-6-16.1-15.9-21.7-30.4c-5.3-13.6-3.8-22-5.1-28.1c-7.3-31.7-96.5-13.9-192.3-49.5
		c-38.3-14.3-65.7-32.6-142.6-58.2c-28.7-9.5-38.8-11.7-39.8-9.5c-2.8,5.9,63.5,43.3,106.7,65.5c37,19.1,64.2,30.9,103.8,48
		c81.9,35.4,116.8,45.3,132.7,49.4C383.7,323.5,404,327.5,417.8,329.9z"/>
	<path class="st0" d="M471.4,168.4c-4.1-7.8-8.7-12.3-12.2-14.9c-4.4-3.3-5.9-3-15.3-8.5c-4.4-2.6-9.3-5.7-15.2-9.8
		c-16.8-11.5-26-16.2-37.4-22.5c-29.3-16.3-34.6-19.1-37.5-16.7c-2.8,2.2-1.4,7-1.2,13.1c0.5,19.5-13.8,34.1-20,42.1
		c-33.8,43.5-25.1,138.2-55.3,145c-3.2,0.7-7.7,0.5-8.3,2.5c-1.1,4.1,16.9,11.9,38.2,21.1c15.2,6.6,22.9,9.6,33.6,13.6
		c38.4,14.3,99,23.9,112,15.5c1.6-1.1,9.6-7.1,9.4-8.4c-2.6-0.3-11.1-4.4-14.6-6.5c-7.6-4.5-32-12.4-34.6-79
		c-2.6-64.2,32.4-70.7,39.8-76.8C459.5,172.7,466.4,170,471.4,168.4L471.4,168.4z"/>
	<path class="st1" d="M402.3,264.5c-19.5-3.4-14.8-6-25.6-7.5c-16.7-2.3-23.8-2.7-34.7-5.3c-16.8-4.1-29.8-10.3-38.2-14.8
		c-1.8,10.6-3.9,19.4-5.6,26c-5.2,20.1-8.4,23.9-10.6,26.1c-8.4,8.1-18,6.2-18.5,9.7c-0.7,5,18.9,11.6,48.3,21.6
		c38.7,13.1,47.9,16.5,55.9,18.7c2.4,0.7,4.6,1.3,6.4,1.7c50.1,12.8,63.5,8,69.4,5.2c1.4-0.7,4-2,6.8-4.1c-7.5-3-16.9-7.9-25.6-16.5
		c-7.1-7-11.2-13.9-13.3-17.5c-3.9-6.7-5.9-12.2-7.8-17.4c-2.3-6.2-5-14.9-6.9-25.8L402.3,264.5z"/>
	<path class="st1" d="M352.1,100.1c0.5,2.3,1.3,5.8,1.3,10.3c0.1,21.2-15.8,36.7-20,42.1c-36.4,46.9-13.8,126.7-55.3,145
		c-1.4,0.6-2.5,1-3,1.2c-0.8-0.8-1.5-1.5-2.3-2.3c2.4-1.1,6.7-3.1,10.9-6.8c22.1-19.1,8.9-50.5,25.8-100.5
		c4.1-12.4,7.1-21.2,14.6-31.2c8.3-11.2,13.9-12.9,21.1-26c4.7-8.6,7.1-16.7,7.3-25.3C352.4,103.9,352.4,101.6,352.1,100.1
		L352.1,100.1z"/>
	<path class="st2" d="M446.8,170.5c-4.1,3.8-18.5,18.2-28.4,41.2c-1.8,4.1-3.1,8.6-4.1,14.4c-7.5,41.1,18.1,92.7,57.5,111.1
		c6.7,3.1,12.6,4.8,18.5,5.4c43.5,4.8,76.9-8.1,110.1-20.4c91.7-34,140.4-31,153.1-62.4c5.2-13-5.6-41.9-19.7-35.9
		c-50.6,21.6-93.5,30.7-93.5,30.7s116.4-27.4,140.7-62.1c4.7-6.7,6.8-13.5,7.1-19.9c0.7-13.2-11.2-35.6-23.8-37.2
		c-8.7-1-19.9,7.9-32.8,15.2c-59.1,33.6-82.9,44.4-82.9,44.4s28.4-14.1,80-42.8c48.2-26.6,63.9-36.9,65.6-53.5
		c1.4-12.7-5.8-29.8-18.1-35.6c-6.9-3.2-13.8-2.2-16.4-1.7c-32.6,5.3-123.9,75-133.9,82.6c28.7-20.5,50.7-35.1,61.9-43.8
		c36.1-28.1,50.2-25.4,51.4-48.4c0.4-7.4-8.8-19.9-14.1-23.8C689.5,2.3,586.6,86.5,561,108.1c-6.8,2.1-70.8,21.9-101.3,49.4
		C453.6,163.1,446.9,170.4,446.8,170.5L446.8,170.5z"/>
	<path class="st3" d="M428.3,290.2c8.2,12.1,27.5,36.5,58.5,43.4c13.6,3,25.3,1.7,36.7,0.4c19.6-2.2,30.6-6.9,60.3-17.2
		c25.9-8.9,38.8-13.5,50-16.4c26.9-7,65.4-14,81.6-26.1c2.2-1.7,5-4.1,10.4-7.6c9.5-6.1,13.5-6.5,17.5-11.9c3-4.1,4-8.2,5-7.9
		c1.1,0.3,0.7,5.1,0.7,5.4c-1.2,2.2-3.9,10.7-4.7,12.2c-6.1,11.7-32.3,18.6-32.3,18.6s-20.4,5.5-76.6,23.1
		c-4,1.3-14.1,4.7-34.5,11.6c-33.2,11.3-40.6,14-54.6,17.3c-24.5,5.7-37.1,5.3-41,5.1c-9.1-0.4-19.1-0.9-31-5.8
		c-16.1-6.7-25.9-17.3-32.4-24.5C435.5,302.7,431.1,295.5,428.3,290.2L428.3,290.2z"/>
	<path class="st3" d="M675.9,237.1c-22.3,7.9-35.5,11.5-35.4,12.1c0.2,0.6,20.9-4.3,42.7-10.9c0,0,26.6-7.9,60.1-23.1
		c0,0,8.8-4,22.9-14.4c1.3-0.9,7.4-5.5,11-12.1c0-0.2,0.2-0.3,0.2-0.4c2.1-3.7,5.1-11.1,3.2-12.9c-1.7-1.6-7.2,1.6-7.6,1.8
		c-8.1,4.9-8.3,12.1-14,19.1c-4.3,5.2-9.1,7-17.2,10.4C706.3,221.9,709.7,225.2,675.9,237.1z"/>
	<path class="st3" d="M710.9,149.9c-32.5,25.4-64.6,38.1-64.3,38.7c0.3,0.4,19-9.5,55.5-28c0,0,19.9-10,51.8-29
		c16.7-9.9,29.7-18.2,32.4-32.1c1.2-6.2,0.5-13.8-1.2-14c-1.4-0.3-2.6,5.8-7.7,13.9c-0.4,0.6-5.2,8.3-12.2,14.6
		c-7.6,6.7-14.8,9.2-19.5,11.2C731.5,131.1,726.1,138,710.9,149.9z"/>
	<path class="st3" d="M640.1,126.4c-9.6,7.7-15.9,12.2-15.8,12.3c0.2,0.2,16.4-12.9,40-28.7c17.6-11.9,33.2-27,52.3-36.2
		c1.6-0.8,8-3.8,12.3-10.5c3.3-5.1,4.9-11.7,3.3-12.6c-2.1-1.2-6.3,10.3-20,18.2c-6.8,4.1-12.2,4.9-20.2,11.6c-3,2.5-5,4.6-6.1,5.9
		C673.1,100.1,656.9,112.9,640.1,126.4L640.1,126.4z"/>
	<path class="st2" d="M526.3,110.2c10.1,0.9,10.2,5.9,33.2,18.4c23.8,12.8,32,11.8,33.9,19c3.2,11.6-13.6,29.9-31,32.8
		c-6.7,1.1-12.2-0.3-13.3-0.5c-15.1-4.1-22.3-12.1-25-16.5c-0.5-0.7-0.7-0.9-1-1c0,0-0.2,0-0.3,0c-1.1,0-58.1,133.3-86.9,131
		c-16.9-1.3-27.7-49.1-26.5-81.2c0.5-12.2,1.7-34.7,17.2-50.9c4-4.2,7.2-8.4,13.6-10.7c18.1-6.5,31.9-13.6,41.7-19.4
		C504.2,118.3,512,109,526.3,110.2L526.3,110.2z"/>
	<path class="st3" d="M427.6,289.5c1.3,1.4,4,4,7.9,4.9c13.2,3.1,28.4-15,40-28.9c3.1-3.7,10-12.2,17.9-25.1
		c18.2-29.3,23.7-51.9,25-57.7c2.2-9.6,3.7-20.8,2.9-21c-0.7-0.2-2.2,6.5-6.8,17.7c-2.6,6.3-5.9,12.7-12.1,25.4
		c-5.7,11.4-9.8,19.2-17.8,33.5c-5.1,9.2-9.3,16.2-15.2,24.8c-6.3,9.1-13.4,18-18.2,22.4c-4.7,4.4-10.3,8.4-16.6,7.3
		C431.5,292.2,429.2,290.7,427.6,289.5L427.6,289.5z"/>
	<path class="st3" d="M523.3,158.4c1.4,2.3,10.7,16.5,28.3,18.9c2.2,0.3,11.2,1.3,21.2-3.3c12.2-5.8,23.4-19.4,20.2-27.8
		c-0.5-1.2-1.1-2.2-1.7-2.7c1.1,1.1,2.9,3.1,3.5,6.1c2.2,9.9-14.1,29.2-35.2,34.3c-4.7,1.1-15.1,3.6-24.1-2.1
		c-4.7-2.9-7.4-6.9-8.4-8.6C523.4,166.9,523.1,161,523.3,158.4L523.3,158.4z"/>
	<path class="st3" d="M567.5,136.5c-1.2-0.7-9.9-5.8-16-9.9c-2.2-1.4-3.2-2.2-4.4-3.1c-3.3-2.4-4.4-3.5-7.6-5.3
		c-6.1-3.6-9.3-5.4-13.8-5.8c-4.9-0.4-8.6,1.2-14.9,3.9c-5.2,2.2-7,3.8-15.4,8.5c0,0-5,2.8-11.3,6.2c-13.2,6.9-23.9,11.1-23.9,11
		c0,0,7.6-2.7,17.4-8c7.8-4.2,9-5.9,20.3-13.3c20.6-13.5,25.3-13.9,28.8-13.3c4.7,0.6,7.9,3,13.6,6.9c7.6,5.4,8.6,9.1,17.8,15.9
		C563.4,134.4,567.6,136.6,567.5,136.5L567.5,136.5z"/>
</g>
</svg>
