<svg width="91" height="660" viewBox="0 0 91 660" fill="none" xmlns="http://www.w3.org/2000/svg">
<path d="M18.6051 642.944C18.5091 642.624 18.3171 642.496 18.0931 642.496C17.8691 642.496 17.6451 642.656 17.5491 643.072C17.1011 645.248 16.8771 647.584 16.7171 649.824C16.6211 651.328 16.4291 652 14.8611 652C13.7731 651.904 12.6531 651.84 11.5331 651.84C10.2851 651.84 9.06913 652 7.82113 652C6.22113 652 5.77313 651.136 5.64513 649.952C5.45312 648.096 4.58913 643.808 3.02113 637.92C2.34913 635.456 1.86913 635.008 1.32512 634.528C0.589125 633.888 0.205125 633.472 0.205125 632.96C0.205125 632.288 0.589125 631.84 1.45312 631.84C5.42113 631.936 9.54913 632.032 13.7411 632.032C17.6451 632.064 21.6131 631.936 25.5811 631.84C26.2531 631.84 26.4771 632.192 26.4771 632.896C26.4771 633.44 26.0931 633.856 25.6131 633.856C25.4211 633.856 24.9411 633.792 24.8131 633.792C23.5971 633.792 23.1171 634.368 23.1171 635.456C23.1171 638.4 24.4291 644.544 25.9331 649.248C26.0931 649.792 26.4771 649.984 26.8291 649.984C27.0851 649.984 27.4691 649.792 27.5331 649.44C28.7811 640.928 27.1811 635.264 27.1811 633.184C27.1811 632.256 27.6611 631.84 28.2691 631.84C29.3571 631.84 30.0611 631.968 31.2131 631.968C32.3651 631.968 33.0371 631.84 33.8051 631.84C34.2211 631.84 34.7331 631.968 34.7331 632.736C34.7331 633.024 34.5091 633.504 33.9331 634.24C33.1971 635.2 31.1811 638.752 29.9331 645.056C29.7731 645.888 29.3251 648.064 29.2291 649.856C29.1651 651.232 28.8451 652 27.6931 652C26.7971 652 25.6451 651.84 24.0771 651.84C22.7971 651.84 21.8691 652 21.3571 652C20.0451 652 19.6611 651.392 19.5331 650.048C19.4051 648.512 19.3091 646.08 18.6051 642.944ZM12.3011 634.048C10.3171 634.048 9.70913 634.784 9.70913 636C9.70913 638.112 10.9251 643.488 12.5251 648.864C12.7171 649.504 13.1011 649.696 13.4211 649.696C13.8051 649.696 14.1571 649.376 14.2531 648.896C15.1491 644.576 16.2371 640.64 16.2371 637.088C16.2371 635.328 15.5971 634.048 12.3011 634.048ZM40.0369 631.936C41.7969 631.936 43.3329 631.84 44.9009 631.84C45.5089 631.84 45.7649 632.288 45.7649 632.896C45.7649 633.344 45.5089 633.92 44.9009 633.92C44.7089 633.92 44.4209 633.824 44.1329 633.824C43.3329 633.824 43.2689 634.816 43.2049 635.84C43.1089 637.312 43.0449 639.04 43.0449 640.768C43.0449 643.456 43.1409 646.112 43.2049 648C43.2689 649.504 43.4289 650.048 44.2289 650.048C44.3569 650.048 44.6769 649.984 44.9009 649.984C45.5089 649.984 45.7649 650.464 45.7649 650.976C45.7649 651.552 45.5089 652 44.9009 652C44.1009 652 41.8609 651.904 40.2609 651.904C38.4689 651.904 35.8449 652 34.9489 652C34.3409 652 34.0849 651.552 34.0849 650.976C34.0849 650.464 34.3409 649.984 34.9489 649.984C35.1089 649.984 35.4289 650.048 35.5249 650.048C36.3249 650.048 36.4849 649.504 36.5489 648C36.6129 646.112 36.7089 643.456 36.7089 640.8C36.7089 639.072 36.6449 637.344 36.5489 635.872C36.4849 634.848 36.4209 633.824 35.6209 633.824C35.3649 633.824 35.1089 633.92 34.9489 633.92C34.3409 633.92 34.0849 633.344 34.0849 632.896C34.0849 632.288 34.3409 631.84 34.9489 631.84C36.5809 631.84 38.2129 631.936 40.0369 631.936ZM52.1916 636.96C52.0316 636.736 51.7756 636.64 51.5196 636.64C51.2316 636.64 50.9116 636.864 50.9116 637.44C50.9116 649.376 55.2956 649.472 55.2956 650.944C55.2956 651.616 54.9756 652 54.3676 652C53.3436 652 52.1916 651.904 51.1676 651.904C49.5356 651.904 48.2876 652 47.5836 652C47.1036 652 46.7836 651.616 46.7836 651.04C46.7836 649.664 48.9916 649.152 48.9916 637.792C48.9916 633.952 48.7996 633.76 47.9036 633.76C47.5196 633.76 47.2636 633.856 47.0076 633.856C46.4636 633.856 46.1756 633.408 46.1756 632.832C46.1756 632.32 46.4636 631.84 47.0076 631.84C48.5756 631.84 50.3356 631.968 52.0636 631.968C53.4076 631.968 55.1996 631.84 56.5436 631.84C57.5036 631.84 57.6956 632.48 57.8876 633.504C58.7196 637.856 60.8636 641.216 62.8796 645.088C63.0716 645.472 63.4876 645.568 63.7756 645.568C64.0956 645.568 64.4156 645.312 64.4156 644.768C64.4156 635.232 60.5436 634.592 60.5436 632.896C60.5436 632.32 60.9916 631.84 61.7276 631.84C62.7196 631.904 63.6796 631.936 64.5436 631.936C65.6316 631.936 66.6556 631.904 67.5196 631.84C68.2556 631.84 68.6396 632.32 68.6396 632.928C68.6396 634.208 66.1436 635.488 66.1436 642.72C66.1436 644.896 66.6236 649.408 66.6236 650.528C66.6236 651.552 66.3676 652 65.4396 652C64.7356 652 63.8716 651.872 63.1036 651.872C62.2076 651.872 61.3116 652 60.5436 652C59.6476 652 59.2636 651.616 58.8476 650.816C55.9356 645.184 53.3756 638.624 52.1916 636.96ZM71.9001 651.424C71.9001 652 71.4841 652.32 70.9401 652.32C70.3641 652.32 69.8841 652 69.8841 651.424C69.8841 650.72 70.0761 648.8 70.0761 647.552C70.0761 646.4 69.8841 645.536 69.8841 644.992C69.8841 644.32 70.1401 643.808 71.0361 643.808C73.4041 643.808 75.8041 650.24 80.3161 650.24C81.5321 650.24 82.7161 649.568 82.7161 648.032C82.7161 646.624 81.9801 645.76 77.6921 644.736C72.0921 643.36 70.2361 641.184 70.2361 637.568C70.2361 634.368 72.5081 631.36 77.7561 631.36C81.6601 631.36 82.9401 633.408 84.0921 633.408C84.5721 633.408 84.8921 633.216 84.8921 632.864C84.8921 632.608 84.8281 632.448 84.8281 632.224C84.8281 631.616 85.2441 631.296 85.7561 631.296C86.4281 631.296 86.7161 631.584 86.7161 632.448C86.7161 633.44 86.6201 634.208 86.6201 635.392C86.6201 636.128 86.6841 637.408 86.6841 637.856C86.6841 638.624 86.3321 639.104 85.6601 639.104C82.8121 639.104 80.8921 633.408 77.4041 633.408C75.8681 633.408 74.8761 634.176 74.8761 635.488C74.8761 636.704 75.5801 637.632 79.4841 638.72C85.3401 640.352 87.5481 642.208 87.5481 646.272C87.5481 650.496 84.3481 652.48 80.3481 652.48C75.9961 652.48 74.3321 650.08 72.7961 650.08C72.1561 650.08 71.8361 650.368 71.8361 650.816C71.8361 650.976 71.9001 651.232 71.9001 651.424Z" fill="#FDE9E9"/>
<path d="M62.2457 25.76C62.2457 13.52 60.4457 8.84 53.3657 8.84C45.2057 8.84 44.1257 13.4 44.1257 47.72C44.1257 51.2 45.4457 51.92 48.4457 51.92C57.9257 51.92 62.2457 43.04 62.2457 25.76ZM12.8057 77C10.5257 77 9.56571 75.32 9.56571 73.16C9.56571 71 11.0057 69.32 12.8057 69.32C13.6457 69.32 15.2057 69.68 15.6857 69.68C18.6857 69.68 19.2857 67.64 19.5257 62C19.8857 54.8 20.1257 44.96 20.1257 34.88C20.1257 28.4 19.8857 21.92 19.5257 16.28C19.2857 12.44 19.0457 8.72 16.0457 8.72C14.8457 8.72 13.6457 9.07999 12.8057 9.07999C10.5257 9.07999 9.56571 7.39999 9.56571 5.23999C9.56571 3.07999 11.0057 1.39999 12.8057 1.39999C19.0457 1.39999 25.1657 1.64 32.1257 1.64C39.4457 1.64 53.7257 0.92 60.3257 0.92C76.4057 0.92 86.1257 8.24 86.1257 24.92C86.1257 48.8 75.6857 53.48 61.2857 56.36C44.9657 59.6 44.0057 59.96 44.0057 64.76C44.0057 68.36 45.0857 69.68 48.5657 69.68C50.4857 69.68 55.7657 68.72 58.7657 68.72C61.0457 68.72 62.2457 70.64 62.2457 73.16C62.2457 74.84 61.0457 77 58.7657 77C54.3257 77 41.6057 76.76 32.9657 76.76C26.0057 76.76 16.2857 77 12.8057 77ZM64.0059 112.32C62.5659 112.32 60.4059 111.72 57.6459 111.72C50.0859 111.72 49.0059 116.52 48.6459 121.44C47.8059 134.52 48.0459 153.96 48.5259 165C48.7659 170.52 49.9659 172.56 53.9259 172.56C65.0859 172.56 70.2459 140.28 77.6859 140.28C79.7259 140.28 80.8059 141 80.8059 143.28C80.8059 145.32 80.0859 153.72 80.0859 161.88C80.0859 169.08 80.8059 174.12 80.8059 177.12C80.8059 178.8 79.1259 180 77.9259 180C70.8459 180 50.9259 179.76 37.1259 179.76C30.5259 179.76 20.8059 180 17.5659 180C15.2859 180 14.3259 177.84 14.3259 176.16C14.3259 174 15.7659 172.32 17.5659 172.32C18.2859 172.32 19.4859 172.68 19.8459 172.68C22.8459 172.68 23.4459 170.64 23.6859 165C24.1659 153.36 24.5259 133.32 23.6859 119.4C23.4459 115.56 23.2059 111.72 20.2059 111.72C19.2459 111.72 18.2859 112.08 17.5659 112.08C15.2859 112.08 14.3259 109.92 14.3259 108.24C14.3259 106.08 15.7659 104.4 17.5659 104.4C23.5659 104.4 29.5659 104.64 36.2859 104.64C46.2459 104.64 54.8859 104.4 64.0059 104.4C65.9259 104.4 67.3659 105.84 67.3659 108.36C67.3659 109.8 66.5259 112.32 64.0059 112.32ZM23.954 282.16C19.514 282.16 14.594 283 12.194 283C10.154 283 9.19399 282.16 9.19399 279.64C9.19399 271.84 30.674 239.32 30.674 220.36C30.674 215.92 27.434 214.72 25.394 214.72C24.194 214.72 22.754 215.2 21.674 215.2C19.034 215.2 17.714 213.16 17.714 211.12C17.714 209.2 19.034 207.28 21.674 207.28C25.754 207.28 40.394 208.12 48.434 208.12C55.874 208.12 62.834 207.4 64.514 207.4C67.514 207.4 69.794 209.08 69.794 213.28C69.794 228.28 80.834 261.28 88.154 274.48C89.714 277.24 90.674 278.44 90.674 280.12C90.674 281.68 89.714 283 87.914 283C85.034 283 78.194 282.16 70.874 282.16C64.874 282.16 51.074 283 49.754 283C47.234 283 46.394 281.32 46.394 279.16C46.394 277 47.714 275.32 49.754 275.32C50.714 275.32 51.794 275.68 54.314 275.68C57.074 275.68 59.234 273.76 59.234 268.72C59.234 261.04 57.794 260.44 45.554 260.44C34.754 260.44 33.674 261.88 33.674 265.48C33.674 272.68 40.874 274.48 40.874 279.04C40.874 281.2 39.914 283 37.634 283C35.954 283 27.794 282.16 23.954 282.16ZM34.634 246.52C34.634 251.32 35.234 253 43.514 253C54.194 253 55.154 251.08 55.274 247.96C55.394 242.92 52.754 229.6 49.514 223.12C47.474 219.04 46.634 218.2 44.714 218.2C38.954 218.2 34.634 233.68 34.634 246.52ZM36.3449 366.8C36.3449 363.44 34.5449 358.16 31.5449 352.64C25.6649 341.84 17.2649 328.88 12.2249 321.92C9.34493 317.96 7.42493 316.16 7.42493 313.88C7.42493 311.36 8.50493 310.4 10.7849 310.4C13.7849 310.4 21.9449 311 30.5849 311C35.2649 311 45.9449 310.4 47.0249 310.4C49.3049 310.4 50.5049 312.08 50.5049 314.24C50.5049 317 49.3049 318.08 47.0249 318.08C46.1849 318.08 45.2249 317.72 44.1449 317.72C42.2249 317.72 41.0249 318.8 41.0249 320.96C41.0249 327.8 43.7849 334.04 49.5449 347.72C51.2249 351.68 53.7449 353.6 56.2649 353.6C59.8649 353.6 62.0249 348.56 62.0249 341.72C62.0249 323.36 58.5449 322.04 58.5449 314.24C58.5449 311.84 59.6249 310.4 62.0249 310.4C63.3449 310.4 66.4649 311 72.2249 311C79.7849 311 83.1449 310.4 85.6649 310.4C88.1849 310.4 89.5049 311.12 89.5049 313.88C89.5049 318.56 83.9849 326.48 74.0249 342.32C64.1849 358.04 61.6649 362 61.6649 370.64C61.6649 377.84 65.2649 378.68 68.5049 378.68C70.9049 378.68 72.4649 378.32 74.1449 378.32C76.1849 378.32 77.2649 380 77.2649 382.16C77.2649 383.84 76.1849 386 74.1449 386C69.9449 386 57.4649 385.76 48.8249 385.76C40.4249 385.76 28.3049 386 24.2249 386C22.1849 386 21.1049 383.84 21.1049 382.16C21.1049 380 22.1849 378.32 24.2249 378.32C25.9049 378.32 27.4649 378.68 29.8649 378.68C32.9849 378.68 36.3449 377.6 36.3449 366.8ZM13.1156 481.32C13.7156 481.32 14.9156 481.68 15.2756 481.68C18.2756 481.68 18.8756 479.64 19.1156 474C19.3556 466.68 19.7156 456.48 19.7156 445.92C19.7156 439.8 19.4756 433.56 19.1156 428.28C18.8756 424.44 18.6356 420.72 15.6356 420.72C14.6756 420.72 13.7156 421.08 13.1156 421.08C10.8356 421.08 9.87556 419.4 9.87556 417.24C9.87556 415.08 11.3156 413.4 13.1156 413.4C19.3556 413.4 25.3556 413.88 32.3156 413.88C43.7156 413.88 70.4756 413.4 77.6756 413.4C80.5556 413.4 82.4756 414.96 82.4756 417.48C82.4756 419.4 82.1156 422.76 82.1156 427.32C82.1156 430.8 82.5956 434.4 82.5956 435.84C82.5956 438.36 81.3956 440.4 79.1156 440.4C71.4356 440.4 67.2356 420.96 50.1956 420.96C46.1156 420.96 44.9156 424.68 44.3156 428.52C43.7156 432.72 43.5956 437.64 43.4756 442.56C43.4756 444.36 44.4356 445.44 45.9956 445.44C54.1556 445.44 58.8356 436.8 64.4756 436.8C65.9156 436.8 66.9956 437.76 66.9956 440.4C66.9956 442.68 66.6356 445.2 66.6356 449.52C66.6356 455.64 66.7556 458.04 66.7556 460.2C66.7556 462.96 65.3156 463.44 63.8756 463.44C58.3556 463.44 55.8356 452.76 46.2356 452.76C44.1956 452.76 43.4756 453.96 43.4756 456C43.4756 462.72 43.4756 469.68 43.8356 474C44.3156 479.28 45.5156 481.2 49.9556 481.2C68.3156 481.2 72.0356 461.04 80.0756 461.04C82.2356 461.04 83.0756 462.84 83.0756 464.88C83.0756 466.32 82.3556 470.04 82.3556 473.52C82.3556 478.68 83.0756 482.28 83.0756 484.56C83.0756 487.2 81.3956 489 78.7556 489C70.1156 489 48.0356 488.28 32.5556 488.28C25.9556 488.28 16.3556 489 13.1156 489C10.8356 489 9.87556 487.32 9.87556 485.04C9.87556 482.88 11.3156 481.32 13.1156 481.32ZM59.0456 538.12C59.0456 527.44 56.8856 523.36 49.0856 523.36C41.0456 523.36 39.8456 526.36 39.8456 549.76C39.8456 554.44 40.5656 555.4 42.4856 555.4C53.7656 555.4 59.0456 549.52 59.0456 538.12ZM80.5256 577.36C83.5256 577.36 84.4856 575.44 84.4856 572.56C84.4856 569.56 82.4456 566.2 82.4456 564.04C82.4456 562 83.6456 560.2 86.1656 560.2C89.7656 560.2 90.4856 562.12 90.4856 569.8C90.4856 584.56 88.6856 593.08 72.7256 593.2C61.3256 593.2 55.6856 589.6 55.6856 579.88C55.6856 576.64 56.0456 573.04 56.0456 569.2C56.0456 565.96 54.3656 564.04 49.2056 564.04C43.3256 564.04 40.0856 566.56 40.0856 571C40.0856 573.28 40.2056 576.52 40.3256 578.44C40.5656 583 41.1656 584.68 44.2856 584.68C44.8856 584.68 46.5656 584.44 47.5256 584.44C49.5656 584.44 50.6456 586.24 50.6456 588.16C50.6456 589.84 49.5656 592 47.5256 592C44.2856 592 35.1656 591.76 28.8056 591.76C22.2056 591.76 12.4856 592 9.24556 592C6.96556 592 6.00556 590.32 6.00556 588.16C6.00556 586 7.44556 584.32 9.24556 584.32C9.96556 584.32 11.1656 584.68 11.5256 584.68C14.5256 584.68 15.1256 582.64 15.3656 577C15.6056 569.92 15.9656 559.96 15.9656 549.88C15.9656 543.4 15.7256 536.92 15.3656 531.28C15.1256 527.44 14.8856 523.72 11.8856 523.72C10.9256 523.72 9.96556 524.08 9.24556 524.08C6.96556 524.08 6.00556 522.4 6.00556 520.24C6.00556 518.08 7.44556 516.4 9.24556 516.4C15.2456 516.4 21.2456 516.64 27.9656 516.64C36.2456 516.64 52.3256 515.92 59.7656 515.92C74.8856 515.92 83.8856 521.8 83.8856 535.12C83.8856 551.32 72.4856 554.44 60.0056 556.36C58.6856 556.6 57.9656 557.44 57.9656 558.4C57.9656 559.12 58.8056 560.08 60.2456 560.08C70.0856 560.08 75.0056 562.24 75.9656 572.92C76.2056 575.92 77.8856 577.36 80.5256 577.36Z" fill="#FDE9E9"/>
</svg>
