<svg width="650" height="354" viewBox="0 0 650 354" fill="none" xmlns="http://www.w3.org/2000/svg">
<path d="M649.44 161.73C597.06 192.06 425.61 288.99 284.85 326.43C210.51 346.23 165.96 343.71 139.23 321.48C132.84 316.17 123.66 308.52 120.42 296.19C102.87 229.95 277.74 110.34 418.95 48.51C478.62 22.41 529.38 7.83 560.7 0C590.31 53.91 619.83 107.91 649.44 161.82V161.73Z" fill="#631A86"/>
<path d="M237.42 329.94C244.26 323.91 253.53 314.01 259.11 299.52C264.42 285.93 262.89 277.56 264.24 271.44C271.53 239.76 360.72 257.58 456.57 221.94C494.91 207.63 522.27 189.36 599.13 163.71C627.84 154.17 637.92 152.01 638.91 154.26C641.7 160.2 575.37 197.55 532.26 219.78C495.27 238.86 468.09 250.65 428.49 267.75C346.59 303.12 311.67 313.02 295.83 317.16C271.53 323.55 251.19 327.51 237.42 329.94Z" fill="#3B1050"/>
<path d="M183.78 168.39C187.83 160.56 192.51 156.06 196.02 153.45C200.43 150.12 201.96 150.48 211.32 144.99C215.73 142.38 220.59 139.32 226.53 135.18C243.36 123.66 252.54 118.98 263.88 112.68C293.22 96.3899 298.44 93.5999 301.41 95.9399C304.2 98.0999 302.76 102.96 302.58 109.08C302.13 128.61 316.35 143.19 322.56 151.2C356.31 194.67 347.67 289.35 377.82 296.19C381.06 296.91 385.56 296.73 386.1 298.71C387.18 302.76 369.18 310.59 347.94 319.77C332.73 326.34 324.99 329.4 314.37 333.36C275.94 347.67 215.37 357.3 202.41 348.84C200.79 347.76 192.78 341.73 192.96 340.47C195.57 340.2 204.03 336.06 207.54 333.99C215.1 329.49 239.49 321.57 242.19 254.97C244.8 190.8 209.79 184.23 202.41 178.2C195.75 172.71 188.82 170.01 183.78 168.48V168.39Z" fill="#631A86"/>
<path d="M252.9 264.51C272.43 261.09 267.75 258.48 278.55 257.04C295.29 254.7 302.31 254.34 313.29 251.73C330.12 247.59 343.08 241.47 351.45 236.97C353.25 247.59 355.32 256.41 357.03 262.98C362.25 283.05 365.4 286.92 367.65 289.08C376.02 297.18 385.65 295.29 386.19 298.8C386.91 303.84 367.29 310.41 337.86 320.4C299.16 333.54 289.98 336.87 281.97 339.12C279.54 339.84 277.38 340.38 275.58 340.83C225.45 353.61 212.04 348.84 206.19 346.05C204.75 345.33 202.23 344.07 199.35 341.91C206.82 338.94 216.27 333.99 224.91 325.44C232.02 318.42 236.07 311.58 238.23 307.89C242.1 301.23 244.17 295.74 246.06 290.52C248.4 284.31 251.1 275.58 252.99 264.69L252.9 264.51Z" fill="#3B1050"/>
<path d="M303.12 100.08C302.58 102.42 301.86 105.93 301.86 110.34C301.77 131.58 317.61 147.06 321.84 152.46C358.2 199.35 335.61 279.18 377.1 297.45C378.45 298.08 379.62 298.44 380.07 298.62C380.88 297.81 381.6 297.09 382.41 296.28C379.98 295.2 375.75 293.22 371.52 289.53C349.47 270.45 362.61 239.04 345.69 189C341.55 176.58 338.58 167.76 331.11 157.77C322.83 146.61 317.25 144.9 310.05 131.76C305.37 123.12 302.94 115.02 302.76 106.47C302.76 103.86 302.85 101.61 303.03 100.08H303.12Z" fill="#3B1050"/>
<path d="M649.44 162.73C597.06 193.06 425.61 289.99 284.85 327.43C210.51 347.23 165.96 344.71 139.23 322.48C132.84 317.17 123.66 309.52 120.42 297.19C102.87 230.95 277.74 111.34 418.95 49.51C478.62 23.41 529.38 8.83 560.7 1C590.31 54.91 619.83 108.91 649.44 162.82V162.73Z" fill="#631A86"/>
<path d="M237.42 330.94C244.26 324.91 253.53 315.01 259.11 300.52C264.42 286.93 262.89 278.56 264.24 272.44C271.53 240.76 360.72 258.58 456.57 222.94C494.91 208.63 522.27 190.36 599.13 164.71C627.84 155.17 637.92 153.01 638.91 155.26C641.7 161.2 575.37 198.55 532.26 220.78C495.27 239.86 468.09 251.65 428.49 268.75C346.59 304.12 311.67 314.02 295.83 318.16C271.53 324.55 251.19 328.51 237.42 330.94Z" fill="#3B1050"/>
<path d="M183.78 169.39C187.83 161.56 192.51 157.06 196.02 154.45C200.43 151.12 201.96 151.48 211.32 145.99C215.73 143.38 220.59 140.32 226.53 136.18C243.36 124.66 252.54 119.98 263.88 113.68C293.22 97.3899 298.44 94.5999 301.41 96.9399C304.2 99.0999 302.76 103.96 302.58 110.08C302.13 129.61 316.35 144.19 322.56 152.2C356.31 195.67 347.67 290.35 377.82 297.19C381.06 297.91 385.56 297.73 386.1 299.71C387.18 303.76 369.18 311.59 347.94 320.77C332.73 327.34 324.99 330.4 314.37 334.36C275.94 348.67 215.37 358.3 202.41 349.84C200.79 348.76 192.78 342.73 192.96 341.47C195.57 341.2 204.03 337.06 207.54 334.99C215.1 330.49 239.49 322.57 242.19 255.97C244.8 191.8 209.79 185.23 202.41 179.2C195.75 173.71 188.82 171.01 183.78 169.48V169.39Z" fill="#631A86"/>
<path d="M252.9 265.51C272.43 262.09 267.75 259.48 278.55 258.04C295.29 255.7 302.31 255.34 313.29 252.73C330.12 248.59 343.08 242.47 351.45 237.97C353.25 248.59 355.32 257.41 357.03 263.98C362.25 284.05 365.4 287.92 367.65 290.08C376.02 298.18 385.65 296.29 386.19 299.8C386.91 304.84 367.29 311.41 337.86 321.4C299.16 334.54 289.98 337.87 281.97 340.12C279.54 340.84 277.38 341.38 275.58 341.83C225.45 354.61 212.04 349.84 206.19 347.05C204.75 346.33 202.23 345.07 199.35 342.91C206.82 339.94 216.27 334.99 224.91 326.44C232.02 319.42 236.07 312.58 238.23 308.89C242.1 302.23 244.17 296.74 246.06 291.52C248.4 285.31 251.1 276.58 252.99 265.69L252.9 265.51Z" fill="#3B1050"/>
<path d="M303.12 101.08C302.58 103.42 301.86 106.93 301.86 111.34C301.77 132.58 317.61 148.06 321.84 153.46C358.2 200.35 335.61 280.18 377.1 298.45C378.45 299.08 379.62 299.44 380.07 299.62C380.88 298.81 381.6 298.09 382.41 297.28C379.98 296.2 375.75 294.22 371.52 290.53C349.47 271.45 362.61 240.04 345.69 190C341.55 177.58 338.58 168.76 331.11 158.77C322.83 147.61 317.25 145.9 310.05 132.76C305.37 124.12 302.94 116.02 302.76 107.47C302.76 104.86 302.85 102.61 303.03 101.08H303.12Z" fill="#3B1050"/>
<path d="M224.46 190.36C230.13 197.47 236.88 212.68 236.88 212.68C238.68 216.82 240.03 221.32 241.02 227.08C248.49 268.21 222.93 319.78 183.51 338.14C176.85 341.29 170.91 342.91 165.06 343.54C146.7 345.52 126.9 347.41 54.9897 323.11C21.9597 312.04 12.8697 307.54 6.74974 297.1C-1.17026 283.78 -2.34027 263.98 4.40973 259.57C8.54973 256.87 15.2997 256.6 15.2097 255.61C15.2097 254.98 12.2397 255.34 10.1697 254.53C-1.26027 250.21 0.989722 202.78 13.6797 199.27C16.3797 198.55 20.6997 199.45 20.8797 198.64C20.9697 198.01 18.2697 197.29 16.9197 196.3C7.73973 190.27 16.1097 149.68 31.5897 146.8C35.4597 146.08 40.2297 147.61 40.4997 146.8C40.6797 145.99 35.6397 145.18 33.0297 142.48C25.6497 134.83 33.0297 105.67 50.4897 98.3803C55.0797 96.4903 66.9597 99.7303 90.8097 106.3C105.39 110.35 115.29 114.49 129.24 121.51C129.24 121.51 195.03 152.92 224.64 190.27L224.46 190.36Z" fill="#F8C8C9"/>
<path d="M225.09 305.92C223.38 308.17 219.42 312.76 212.67 314.92C210.06 315.73 207.72 316 205.83 316.09C202.41 316.27 197.28 316.27 191.7 314.56C179.55 310.96 172.71 302.32 164.16 291.16C129.96 246.79 124.83 239.32 118.26 226.81C114.48 219.61 108.81 208.09 109.26 207.91C109.53 207.73 111.96 212.05 115.38 217.45C121.41 226.9 126.36 232.93 136.26 244.99C145.71 256.42 154.35 265.96 161.82 273.7C169.11 281.26 172.98 285.31 180.9 292.06C189.27 299.26 195.03 303.67 200.7 306.73C205.83 309.52 221.85 305.29 225.09 305.92Z" fill="#F0B7B9"/>
<path d="M220.32 296.74C217.89 294.67 202.68 318.7 173.07 329.86C156.78 335.98 142.65 335.8 126.9 335.53C91.6198 334.9 69.2098 324.64 69.0298 325.09C68.7598 326.08 138.51 354.7 179.19 337.69C198.09 329.77 210.42 314.47 210.42 314.47C216 307.54 221.76 298 220.23 296.74H220.32Z" fill="#F0B7B9"/>
<path d="M109.08 208.631C103.86 208.631 105.66 227.261 91.1699 237.521C82.7999 243.461 73.7099 243.281 70.5599 243.281C57.0599 243.101 41.2199 235.361 40.5899 226.361C40.4999 225.101 40.7699 223.931 40.9499 223.211C40.4099 224.651 39.5999 227.261 40.2299 230.231C42.8399 242.651 67.6799 249.671 86.3999 246.791C87.8399 246.611 98.0999 244.901 108.27 237.791C113.31 234.281 114.57 232.031 115.02 230.951C119.52 221.951 113.31 208.631 108.99 208.541L109.08 208.631Z" fill="#F0B7B9"/>
<path d="M19.0796 253.36C70.5596 262.45 109.35 263.62 117.9 256.96C124.83 251.65 126.27 245.26 126.27 245.26C127.26 240.58 126.09 236.08 125.55 236.08C125.01 236.08 125.28 239.32 123.03 242.83C123.03 242.83 121.86 244.63 119.88 246.34C111.69 253.18 90.5396 254.53 90.5396 254.53C78.2996 255.25 68.3096 255.25 62.1896 255.07C57.6896 255.07 55.7996 254.89 37.7096 254.08C29.7896 253.72 23.3996 253.45 19.1696 253.27L19.0796 253.36Z" fill="#F0B7B9"/>
<path d="M22.5896 196.93C22.5896 196.93 23.3096 198.01 23.1296 199.18C22.9496 200.62 21.7796 201.25 21.5996 201.43C26.7296 201.97 30.7796 202.33 33.2096 202.6C43.2896 203.68 48.4196 204.22 55.6196 204.49C59.4896 204.67 61.1996 204.67 62.0096 204.58C67.7696 204.49 72.3596 203.68 75.5096 203.05C65.8796 203.23 54.6296 202.78 42.2996 200.89C35.0996 199.81 28.5296 198.37 22.4996 196.84L22.5896 196.93Z" fill="#F0B7B9"/>
<path d="M16.6496 258.58C29.0696 258.49 45.5396 258.4 64.8896 258.58C80.3696 258.67 88.0196 258.94 97.4696 263.17C102.87 265.6 115.47 271.36 119.7 284.77C120.24 286.39 123.84 298 117.99 306.64C112.77 314.29 99.7196 314.83 73.7996 315.55C57.5996 316 35.6396 315.55 19.6196 306.37C17.8196 305.38 15.5696 303.94 13.1396 301.6C2.78964 291.79 2.60964 278.2 2.51964 274.42C2.42964 269.02 2.42965 265.24 5.30965 262.18C9.17965 258.13 15.3896 258.58 16.8296 258.76L16.6496 258.58Z" fill="#F8C8C9"/>
<path d="M29.6099 310.69C29.6099 310.69 89.1899 328.69 110.79 318.7C113.04 317.62 119.7 314.56 121.59 308.35C122.94 303.94 121.41 299.17 120.87 299.17C120.33 299.17 120.6 302.41 118.35 305.92C118.35 305.92 117.18 307.81 115.2 309.43C109.26 314.47 88.9199 315.01 83.5199 315.19C67.4099 315.55 62.7299 315.64 56.1599 315.28C51.2999 315.01 45.8099 314.56 39.0599 313.21C32.5799 311.95 29.6999 310.69 29.6999 310.69H29.6099Z" fill="#F0B7B9"/>
<path d="M81.7198 162.46C73.2598 168.13 75.6898 172.63 61.4698 194.5C46.7098 217.27 39.0598 220.24 40.8598 227.53C43.7398 239.14 67.1398 247.15 83.7898 241.21C90.1798 238.96 94.4098 235.09 95.2198 234.28C106.47 223.39 108.99 212.95 109.17 207.73C109.17 206.92 109.44 206.38 109.8 206.2C118.17 201.61 181.53 319.51 217.53 310.15C244.8 303.04 256.32 222.67 229.95 186.85C214.02 165.25 193.5 158.95 193.5 158.95C187.65 157.15 182.79 155.08 176.49 156.16C157.59 159.22 141.93 159.58 130.68 159.31C104.94 158.68 93.5998 154.27 81.7198 162.37V162.46Z" fill="#F8C8C9"/>
<path d="M57.2397 200.8C58.0497 199.63 63.6298 191.35 67.3198 184.87C68.6698 182.62 69.2997 181.45 69.9297 180.19C71.8197 176.59 72.3597 175.15 74.4297 172.09C78.3897 166.24 80.3698 163.18 84.3298 160.84C88.6498 158.32 92.6997 158.14 99.3597 157.78C105.03 157.51 107.37 158.14 117 158.77C117 158.77 122.67 159.13 129.96 159.31C144.9 159.76 156.33 158.77 156.33 158.77C156.33 158.77 148.23 159.67 137.25 159.13C128.34 158.68 126.63 157.78 113.13 156.07C88.7397 152.92 84.3297 154.72 81.3597 156.61C77.3997 159.22 75.5097 162.73 72.1797 168.85C67.7697 176.95 68.3998 180.82 63.0898 190.99C60.0298 196.93 57.2397 200.8 57.3297 200.8H57.2397Z" fill="#F0B7B9"/>
<path d="M39.6897 149.32C41.0397 149.41 42.2997 148.6 42.5697 147.43C42.8397 146.53 42.4797 145.45 41.6697 144.82C44.3697 145.63 48.5097 146.89 53.6397 148.42C59.3997 150.13 60.5697 150.4 62.2797 150.94C66.3297 152.2 72.1797 154.45 79.1097 158.41C73.7997 156.61 67.8597 154.81 61.4697 153.28C53.6397 151.39 46.2597 150.13 39.6897 149.41V149.32Z" fill="#F0B7B9"/>
</svg>
