<?xml version="1.0" encoding="utf-8"?>
<!-- Generator: Adobe Illustrator 27.5.0, SVG Export Plug-In . SVG Version: 6.00 Build 0)  -->
<svg version="1.1" id="Ebene_1" xmlns="http://www.w3.org/2000/svg" xmlns:xlink="http://www.w3.org/1999/xlink" x="0px" y="0px"
	 viewBox="0 0 800 354" style="enable-background:new 0 0 800 354;" xml:space="preserve">
<style type="text/css">
	.st0{fill:#F01427;}
	.st1{fill:#DF0E20;}
	.st2{fill:#F8C8C9;}
	.st3{fill:#F0B7B9;}
</style>
<g>
	<g>
		<path class="st0" d="M112.4,9.6c31.9,4.8,137,29.3,198.9,49.6C457.8,107.5,643.1,210,631.9,277.6c-2.1,12.6-10.5,21.1-16.3,27
			c-24.5,24.7-68.6,31.4-144.5,18.7C328.2,302.4,105.9,202,50.9,176.8C50.9,176.8,90.5,69.1,112.4,9.6z"/>
		<path class="st1" d="M459.3,315.1c-16.2-2.6-51.9-9.2-136.7-36.7c-41-13.3-69.2-22.5-107.8-38c-45-18.1-114.6-49-112.4-55.2
			c0.8-2.3,11-1.1,40.5,5.7c78.9,18.3,107.9,33.9,147.4,44.5c98.8,26.4,185.9,0.3,196.1,31.1c1.9,6,1.2,14.4,7.8,27.5
			c6.9,13.9,17.1,22.9,24.5,28.2C504.7,321.1,484.1,319.1,459.3,315.1z"/>
		<path class="st0" d="M556.8,156.5c-4.9,2-11.5,5.3-17.6,11.4c-6.8,6.7-41,16.5-32.4,80.2c9,66,34,71.6,42,75.4
			c3.7,1.7,12.5,5.1,15.1,5.1c0.3,1.2-7.1,8-8.6,9.2c-12.1,9.6-73.3,5.8-112.9-4.8c-10.9-2.9-18.9-5.3-34.7-10.4
			c-22-7.1-40.7-13.2-40-17.4c0.4-2,4.8-2.3,8-3.3c29.4-9.7,11.8-103.1,41.3-149.6c5.4-8.6,18.2-24.4,15.9-43.8
			c-0.8-6.1-2.6-10.8-0.1-13.2c2.7-2.6,8.2-0.3,38.9,13.1c11.9,5.2,21.5,9,39.3,18.9c6.3,3.6,11.4,6.1,16.1,8.3
			c9.8,4.6,11.3,4.1,16,7C546.9,144.9,552,149,556.8,156.5L556.8,156.5z"/>
		<path class="st1" d="M497,258.8c2.9,10.7,6.4,19.1,9.3,25.1c2.4,5,5,10.3,9.4,16.6c2.5,3.5,7.2,9.9,14.9,16.2
			c9.4,7.7,19.3,11.7,27,14c-2.7,2.4-5.1,3.9-6.4,4.8c-5.6,3.3-18.5,9.3-69.6,1.4c-1.8-0.3-4-0.6-6.5-1.1
			c-8.2-1.5-17.6-3.9-57.4-13.4c-30.2-7.2-50.4-11.9-50.2-16.9c0.2-3.5,10-2.6,17.5-11.4c2-2.4,4.8-6.5,8.1-27
			c1.1-6.7,2.3-15.7,3.1-26.4c8.8,3.7,22.2,8.6,39.4,11.1c11.2,1.6,18.2,1.3,35.1,2c10.9,0.4,6.5,3.5,26.2,5L497,258.8z"/>
		<path class="st1" d="M431.6,99.6c0.3,1.5,0.6,3.7,0.9,6.3c0.6,8.5-1,16.8-4.9,25.9c-5.9,13.8-11.3,16-18.5,27.9
			c-6.5,10.7-8.6,19.7-11.6,32.5c-12.1,51.4,3.9,81.4-16.2,102.5c-3.9,4.1-7.9,6.4-10.2,7.7c0.9,0.7,1.7,1.4,2.6,2.1
			c0.4-0.2,1.6-0.7,2.8-1.4c39.6-22.1,9.6-99.4,41.3-149.6c3.7-5.8,18-22.7,15.9-43.8C433.3,105.3,432.3,101.9,431.6,99.6
			L431.6,99.6z"/>
		<path class="st0" d="M92.7,194.8c24.4-56.5,48.7-113,73.1-169.5c31.9,4.8,83.8,14.6,145.7,34.9C457.9,108.4,643.2,211,632,278.6
			c-2.1,12.6-10.5,21.1-16.3,27c-24.5,24.7-68.6,31.4-144.5,18.7C327.5,300.3,147.7,220,92.7,194.8L92.7,194.8z"/>
		<path class="st1" d="M459.4,316c-16.2-2.6-51.9-9.2-136.7-36.7c-41-13.3-69.2-22.5-107.8-38c-45-18.1-114.6-49-112.4-55.2
			c0.8-2.3,11-1.1,40.5,5.7c78.9,18.3,107.9,33.9,147.4,44.5c98.8,26.4,185.9,0.3,196.1,31.1c1.9,6,1.2,14.4,7.8,27.5
			c6.9,13.9,17.1,22.9,24.5,28.2C504.8,322.1,484.2,320.1,459.4,316z"/>
		<path class="st0" d="M556.9,157.5c-4.9,2-11.5,5.3-17.6,11.4c-6.8,6.7-41,16.5-32.4,80.2c9,66,34,71.6,42,75.4
			c3.7,1.7,12.5,5.1,15.1,5.1c0.3,1.2-7.1,8-8.6,9.2c-12.1,9.6-73.3,5.8-112.9-4.8c-10.9-2.9-18.9-5.3-34.7-10.4
			c-22-7.1-40.7-13.2-40-17.4c0.4-2,4.8-2.3,8-3.3c29.4-9.7,11.8-103.1,41.3-149.6c5.4-8.6,18.2-24.4,15.9-43.8
			c-0.8-6.1-2.6-10.8-0.1-13.2c2.7-2.6,8.2-0.3,38.9,13.1c11.9,5.2,21.5,9,39.3,18.9c6.3,3.6,11.4,6.1,16.1,8.3
			c9.8,4.6,11.3,4.1,16,7C547,145.9,552.1,150,556.9,157.5L556.9,157.5z"/>
		<path class="st1" d="M497.1,259.8c2.9,10.7,6.4,19.1,9.3,25.1c2.4,5,5,10.3,9.4,16.6c2.5,3.5,7.2,9.9,14.9,16.2
			c9.4,7.7,19.2,16.1,26.9,18.3c-2.7,2.4-5.1,3.9-6.4,4.8c-5.6,3.3-33.7,7.2-92.1-2.9c-41.8-9-77.2-21.8-91.4-31.5
			c0.2-3.5,10-2.6,17.5-11.4c2-2.4,4.8-6.5,8.1-27c1.1-6.7,2.3-15.7,3.1-26.4c8.8,3.7,22.2,8.6,39.4,11.1c11.2,1.6,18,5,34.9,5.7
			c10.9,0.4,6.6-0.2,26.4,1.3L497.1,259.8z"/>
		<path class="st1" d="M431.7,100.6c0.3,1.5,0.6,3.7,0.9,6.3c0.6,8.5-1,16.8-4.9,25.9c-5.9,13.8-11.3,16-18.5,27.9
			c-6.5,10.7-8.6,19.7-11.6,32.5c-12.1,51.4,3.9,81.4-16.2,102.5c-3.9,4.1-7.9,6.4-10.2,7.7c0.9,0.7,1.7,1.4,2.6,2.1
			c0.4-0.2,1.6-0.7,2.8-1.4c39.6-22.1,9.6-99.4,41.3-149.6c3.7-5.8,18-22.7,15.9-43.8C433.4,106.3,432.4,102.9,431.7,100.6
			L431.7,100.6z"/>
	</g>
	<g>
		<path class="st2" d="M524.5,190.1c29.6-37.4,95.4-68.8,95.4-68.8c14-7,23.9-11.2,38.4-15.2c23.8-6.6,35.7-9.8,40.3-7.9
			c17.5,7.3,24.8,36.4,17.5,44.1c-2.6,2.7-7.7,3.5-7.5,4.3c0.3,0.8,5-0.7,8.9,0c15.5,2.9,23.8,43.5,14.7,49.5c-1.3,1-4,1.7-4,2.3
			c0.2,0.8,4.5-0.1,7.2,0.6c12.7,3.5,14.9,50.9,3.5,55.3c-2.1,0.8-5,0.4-5,1.1c-0.1,1,6.7,1.3,10.8,4c6.8,4.4,5.6,24.2-2.3,37.5
			c-6.1,10.4-15.2,14.9-48.2,26c-71.9,24.3-91.7,22.4-110.1,20.4c-5.9-0.6-11.8-2.2-18.5-5.4c-39.4-18.4-65-69.9-57.5-111.1
			c1-5.8,2.3-10.3,4.1-14.4c0,0,6.8-15.2,12.4-22.3L524.5,190.1z"/>
		<path class="st3" d="M548.4,306.5c5.7-3.1,11.4-7.5,19.8-14.7c7.9-6.8,11.8-10.8,19.1-18.4c7.5-7.7,16.1-17.3,25.6-28.7
			c9.9-12.1,14.8-18.1,20.9-27.5c3.4-5.4,5.8-9.7,6.1-9.5c0.5,0.2-5.2,11.7-9,18.9c-6.6,12.5-11.7,20-45.9,64.4
			c-8.5,11.2-15.4,19.8-27.5,23.4c-5.6,1.7-10.7,1.7-14.1,1.5c-1.9-0.1-4.2-0.4-6.8-1.2c-6.8-2.2-10.7-6.8-12.4-9
			C527.2,305.1,543.3,309.3,548.4,306.5z"/>
		<path class="st3" d="M528.9,296.5c-1.5,1.3,4.2,10.8,9.8,17.7c0,0,12.3,15.3,31.2,23.2c40.7,17,110.4-11.6,110.2-12.6
			c-0.2-0.4-22.6,9.8-57.9,10.4c-15.8,0.3-29.9,0.5-46.2-5.7C546.4,318.5,531.2,294.5,528.9,296.5L528.9,296.5z"/>
		<path class="st3" d="M640.1,208.3c-4.3,0.1-10.5,13.4-6,22.4c0.5,1.1,1.7,3.3,6.8,6.8c10.2,7.1,20.4,8.8,21.9,9
			c18.7,2.9,43.6-4.1,46.2-16.6c0.6-3-0.2-5.6-0.7-7c0.2,0.7,0.5,1.9,0.4,3.1c-0.6,9-16.5,16.7-30,16.9c-3.1,0-12.2,0.2-20.6-5.8
			C643.4,227.1,645.2,208.4,640.1,208.3L640.1,208.3z"/>
		<path class="st3" d="M729.9,253.1c-4.2,0.2-10.6,0.4-18.5,0.8c-18.1,0.8-20,1-24.5,1c-6.1,0.2-16.1,0.2-28.3-0.5
			c0,0-21.2-1.4-29.3-8.2c-2-1.7-3.2-3.5-3.2-3.5c-2.2-3.5-2-6.8-2.5-6.8c-0.5,0-1.7,4.5-0.7,9.2c0,0,1.4,6.4,8.4,11.7
			C639.7,263.4,678.5,262.2,729.9,253.1L729.9,253.1z"/>
		<path class="st3" d="M726.6,196.6c-6,1.5-12.6,3-19.8,4.1c-12.3,1.9-23.6,2.3-33.2,2.2c3.2,0.6,7.7,1.4,13.5,1.5
			c0.8,0.1,2.5,0.1,6.4-0.1c7.2-0.3,12.3-0.8,22.4-1.9c2.4-0.3,6.5-0.6,11.6-1.2c-0.2-0.2-1.4-0.8-1.5-2.2
			C725.8,197.8,726.5,196.7,726.6,196.6L726.6,196.6z"/>
		<path class="st2" d="M732.3,258.6c1.4-0.2,7.6-0.6,11.5,3.4c2.9,3.1,2.9,6.8,2.8,12.2c-0.1,3.8-0.3,17.4-10.6,27.2
			c-2.4,2.3-4.7,3.8-6.5,4.8c-16,9.2-38,9.6-54.2,9.2c-25.9-0.7-39-1.3-44.2-8.9c-5.9-8.6-2.2-20.2-1.7-21.9
			c4.2-13.4,16.8-19.2,22.2-21.6c9.5-4.2,17.1-4.5,32.6-4.6c19.4-0.2,35.8-0.1,48.2,0L732.3,258.6z"/>
		<path class="st3" d="M719.4,310.5c0,0-2.9,1.3-9.4,2.5c-6.8,1.4-12.2,1.8-17.1,2.1c-6.6,0.4-11.2,0.3-27.4-0.1
			c-5.4-0.2-25.7-0.7-31.7-5.8c-2-1.6-3.2-3.5-3.2-3.5c-2.2-3.5-2-6.8-2.5-6.8c-0.5,0-2.1,4.8-0.7,9.2c1.9,6.2,8.5,9.3,10.8,10.4
			C659.9,328.5,719.5,310.5,719.4,310.5L719.4,310.5z"/>
		<path class="st2" d="M667.4,162.2c-11.9-8.1-23.2-3.7-49-3.1c-11.2,0.3-26.9-0.1-45.8-3.1c-6.3-1.1-11.2,1-17,2.8
			c0,0-20.5,6.3-36.5,27.9c-26.4,35.8-14.9,116.2,12.4,123.3c36,9.4,99.4-108.5,107.7-103.9c0.4,0.2,0.6,0.7,0.6,1.5
			c0.2,5.2,2.7,15.7,14,26.6c0.8,0.8,5,4.7,11.4,6.9c16.6,5.9,40-2.1,42.9-13.7c1.8-7.3-5.9-10.3-20.6-33
			C673.4,172.4,675.8,167.9,667.4,162.2L667.4,162.2z"/>
		<path class="st3" d="M691.8,200.6c0.1,0-2.7-3.9-5.8-9.8c-5.3-10.2-4.7-14-9.1-22.1c-3.3-6.1-5.2-9.6-9.2-12.2
			c-3-1.9-7.4-3.7-31.8-0.5c-13.5,1.7-15.2,2.6-24.1,3.1c-11,0.5-19.1-0.4-19.1-0.4s11.4,1,26.4,0.5c7.3-0.2,13-0.5,13-0.5
			c9.6-0.6,12-1.3,17.6-1c6.7,0.4,10.7,0.5,15,3.1c4,2.3,5.9,5.4,9.9,11.2c2.1,3.1,2.6,4.5,4.5,8.1c0.6,1.3,1.3,2.4,2.6,4.7
			C685.5,191.1,691,199.4,691.8,200.6L691.8,200.6z"/>
		<path class="st3" d="M709.4,149.2c-6.6,0.7-14,2-21.8,3.9c-6.4,1.5-12.3,3.3-17.6,5.1c6.9-4,12.8-6.2,16.8-7.5
			c1.7-0.5,2.9-0.8,8.6-2.5c5.1-1.5,9.3-2.8,12-3.6c-0.8,0.6-1.2,1.7-0.9,2.6C706.8,148.4,708.1,149.2,709.4,149.2L709.4,149.2z"/>
	</g>
</g>
</svg>
