<svg width="650" height="354" viewBox="0 0 650 354" fill="none" xmlns="http://www.w3.org/2000/svg">
<path d="M0.559875 161.73C52.9399 192.06 224.39 288.99 365.15 326.43C439.49 346.23 484.04 343.71 510.77 321.48C517.16 316.17 526.34 308.52 529.58 296.19C547.13 229.95 372.26 110.34 231.05 48.51C171.38 22.41 120.62 7.83 89.2999 0C59.6899 53.91 30.1699 107.91 0.559875 161.82V161.73Z" fill="#F01427"/>
<path d="M412.58 329.94C405.74 323.91 396.47 314.01 390.89 299.52C385.58 285.93 387.11 277.56 385.76 271.44C378.47 239.76 289.28 257.58 193.43 221.94C155.09 207.63 127.73 189.36 50.8701 163.71C22.1601 154.17 12.0801 152.01 11.0901 154.26C8.30014 160.2 74.6301 197.55 117.74 219.78C154.73 238.86 181.91 250.65 221.51 267.75C303.41 303.12 338.33 313.02 354.17 317.16C378.47 323.55 398.81 327.51 412.58 329.94Z" fill="#DF0E20"/>
<path d="M466.22 168.39C462.17 160.56 457.49 156.06 453.98 153.45C449.57 150.12 448.04 150.48 438.68 144.99C434.27 142.38 429.41 139.32 423.47 135.18C406.64 123.66 397.46 118.98 386.12 112.68C356.78 96.3899 351.56 93.5999 348.59 95.9399C345.8 98.0999 347.24 102.96 347.42 109.08C347.87 128.61 333.65 143.19 327.44 151.2C293.69 194.67 302.33 289.35 272.18 296.19C268.94 296.91 264.44 296.73 263.9 298.71C262.82 302.76 280.82 310.59 302.06 319.77C317.27 326.34 325.01 329.4 335.63 333.36C374.06 347.67 434.63 357.3 447.59 348.84C449.21 347.76 457.22 341.73 457.04 340.47C454.43 340.2 445.97 336.06 442.46 333.99C434.9 329.49 410.51 321.57 407.81 254.97C405.2 190.8 440.21 184.23 447.59 178.2C454.25 172.71 461.18 170.01 466.22 168.48V168.39Z" fill="#F01427"/>
<path d="M397.1 264.51C377.57 261.09 382.25 258.48 371.45 257.04C354.71 254.7 347.69 254.34 336.71 251.73C319.88 247.59 306.92 241.47 298.55 236.97C296.75 247.59 294.68 256.41 292.97 262.98C287.75 283.05 284.6 286.92 282.35 289.08C273.98 297.18 264.35 295.29 263.81 298.8C263.09 303.84 282.71 310.41 312.14 320.4C350.84 333.54 360.02 336.87 368.03 339.12C370.46 339.84 372.62 340.38 374.42 340.83C424.55 353.61 437.96 348.84 443.81 346.05C445.25 345.33 447.77 344.07 450.65 341.91C443.18 338.94 433.73 333.99 425.09 325.44C417.98 318.42 413.93 311.58 411.77 307.89C407.9 301.23 405.83 295.74 403.94 290.52C401.6 284.31 398.9 275.58 397.01 264.69L397.1 264.51Z" fill="#DF0E20"/>
<path d="M346.88 100.08C347.42 102.42 348.14 105.93 348.14 110.34C348.23 131.58 332.39 147.06 328.16 152.46C291.8 199.35 314.39 279.18 272.9 297.45C271.55 298.08 270.38 298.44 269.93 298.62C269.12 297.81 268.4 297.09 267.59 296.28C270.02 295.2 274.25 293.22 278.48 289.53C300.53 270.45 287.39 239.04 304.31 189C308.45 176.58 311.42 167.76 318.89 157.77C327.17 146.61 332.75 144.9 339.95 131.76C344.63 123.12 347.06 115.02 347.24 106.47C347.24 103.86 347.15 101.61 346.97 100.08H346.88Z" fill="#DF0E20"/>
<path d="M0.56012 162.73C52.9401 193.06 224.39 289.99 365.15 327.43C439.49 347.23 484.04 344.71 510.77 322.48C517.16 317.17 526.34 309.52 529.58 297.19C547.13 230.95 372.26 111.34 231.05 49.51C171.38 23.41 120.62 8.83 89.3001 1C59.6901 54.91 30.1701 108.91 0.56012 162.82V162.73Z" fill="#F01427"/>
<path d="M412.58 330.94C405.74 324.91 396.47 315.01 390.89 300.52C385.58 286.93 387.11 278.56 385.76 272.44C378.47 240.76 289.28 258.58 193.43 222.94C155.09 208.63 127.73 190.36 50.8704 164.71C22.1604 155.17 12.0804 153.01 11.0904 155.26C8.30038 161.2 74.6304 198.55 117.74 220.78C154.73 239.86 181.91 251.65 221.51 268.75C303.41 304.12 338.33 314.02 354.17 318.16C378.47 324.55 398.81 328.51 412.58 330.94Z" fill="#DF0E20"/>
<path d="M466.22 169.39C462.17 161.56 457.49 157.06 453.98 154.45C449.57 151.12 448.04 151.48 438.68 145.99C434.27 143.38 429.41 140.32 423.47 136.18C406.64 124.66 397.46 119.98 386.12 113.68C356.78 97.3899 351.56 94.5999 348.59 96.9399C345.8 99.0999 347.24 103.96 347.42 110.08C347.87 129.61 333.65 144.19 327.44 152.2C293.69 195.67 302.33 290.35 272.18 297.19C268.94 297.91 264.44 297.73 263.9 299.71C262.82 303.76 280.82 311.59 302.06 320.77C317.27 327.34 325.01 330.4 335.63 334.36C374.06 348.67 434.63 358.3 447.59 349.84C449.21 348.76 457.22 342.73 457.04 341.47C454.43 341.2 445.97 337.06 442.46 334.99C434.9 330.49 410.51 322.57 407.81 255.97C405.2 191.8 440.21 185.23 447.59 179.2C454.25 173.71 461.18 171.01 466.22 169.48V169.39Z" fill="#F01427"/>
<path d="M397.1 265.51C377.57 262.09 382.25 259.48 371.45 258.04C354.71 255.7 347.69 255.34 336.71 252.73C319.88 248.59 306.92 242.47 298.55 237.97C296.75 248.59 294.68 257.41 292.97 263.98C287.75 284.05 284.6 287.92 282.35 290.08C273.98 298.18 264.35 296.29 263.81 299.8C263.09 304.84 282.71 311.41 312.14 321.4C350.84 334.54 360.02 337.87 368.03 340.12C370.46 340.84 372.62 341.38 374.42 341.83C424.55 354.61 437.96 349.84 443.81 347.05C445.25 346.33 447.77 345.07 450.65 342.91C443.18 339.94 433.73 334.99 425.09 326.44C417.98 319.42 413.93 312.58 411.77 308.89C407.9 302.23 405.83 296.74 403.94 291.52C401.6 285.31 398.9 276.58 397.01 265.69L397.1 265.51Z" fill="#DF0E20"/>
<path d="M346.88 101.08C347.42 103.42 348.14 106.93 348.14 111.34C348.23 132.58 332.39 148.06 328.16 153.46C291.8 200.35 314.39 280.18 272.9 298.45C271.55 299.08 270.38 299.44 269.93 299.62C269.12 298.81 268.4 298.09 267.59 297.28C270.02 296.2 274.25 294.22 278.48 290.53C300.53 271.45 287.39 240.04 304.31 190C308.45 177.58 311.42 168.76 318.89 158.77C327.17 147.61 332.75 145.9 339.95 132.76C344.63 124.12 347.06 116.02 347.24 107.47C347.24 104.86 347.15 102.61 346.97 101.08H346.88Z" fill="#DF0E20"/>
<path d="M425.54 190.36C419.87 197.47 413.12 212.68 413.12 212.68C411.32 216.82 409.97 221.32 408.98 227.08C401.51 268.21 427.07 319.78 466.49 338.14C473.15 341.29 479.09 342.91 484.94 343.54C503.3 345.52 523.1 347.41 595.01 323.11C628.04 312.04 637.13 307.54 643.25 297.1C651.17 283.78 652.34 263.98 645.59 259.57C641.45 256.87 634.7 256.6 634.79 255.61C634.79 254.98 637.76 255.34 639.83 254.53C651.26 250.21 649.01 202.78 636.32 199.27C633.62 198.55 629.3 199.45 629.12 198.64C629.03 198.01 631.73 197.29 633.08 196.3C642.26 190.27 633.89 149.68 618.41 146.8C614.54 146.08 609.77 147.61 609.5 146.8C609.32 145.99 614.36 145.18 616.97 142.48C624.35 134.83 616.97 105.67 599.51 98.3803C594.92 96.4903 583.04 99.7303 559.19 106.3C544.61 110.35 534.71 114.49 520.76 121.51C520.76 121.51 454.97 152.92 425.36 190.27L425.54 190.36Z" fill="#F8C8C9"/>
<path d="M424.91 305.92C426.62 308.17 430.58 312.76 437.33 314.92C439.94 315.73 442.28 316 444.17 316.09C447.59 316.27 452.72 316.27 458.3 314.56C470.45 310.96 477.29 302.32 485.84 291.16C520.04 246.79 525.17 239.32 531.74 226.81C535.52 219.61 541.19 208.09 540.74 207.91C540.47 207.73 538.04 212.05 534.62 217.45C528.59 226.9 523.64 232.93 513.74 244.99C504.29 256.42 495.65 265.96 488.18 273.7C480.89 281.26 477.02 285.31 469.1 292.06C460.73 299.26 454.97 303.67 449.3 306.73C444.17 309.52 428.15 305.29 424.91 305.92Z" fill="#F0B7B9"/>
<path d="M429.68 296.74C432.11 294.67 447.32 318.7 476.93 329.86C493.22 335.98 507.35 335.8 523.1 335.53C558.38 334.9 580.79 324.64 580.97 325.09C581.24 326.08 511.49 354.7 470.81 337.69C451.91 329.77 439.58 314.47 439.58 314.47C434 307.54 428.24 298 429.77 296.74H429.68Z" fill="#F0B7B9"/>
<path d="M540.92 208.631C546.14 208.631 544.34 227.261 558.83 237.521C567.2 243.461 576.29 243.281 579.44 243.281C592.94 243.101 608.78 235.361 609.41 226.361C609.5 225.101 609.23 223.931 609.05 223.211C609.59 224.651 610.4 227.261 609.77 230.231C607.16 242.651 582.32 249.671 563.6 246.791C562.16 246.611 551.9 244.901 541.73 237.791C536.69 234.281 535.43 232.031 534.98 230.951C530.48 221.951 536.69 208.631 541.01 208.541L540.92 208.631Z" fill="#F0B7B9"/>
<path d="M630.92 253.36C579.44 262.45 540.65 263.62 532.1 256.96C525.17 251.65 523.73 245.26 523.73 245.26C522.74 240.58 523.91 236.08 524.45 236.08C524.99 236.08 524.72 239.32 526.97 242.83C526.97 242.83 528.14 244.63 530.12 246.34C538.31 253.18 559.46 254.53 559.46 254.53C571.7 255.25 581.69 255.25 587.81 255.07C592.31 255.07 594.2 254.89 612.29 254.08C620.21 253.72 626.6 253.45 630.83 253.27L630.92 253.36Z" fill="#F0B7B9"/>
<path d="M627.41 196.93C627.41 196.93 626.69 198.01 626.87 199.18C627.05 200.62 628.22 201.25 628.4 201.43C623.27 201.97 619.22 202.33 616.79 202.6C606.71 203.68 601.58 204.22 594.38 204.49C590.51 204.67 588.8 204.67 587.99 204.58C582.23 204.49 577.64 203.68 574.49 203.05C584.12 203.23 595.37 202.78 607.7 200.89C614.9 199.81 621.47 198.37 627.5 196.84L627.41 196.93Z" fill="#F0B7B9"/>
<path d="M633.35 258.58C620.93 258.49 604.46 258.4 585.11 258.58C569.63 258.67 561.98 258.94 552.53 263.17C547.13 265.6 534.53 271.36 530.3 284.77C529.76 286.39 526.16 298 532.01 306.64C537.23 314.29 550.28 314.83 576.2 315.55C592.4 316 614.36 315.55 630.38 306.37C632.18 305.38 634.43 303.94 636.86 301.6C647.21 291.79 647.39 278.2 647.48 274.42C647.57 269.02 647.57 265.24 644.69 262.18C640.82 258.13 634.61 258.58 633.17 258.76L633.35 258.58Z" fill="#F8C8C9"/>
<path d="M620.39 310.69C620.39 310.69 560.81 328.69 539.21 318.7C536.96 317.62 530.3 314.56 528.41 308.35C527.06 303.94 528.59 299.17 529.13 299.17C529.67 299.17 529.4 302.41 531.65 305.92C531.65 305.92 532.82 307.81 534.8 309.43C540.74 314.47 561.08 315.01 566.48 315.19C582.59 315.55 587.27 315.64 593.84 315.28C598.7 315.01 604.19 314.56 610.94 313.21C617.42 311.95 620.3 310.69 620.3 310.69H620.39Z" fill="#F0B7B9"/>
<path d="M568.28 162.46C576.74 168.13 574.31 172.63 588.53 194.5C603.29 217.27 610.94 220.24 609.14 227.53C606.26 239.14 582.86 247.15 566.21 241.21C559.82 238.96 555.59 235.09 554.78 234.28C543.53 223.39 541.01 212.95 540.83 207.73C540.83 206.92 540.56 206.38 540.2 206.2C531.83 201.61 468.47 319.51 432.47 310.15C405.2 303.04 393.68 222.67 420.05 186.85C435.98 165.25 456.5 158.95 456.5 158.95C462.35 157.15 467.21 155.08 473.51 156.16C492.41 159.22 508.07 159.58 519.32 159.31C545.06 158.68 556.4 154.27 568.28 162.37V162.46Z" fill="#F8C8C9"/>
<path d="M592.76 200.8C591.95 199.63 586.37 191.35 582.68 184.87C581.33 182.62 580.7 181.45 580.07 180.19C578.18 176.59 577.64 175.15 575.57 172.09C571.61 166.24 569.63 163.18 565.67 160.84C561.35 158.32 557.3 158.14 550.64 157.78C544.97 157.51 542.63 158.14 533 158.77C533 158.77 527.33 159.13 520.04 159.31C505.1 159.76 493.67 158.77 493.67 158.77C493.67 158.77 501.77 159.67 512.75 159.13C521.66 158.68 523.37 157.78 536.87 156.07C561.26 152.92 565.67 154.72 568.64 156.61C572.6 159.22 574.49 162.73 577.82 168.85C582.23 176.95 581.6 180.82 586.91 190.99C589.97 196.93 592.76 200.8 592.67 200.8H592.76Z" fill="#F0B7B9"/>
<path d="M610.31 149.32C608.96 149.41 607.7 148.6 607.43 147.43C607.16 146.53 607.52 145.45 608.33 144.82C605.63 145.63 601.49 146.89 596.36 148.42C590.6 150.13 589.43 150.4 587.72 150.94C583.67 152.2 577.82 154.45 570.89 158.41C576.2 156.61 582.14 154.81 588.53 153.28C596.36 151.39 603.74 150.13 610.31 149.41V149.32Z" fill="#F0B7B9"/>
</svg>
