<svg width="808" height="373" viewBox="0 0 808 373" fill="none" xmlns="http://www.w3.org/2000/svg">
<g filter="url(#filter0_d_101_207)">
<path d="M803.518 174.421C751.138 204.751 579.688 301.681 438.928 339.121C364.588 358.921 320.038 356.401 293.308 334.171C286.918 328.861 277.738 321.211 274.498 308.881C256.948 242.641 431.818 123.031 573.028 61.2012C632.698 35.1012 683.458 20.5212 714.778 12.6912C744.388 66.6012 773.908 120.601 803.518 174.511V174.421Z" fill="#631A86"/>
<path d="M391.498 342.631C398.338 336.601 407.608 326.701 413.188 312.211C418.498 298.621 416.968 290.251 418.318 284.131C425.608 252.451 514.798 270.271 610.648 234.631C648.988 220.321 676.348 202.051 753.208 176.401C781.918 166.861 791.998 164.701 792.988 166.951C795.778 172.891 729.448 210.241 686.338 232.471C649.348 251.551 622.168 263.341 582.568 280.441C500.668 315.811 465.748 325.711 449.908 329.851C425.608 336.241 405.268 340.201 391.498 342.631Z" fill="#3B1050"/>
<path d="M337.858 181.081C341.908 173.251 346.588 168.751 350.098 166.141C354.508 162.811 356.038 163.171 365.398 157.681C369.808 155.071 374.668 152.011 380.608 147.871C397.438 136.351 406.618 131.671 417.958 125.371C447.298 109.081 452.518 106.291 455.488 108.631C458.278 110.791 456.838 115.651 456.658 121.771C456.208 141.301 470.428 155.881 476.638 163.891C510.388 207.361 501.748 302.041 531.898 308.881C535.138 309.601 539.638 309.421 540.178 311.401C541.258 315.451 523.258 323.281 502.018 332.461C486.808 339.031 479.068 342.091 468.448 346.051C430.018 360.361 369.448 369.991 356.488 361.531C354.868 360.451 346.858 354.421 347.038 353.161C349.648 352.891 358.108 348.751 361.618 346.681C369.178 342.181 393.568 334.261 396.268 267.661C398.878 203.491 363.868 196.921 356.488 190.891C349.828 185.401 342.898 182.701 337.858 181.171V181.081Z" fill="#631A86"/>
<path d="M406.978 277.201C426.508 273.781 421.828 271.171 432.628 269.731C449.368 267.391 456.388 267.031 467.368 264.421C484.198 260.281 497.158 254.161 505.528 249.661C507.328 260.281 509.398 269.101 511.108 275.671C516.328 295.741 519.478 299.611 521.728 301.771C530.098 309.871 539.728 307.981 540.268 311.491C540.988 316.531 521.368 323.101 491.938 333.091C453.238 346.231 444.058 349.561 436.048 351.811C433.618 352.531 431.458 353.071 429.658 353.521C379.528 366.301 366.118 361.531 360.268 358.741C358.828 358.021 356.308 356.761 353.428 354.601C360.898 351.631 370.348 346.681 378.988 338.131C386.098 331.111 390.148 324.271 392.308 320.581C396.178 313.921 398.248 308.431 400.138 303.211C402.478 297.001 405.178 288.271 407.068 277.381L406.978 277.201Z" fill="#3B1050"/>
<path d="M457.198 112.771C456.658 115.111 455.938 118.621 455.938 123.031C455.848 144.271 471.688 159.751 475.918 165.151C512.278 212.041 489.688 291.871 531.178 310.141C532.528 310.771 533.698 311.131 534.148 311.311C534.958 310.501 535.678 309.781 536.488 308.971C534.058 307.891 529.828 305.911 525.598 302.221C503.548 283.141 516.688 251.731 499.768 201.691C495.628 189.271 492.658 180.451 485.188 170.461C476.908 159.301 471.328 157.591 464.128 144.451C459.448 135.811 457.018 127.711 456.838 119.161C456.838 116.551 456.928 114.301 457.108 112.771H457.198Z" fill="#3B1050"/>
<path d="M378.538 202.051C386.458 212.581 390.958 224.371 390.958 224.371C392.758 228.511 394.108 233.011 395.098 238.771C402.568 279.901 377.008 331.471 337.588 349.831C330.928 352.981 324.988 354.601 319.138 355.231C300.778 357.211 280.978 359.101 209.068 334.801C176.038 323.731 166.948 319.231 160.828 308.791C152.908 295.471 151.738 275.671 158.488 271.261C163.078 268.291 169.288 268.471 169.288 267.301C169.288 265.771 155.338 267.301 146.968 262.441C129.418 252.271 130.138 211.861 141.388 205.381C147.688 201.781 161.188 207.541 160.828 207.181C156.058 202.231 6.47807 155.341 4.04807 97.3811C3.23807 78.4811 12.6881 60.6611 30.5981 55.4411C74.9681 42.4811 187.108 164.341 183.778 156.601C180.448 148.861 75.9581 67.9511 95.3081 20.2512C96.9281 16.2012 99.1781 12.7812 101.968 9.90115C111.598 0.00115228 125.998 0.00114934 130.408 0.00114934C159.838 -0.268851 176.488 47.0712 232.468 100.441C244.168 111.601 254.878 121.771 271.528 133.201C309.958 159.571 362.518 180.451 378.628 201.961L378.538 202.051Z" fill="#FACCCB"/>
<path d="M379.168 317.611C377.458 319.861 373.498 324.451 366.748 326.611C364.138 327.421 361.798 327.691 359.908 327.781C356.488 327.961 351.358 327.961 345.778 326.251C333.628 322.651 326.788 314.011 318.238 302.851C284.038 258.481 278.908 251.011 272.338 238.501C268.558 231.301 262.888 219.781 263.338 219.601C263.608 219.421 266.038 223.741 269.458 229.141C275.488 238.591 280.438 244.621 290.338 256.681C299.788 268.111 308.428 277.651 315.898 285.391C323.188 292.951 327.058 297.001 334.978 303.751C343.348 310.951 349.108 315.361 354.778 318.421C359.908 321.211 375.928 316.981 379.168 317.611Z" fill="#F8BEBC"/>
<path d="M374.398 308.431C371.968 306.361 356.758 330.391 327.148 341.551C310.858 347.671 296.728 347.491 280.978 347.221C245.698 346.591 223.288 336.331 223.108 336.781C222.838 337.771 292.588 366.391 333.268 349.381C352.168 341.461 364.498 326.161 364.498 326.161C370.078 319.231 375.838 309.691 374.308 308.431H374.398Z" fill="#F8BEBC"/>
<path d="M149.578 197.281C149.578 197.281 128.968 189.181 82.4381 166.501C74.2481 162.541 55.6181 153.271 35.0081 136.621C18.6281 123.391 11.6081 113.761 9.80811 102.331C8.18811 92.071 11.0681 81.361 12.8681 81.271C14.3981 81.271 13.4081 88.831 17.9981 98.191C23.1281 108.721 29.4281 109.711 41.7581 124.741C45.8981 129.781 48.1481 133.381 49.4081 135.091C68.3981 162.001 149.398 197.551 149.578 197.191V197.281Z" fill="#F8BEBC"/>
<path d="M183.958 152.101C183.958 152.101 166.138 136.621 134.098 99.9912C102.958 64.2612 98.1882 47.5212 98.7282 34.1112C98.9982 27.0012 101.608 18.4512 103.678 18.4512C106.018 18.4512 104.938 29.6112 112.318 44.0112C115.198 49.6812 117.988 53.0112 120.328 60.6612C122.038 66.3312 122.488 70.6512 122.578 71.6412C124.828 91.6212 183.328 152.821 183.958 152.101Z" fill="#F8BEBC"/>
<path d="M263.158 220.321C257.938 220.321 259.738 238.951 245.248 249.211C236.878 255.151 227.788 254.971 224.638 254.971C211.138 254.791 195.298 247.051 194.668 238.051C194.578 236.791 194.848 235.621 195.028 234.901C194.488 236.341 193.678 238.951 194.308 241.921C196.918 254.341 221.758 261.361 240.478 258.481C241.918 258.301 252.178 256.591 262.348 249.481C267.388 245.971 268.648 243.721 269.098 242.641C273.598 233.641 267.388 220.321 263.068 220.231L263.158 220.321Z" fill="#F8BEBC"/>
<path d="M173.158 265.051C224.638 274.141 263.428 275.311 271.978 268.651C278.908 263.341 280.348 256.951 280.348 256.951C281.338 252.271 280.168 247.771 279.628 247.771C279.088 247.771 279.358 251.011 277.108 254.521C277.108 254.521 275.938 256.321 273.958 258.031C265.768 264.871 244.618 266.221 244.618 266.221C232.378 266.941 222.388 266.941 216.268 266.761C211.768 266.761 209.878 266.581 191.788 265.771C183.868 265.411 177.478 265.141 173.248 264.961L173.158 265.051Z" fill="#F8BEBC"/>
<path d="M170.728 270.271C183.148 270.181 199.618 270.091 218.968 270.271C234.448 270.361 242.098 270.631 251.548 274.861C256.948 277.291 269.548 283.051 273.778 296.461C274.318 298.081 277.918 309.691 272.068 318.331C266.848 325.981 253.798 326.521 227.878 327.241C211.678 327.691 189.718 327.241 173.698 318.061C171.898 317.071 169.648 315.631 167.218 313.291C156.868 303.481 156.688 289.891 156.598 286.111C156.508 280.711 156.508 276.931 159.388 273.871C163.258 269.821 169.468 270.271 170.908 270.451L170.728 270.271Z" fill="#FACCCB"/>
<path d="M183.688 322.381C183.688 322.381 243.268 340.381 264.868 330.391C267.118 329.311 273.778 326.251 275.668 320.041C277.018 315.631 275.488 310.861 274.948 310.861C274.408 310.861 274.678 314.101 272.428 317.611C272.428 317.611 271.258 319.501 269.278 321.121C263.338 326.161 242.998 326.701 237.598 326.881C221.488 327.241 216.808 327.331 210.238 326.971C205.378 326.701 199.888 326.251 193.138 324.901C186.658 323.641 183.778 322.381 183.778 322.381H183.688Z" fill="#F8BEBC"/>
<path d="M235.798 174.151C227.338 179.821 229.768 184.321 215.548 206.191C200.788 228.961 193.138 231.931 194.938 239.221C197.818 250.831 221.218 258.841 237.868 252.901C244.258 250.651 248.488 246.781 249.298 245.971C260.548 235.081 263.068 224.641 263.248 219.421C263.248 218.611 263.518 218.071 263.878 217.891C272.248 213.301 335.608 331.201 371.608 321.841C398.878 314.731 410.398 234.361 384.028 198.541C368.098 176.941 347.578 170.641 347.578 170.641C341.728 168.841 336.868 166.771 330.568 167.851C311.668 170.911 296.008 171.271 284.758 171.001C259.018 170.371 247.678 165.961 235.798 174.061V174.151Z" fill="#FACCCB"/>
<path d="M211.318 212.491C212.128 211.321 217.708 203.041 221.398 196.561C222.748 194.311 223.378 193.141 224.008 191.881C225.898 188.281 226.438 186.841 228.508 183.781C232.468 177.931 234.448 174.871 238.408 172.531C242.728 170.011 246.778 169.831 253.438 169.471C259.108 169.201 261.448 169.831 271.078 170.461C271.078 170.461 276.748 170.821 284.038 171.001C298.978 171.451 310.408 170.461 310.408 170.461C310.408 170.461 302.308 171.361 291.328 170.821C282.418 170.371 280.708 169.471 267.208 167.761C242.818 164.611 238.408 166.411 235.438 168.301C231.478 170.911 229.588 174.421 226.258 180.541C221.848 188.641 222.478 192.511 217.168 202.681C214.108 208.621 211.318 212.491 211.408 212.491H211.318Z" fill="#F8BEBC"/>
</g>
<defs>
<filter id="filter0_d_101_207" x="0" y="0" width="807.518" height="372.697" filterUnits="userSpaceOnUse" color-interpolation-filters="sRGB">
<feFlood flood-opacity="0" result="BackgroundImageFix"/>
<feColorMatrix in="SourceAlpha" type="matrix" values="0 0 0 0 0 0 0 0 0 0 0 0 0 0 0 0 0 0 127 0" result="hardAlpha"/>
<feOffset dy="4"/>
<feGaussianBlur stdDeviation="2"/>
<feComposite in2="hardAlpha" operator="out"/>
<feColorMatrix type="matrix" values="0 0 0 0 0 0 0 0 0 0 0 0 0 0 0 0 0 0 0.25 0"/>
<feBlend mode="normal" in2="BackgroundImageFix" result="effect1_dropShadow_101_207"/>
<feBlend mode="normal" in="SourceGraphic" in2="effect1_dropShadow_101_207" result="shape"/>
</filter>
</defs>
</svg>
