<svg width="800" height="365" viewBox="0 0 800 365" fill="none" xmlns="http://www.w3.org/2000/svg">
<path d="M6.10352e-05 174.421C52.3801 204.751 223.83 301.681 364.59 339.121C438.93 358.921 483.48 356.401 510.21 334.171C516.6 328.861 525.78 321.211 529.02 308.881C546.57 242.641 371.7 123.031 230.49 61.2014C170.82 35.1014 120.06 20.5214 88.7401 12.6914C59.1301 66.6014 29.61 120.601 6.10352e-05 174.511V174.421Z" fill="#F01427"/>
<path d="M412.02 342.632C405.18 336.602 395.91 326.702 390.33 312.212C385.02 298.622 386.55 290.252 385.2 284.132C377.91 252.452 288.72 270.272 192.87 234.632C154.53 220.322 127.17 202.052 50.3103 176.402C21.6003 166.862 11.5203 164.702 10.5303 166.952C7.7403 172.892 74.0703 210.242 117.18 232.472C154.17 251.552 181.35 263.342 220.95 280.442C302.85 315.812 337.77 325.712 353.61 329.852C377.91 336.242 398.25 340.202 412.02 342.632Z" fill="#DF0E20"/>
<path d="M465.66 181.079C461.61 173.249 456.93 168.749 453.42 166.139C449.01 162.809 447.48 163.169 438.12 157.679C433.71 155.069 428.85 152.009 422.91 147.869C406.08 136.349 396.9 131.669 385.56 125.369C356.22 109.079 351 106.289 348.03 108.629C345.24 110.789 346.68 115.649 346.86 121.769C347.31 141.299 333.09 155.879 326.88 163.889C293.13 207.359 301.77 302.039 271.62 308.879C268.38 309.599 263.88 309.419 263.34 311.399C262.26 315.449 280.26 323.279 301.5 332.459C316.71 339.029 324.45 342.089 335.07 346.049C373.5 360.359 434.07 369.989 447.03 361.529C448.65 360.449 456.66 354.419 456.48 353.159C453.87 352.889 445.41 348.749 441.9 346.679C434.34 342.179 409.95 334.259 407.25 267.659C404.64 203.489 439.65 196.919 447.03 190.889C453.69 185.399 460.62 182.699 465.66 181.169V181.079Z" fill="#F01427"/>
<path d="M396.54 277.202C377.01 273.782 381.69 271.172 370.89 269.732C354.15 267.392 347.13 267.032 336.15 264.422C319.32 260.282 306.36 254.162 297.99 249.662C296.19 260.282 294.12 269.102 292.41 275.672C287.19 295.742 284.04 299.612 281.79 301.772C273.42 309.872 263.79 307.982 263.25 311.492C262.53 316.532 282.15 323.102 311.58 333.092C350.28 346.232 359.46 349.562 367.47 351.812C369.9 352.532 372.06 353.072 373.86 353.522C423.99 366.302 437.4 361.532 443.25 358.742C444.69 358.022 447.21 356.762 450.09 354.602C442.62 351.632 433.17 346.682 424.53 338.132C417.42 331.112 413.37 324.272 411.21 320.582C407.34 313.922 405.27 308.432 403.38 303.212C401.04 297.002 398.34 288.272 396.45 277.382L396.54 277.202Z" fill="#DF0E20"/>
<path d="M346.321 112.772C346.861 115.112 347.581 118.622 347.581 123.032C347.671 144.272 331.831 159.752 327.601 165.152C291.241 212.042 313.831 291.872 272.341 310.142C270.991 310.772 269.821 311.132 269.371 311.312C268.561 310.502 267.841 309.782 267.031 308.972C269.461 307.892 273.691 305.912 277.921 302.222C299.971 283.142 286.831 251.732 303.751 201.692C307.891 189.272 310.861 180.452 318.331 170.462C326.611 159.302 332.191 157.592 339.391 144.452C344.071 135.812 346.501 127.712 346.681 119.162C346.681 116.552 346.591 114.302 346.411 112.772H346.321Z" fill="#DF0E20"/>
<path d="M424.98 202.051C417.06 212.581 412.56 224.371 412.56 224.371C410.76 228.511 409.41 233.011 408.42 238.771C400.95 279.901 426.51 331.471 465.93 349.831C472.59 352.981 478.53 354.601 484.38 355.231C502.74 357.211 522.54 359.101 594.45 334.801C627.48 323.731 636.57 319.231 642.69 308.791C650.61 295.471 651.78 275.671 645.03 271.261C640.44 268.291 634.23 268.471 634.23 267.301C634.23 265.771 648.18 267.301 656.55 262.441C674.1 252.271 673.38 211.861 662.13 205.381C655.83 201.781 642.33 207.541 642.69 207.181C647.46 202.231 797.04 155.341 799.47 97.3811C800.28 78.4811 790.83 60.6611 772.92 55.4411C728.55 42.4811 616.41 164.341 619.74 156.601C623.07 148.861 727.56 67.9511 708.21 20.2512C706.59 16.2012 704.34 12.7812 701.55 9.90115C691.92 0.00115228 677.52 0.00114934 673.11 0.00114934C643.68 -0.268851 627.03 47.0712 571.05 100.441C559.35 111.601 548.64 121.771 531.99 133.201C493.56 159.571 441 180.451 424.89 201.961L424.98 202.051Z" fill="#F8C8C9"/>
<path d="M424.35 317.61C426.06 319.86 430.02 324.45 436.77 326.61C439.38 327.42 441.72 327.69 443.61 327.78C447.03 327.96 452.16 327.96 457.74 326.25C469.89 322.65 476.73 314.01 485.28 302.85C519.48 258.48 524.61 251.01 531.18 238.5C534.96 231.3 540.63 219.78 540.18 219.6C539.91 219.42 537.48 223.74 534.06 229.14C528.03 238.59 523.08 244.62 513.18 256.68C503.73 268.11 495.09 277.65 487.62 285.39C480.33 292.95 476.46 297 468.54 303.75C460.17 310.95 454.41 315.36 448.74 318.42C443.61 321.21 427.59 316.98 424.35 317.61Z" fill="#F0B7B9"/>
<path d="M429.12 308.433C431.55 306.363 446.76 330.393 476.37 341.553C492.66 347.673 506.79 347.493 522.54 347.223C557.82 346.593 580.23 336.333 580.41 336.783C580.68 337.773 510.93 366.393 470.25 349.383C451.35 341.463 439.02 326.163 439.02 326.163C433.44 319.233 427.68 309.693 429.21 308.433H429.12Z" fill="#F0B7B9"/>
<path d="M653.94 197.282C653.94 197.282 674.55 189.182 721.08 166.502C729.27 162.542 747.9 153.272 768.51 136.622C784.89 123.392 791.91 113.762 793.71 102.332C795.33 92.0725 792.45 81.3625 790.65 81.2725C789.12 81.2725 790.11 88.8325 785.52 98.1925C780.39 108.722 774.09 109.712 761.76 124.742C757.62 129.782 755.37 133.382 754.11 135.092C735.12 162.002 654.12 197.552 653.94 197.192V197.282Z" fill="#F0B7B9"/>
<path d="M619.56 152.103C619.56 152.103 637.38 136.623 669.42 99.9926C700.56 64.2626 705.33 47.5226 704.79 34.1126C704.52 27.0026 701.91 18.4526 699.84 18.4526C697.5 18.4526 698.58 29.6126 691.2 44.0126C688.32 49.6826 685.53 53.0126 683.19 60.6626C681.48 66.3326 681.03 70.6526 680.94 71.6426C678.69 91.6226 620.19 152.823 619.56 152.103Z" fill="#F0B7B9"/>
<path d="M540.36 220.322C545.58 220.322 543.78 238.952 558.27 249.212C566.64 255.152 575.73 254.972 578.88 254.972C592.38 254.792 608.22 247.052 608.85 238.052C608.94 236.792 608.67 235.622 608.49 234.902C609.03 236.342 609.84 238.952 609.21 241.922C606.6 254.342 581.76 261.362 563.04 258.482C561.6 258.302 551.34 256.592 541.17 249.482C536.13 245.972 534.87 243.722 534.42 242.642C529.92 233.642 536.13 220.322 540.45 220.232L540.36 220.322Z" fill="#F0B7B9"/>
<path d="M630.36 265.052C578.88 274.142 540.09 275.312 531.54 268.652C524.61 263.342 523.17 256.952 523.17 256.952C522.18 252.272 523.35 247.772 523.89 247.772C524.43 247.772 524.16 251.012 526.41 254.522C526.41 254.522 527.58 256.322 529.56 258.032C537.75 264.872 558.9 266.222 558.9 266.222C571.14 266.942 581.13 266.942 587.25 266.762C591.75 266.762 593.64 266.582 611.73 265.772C619.65 265.412 626.04 265.142 630.27 264.962L630.36 265.052Z" fill="#F0B7B9"/>
<path d="M632.79 270.271C620.37 270.181 603.9 270.091 584.55 270.271C569.07 270.361 561.42 270.631 551.97 274.861C546.57 277.291 533.97 283.051 529.74 296.461C529.2 298.081 525.6 309.691 531.45 318.331C536.67 325.981 549.72 326.521 575.64 327.241C591.84 327.691 613.8 327.241 629.82 318.061C631.62 317.071 633.87 315.631 636.3 313.291C646.65 303.481 646.83 289.891 646.92 286.111C647.01 280.711 647.01 276.931 644.13 273.871C640.26 269.821 634.05 270.271 632.61 270.451L632.79 270.271Z" fill="#F8C8C9"/>
<path d="M619.83 322.38C619.83 322.38 560.25 340.38 538.65 330.39C536.4 329.31 529.74 326.25 527.85 320.04C526.5 315.63 528.03 310.86 528.57 310.86C529.11 310.86 528.84 314.1 531.09 317.61C531.09 317.61 532.26 319.5 534.24 321.12C540.18 326.16 560.52 326.7 565.92 326.88C582.03 327.24 586.71 327.33 593.28 326.97C598.14 326.7 603.63 326.25 610.38 324.9C616.86 323.64 619.74 322.38 619.74 322.38H619.83Z" fill="#F0B7B9"/>
<path d="M567.72 174.153C576.18 179.823 573.75 184.323 587.97 206.193C602.73 228.963 610.38 231.933 608.58 239.223C605.7 250.833 582.3 258.843 565.65 252.903C559.26 250.653 555.03 246.783 554.22 245.973C542.97 235.083 540.45 224.643 540.27 219.423C540.27 218.613 540 218.073 539.64 217.893C531.27 213.303 467.91 331.203 431.91 321.843C404.64 314.733 393.12 234.363 419.49 198.543C435.42 176.943 455.94 170.643 455.94 170.643C461.79 168.843 466.65 166.773 472.95 167.853C491.85 170.913 507.51 171.273 518.76 171.003C544.5 170.373 555.84 165.963 567.72 174.063V174.153Z" fill="#F8C8C9"/>
<path d="M592.199 212.493C591.389 211.323 585.809 203.043 582.119 196.563C580.769 194.313 580.139 193.143 579.509 191.883C577.619 188.283 577.079 186.843 575.009 183.783C571.049 177.933 569.069 174.873 565.109 172.533C560.789 170.013 556.739 169.833 550.079 169.473C544.409 169.203 542.069 169.833 532.439 170.463C532.439 170.463 526.769 170.823 519.479 171.003C504.539 171.453 493.109 170.463 493.109 170.463C493.109 170.463 501.209 171.363 512.189 170.823C521.099 170.373 522.809 169.473 536.309 167.763C560.699 164.613 565.109 166.413 568.079 168.303C572.039 170.913 573.929 174.423 577.259 180.543C581.669 188.643 581.039 192.513 586.349 202.683C589.409 208.623 592.199 212.493 592.109 212.493H592.199Z" fill="#F0B7B9"/>
</svg>
