<?xml version="1.0" encoding="utf-8"?>
<!-- Generator: Adobe Illustrator 27.5.0, SVG Export Plug-In . SVG Version: 6.00 Build 0)  -->
<svg version="1.1" id="Ebene_1" xmlns="http://www.w3.org/2000/svg" xmlns:xlink="http://www.w3.org/1999/xlink" x="0px" y="0px"
	 viewBox="0 0 800 365" style="enable-background:new 0 0 800 365;" xml:space="preserve">
<style type="text/css">
	.st0{fill:#631A86;}
	.st1{fill:#3B1050;}
	.st2{fill:#FACCCB;}
	.st3{fill:#F8BEBC;}
</style>
<g>
	<path class="st0" d="M799.8,174.6c-52.4,30.3-223.8,127.3-364.6,164.7c-74.3,19.8-118.9,17.3-145.6-5c-6.4-5.3-15.6-13-18.8-25.3
		c-17.5-66.2,157.3-185.9,298.5-247.7C628.9,35.3,679.7,20.7,711,12.8C740.6,66.8,770.1,120.8,799.8,174.6L799.8,174.6z"/>
	<path class="st1" d="M387.7,342.8c6.8-6,16.1-15.9,21.7-30.4c5.3-13.6,3.8-22,5.1-28.1c7.3-31.7,96.5-13.9,192.3-49.5
		c38.3-14.3,65.7-32.6,142.6-58.2c28.7-9.5,38.8-11.7,39.8-9.4c2.8,5.9-63.5,43.3-106.6,65.5c-37,19.1-64.2,30.9-103.8,48
		C496.9,316,462,325.9,446.1,330C421.8,336.4,401.5,340.4,387.7,342.8z"/>
	<path class="st0" d="M334.1,181.2c4-7.8,8.7-12.3,12.2-14.9c4.4-3.3,5.9-3,15.3-8.5c4.4-2.6,9.3-5.7,15.2-9.8
		c16.8-11.5,26-16.2,37.4-22.5c29.3-16.3,34.6-19.1,37.5-16.7c2.8,2.2,1.4,7,1.2,13.1c-0.4,19.5,13.8,34.1,20,42.1
		c33.8,43.5,25.1,138.1,55.3,145c3.2,0.7,7.7,0.5,8.3,2.5c1.1,4-16.9,11.9-38.2,21.1c-15.2,6.6-23,9.6-33.6,13.6
		c-38.4,14.3-99,23.9-112,15.5c-1.6-1.1-9.6-7.1-9.5-8.4c2.6-0.3,11.1-4.4,14.6-6.5c7.6-4.5,31.9-12.4,34.6-79
		c2.6-64.2-32.4-70.7-39.8-76.8C346.1,185.6,339.1,182.9,334.1,181.2L334.1,181.2z"/>
	<path class="st1" d="M403.2,277.4c19.5-3.4,14.9-6,25.6-7.5c16.7-2.3,23.8-2.7,34.7-5.3c16.8-4.1,29.8-10.3,38.2-14.8
		c1.8,10.6,3.9,19.4,5.6,26c5.2,20.1,8.4,23.9,10.6,26.1c8.4,8.1,18,6.2,18.5,9.7c0.7,5-18.9,11.6-48.3,21.6
		c-38.7,13.1-47.9,16.5-55.9,18.7c-2.4,0.7-4.6,1.3-6.4,1.7c-50.1,12.8-63.5,8-69.4,5.2c-1.4-0.7-4-2-6.8-4.1
		c7.5-3,16.9-7.9,25.6-16.5c7.1-7,11.2-13.9,13.3-17.6c3.9-6.7,5.9-12.1,7.8-17.4c2.3-6.2,5-14.9,6.9-25.8L403.2,277.4z"/>
	<path class="st1" d="M453.4,112.9c-0.5,2.3-1.3,5.8-1.3,10.3c-0.1,21.2,15.8,36.7,20,42.1c36.4,46.9,13.8,126.7,55.3,145
		c1.4,0.6,2.5,1,3,1.2c0.8-0.8,1.5-1.5,2.3-2.3c-2.4-1.1-6.7-3.1-10.9-6.8c-22.1-19.1-8.9-50.5-25.8-100.5
		c-4.1-12.4-7.1-21.2-14.6-31.2c-8.3-11.2-13.9-12.9-21.1-26c-4.7-8.6-7.1-16.7-7.3-25.3C453.1,116.7,453.2,114.5,453.4,112.9
		L453.4,112.9z"/>
	<path class="st2" d="M374.8,202.2c7.9,10.5,12.4,22.3,12.4,22.3c1.8,4.1,3.1,8.6,4.1,14.4c7.5,41.1-18.1,92.7-57.5,111.1
		c-6.7,3.1-12.6,4.8-18.5,5.4c-18.4,2-38.2,3.9-110.1-20.4c-33-11.1-42.1-15.6-48.2-26c-7.9-13.3-9.1-33.1-2.3-37.5
		c4.6-3,10.8-2.8,10.8-4c0-1.5-13.9,0-22.3-4.9c-17.6-10.2-16.8-50.6-5.6-57.1c6.3-3.6,19.8,2.2,19.4,1.8
		C152.3,202.4,2.7,155.5,0.3,97.5c-0.8-18.9,8.6-36.7,26.6-41.9c44.4-13,156.5,108.9,153.2,101.2S72.2,68.1,91.5,20.4
		c1.6-4,3.9-7.5,6.7-10.4c9.6-9.9,24-9.9,28.4-9.9c29.4-0.3,46.1,47.1,102.1,100.4c11.7,11.2,22.4,21.3,39.1,32.8
		C306.2,159.7,358.8,180.6,374.8,202.2L374.8,202.2z"/>
	<path class="st3" d="M375.4,317.8c-1.7,2.2-5.7,6.8-12.4,9c-2.6,0.8-4.9,1.1-6.8,1.2c-3.4,0.2-8.5,0.2-14.1-1.5
		c-12.2-3.6-19-12.2-27.5-23.4c-34.2-44.4-39.3-51.8-45.9-64.4c-3.8-7.2-9.5-18.7-9-18.9c0.3-0.2,2.7,4.1,6.1,9.5
		c6,9.4,11,15.5,20.9,27.5c9.4,11.4,18.1,21,25.6,28.7c7.3,7.6,11.2,11.6,19.1,18.4c8.4,7.2,14.1,11.6,19.8,14.7
		C356.1,321.4,372.2,317.1,375.4,317.8z"/>
	<path class="st3" d="M370.6,308.6c-2.4-2.1-17.6,22-47.2,33.1c-16.3,6.1-30.4,5.9-46.2,5.7c-35.3-0.6-57.7-10.9-57.9-10.4
		c-0.3,1,69.5,29.6,110.2,12.6c18.9-7.9,31.2-23.2,31.2-23.2C366.3,319.4,372.1,309.8,370.6,308.6L370.6,308.6z"/>
	<path class="st3" d="M145.8,197.4c0,0-20.6-8.1-67.1-30.8c-8.2-4-26.8-13.2-47.4-29.9C14.9,123.5,7.8,113.9,6,102.5
		c-1.6-10.3,1.3-21,3.1-21.1c1.5,0,0.5,7.6,5.1,16.9c5.1,10.5,11.4,11.5,23.8,26.5c4.1,5,6.4,8.6,7.7,10.4
		C64.6,162.2,145.6,197.7,145.8,197.4L145.8,197.4z"/>
	<path class="st3" d="M180.2,152.3c0,0-17.8-15.5-49.9-52.1C99.2,64.4,94.4,47.7,95,34.3c0.3-7.1,2.9-15.7,4.9-15.7
		c2.3,0,1.3,11.2,8.6,25.6c2.9,5.7,5.7,9,8,16.7c1.7,5.7,2.2,10,2.2,11C121.1,91.8,179.6,153,180.2,152.3z"/>
	<path class="st3" d="M259.4,220.5c-5.2,0-3.4,18.6-17.9,28.9c-8.4,5.9-17.5,5.8-20.6,5.8c-13.5-0.2-29.3-7.9-30-16.9
		c-0.1-1.3,0.2-2.4,0.4-3.1c-0.5,1.4-1.4,4.1-0.7,7c2.6,12.4,27.4,19.4,46.2,16.6c1.4-0.2,11.7-1.9,21.9-9c5-3.5,6.3-5.8,6.8-6.8
		C269.8,233.8,263.6,220.5,259.4,220.5L259.4,220.5z"/>
	<path class="st3" d="M169.4,265.2c51.5,9.1,90.3,10.3,98.8,3.6c6.9-5.3,8.4-11.7,8.4-11.7c1-4.7-0.2-9.2-0.7-9.2
		c-0.5,0-0.3,3.2-2.5,6.8c0,0-1.2,1.8-3.1,3.5c-8.2,6.8-29.3,8.2-29.3,8.2c-12.2,0.7-22.2,0.7-28.3,0.5c-4.5,0-6.4-0.2-24.5-1
		C180.1,265.6,173.7,265.3,169.4,265.2L169.4,265.2z"/>
	<path class="st2" d="M167,270.4c12.4-0.1,28.9-0.2,48.2,0c15.5,0.1,23.1,0.4,32.6,4.6c5.4,2.4,18,8.2,22.2,21.6
		c0.5,1.6,4.1,13.2-1.7,21.9c-5.2,7.6-18.3,8.2-44.2,8.9c-16.2,0.5-38.2,0-54.2-9.2c-1.8-1-4.1-2.4-6.5-4.8
		c-10.4-9.8-10.5-23.4-10.6-27.2c-0.1-5.4-0.1-9.2,2.8-12.2c3.9-4,10.1-3.6,11.5-3.4L167,270.4z"/>
	<path class="st3" d="M179.9,322.5c0,0,59.6,18,81.2,8c2.2-1.1,8.9-4.1,10.8-10.4c1.4-4.4-0.2-9.2-0.7-9.2s-0.3,3.2-2.5,6.8
		c0,0-1.2,1.9-3.1,3.5c-5.9,5-26.3,5.6-31.7,5.8c-16.1,0.4-20.8,0.4-27.4,0.1c-4.9-0.3-10.4-0.7-17.1-2.1
		C182.9,323.8,180,322.5,179.9,322.5L179.9,322.5z"/>
	<path class="st2" d="M232,174.3c-8.5,5.7-6,10.2-20.2,32c-14.8,22.8-22.4,25.7-20.6,33c2.9,11.6,26.3,19.6,42.9,13.7
		c6.4-2.2,10.6-6.1,11.4-6.9c11.2-10.9,13.8-21.3,13.9-26.5c0-0.8,0.3-1.4,0.6-1.5c8.4-4.6,71.7,113.3,107.7,104
		c27.3-7.1,38.8-87.5,12.4-123.3c-15.9-21.6-36.5-27.9-36.5-27.9c-5.9-1.8-10.7-3.9-17-2.8c-18.9,3.1-34.6,3.4-45.8,3.2
		C255.3,170.5,243.9,166.1,232,174.3L232,174.3z"/>
	<path class="st3" d="M207.6,212.6c0.8-1.2,6.4-9.4,10.1-15.9c1.4-2.2,2-3.4,2.6-4.7c1.9-3.6,2.4-5,4.5-8.1c4-5.9,5.9-8.9,9.9-11.2
		c4.3-2.5,8.4-2.7,15-3.1c5.7-0.3,8,0.4,17.6,1c0,0,5.7,0.4,13,0.5c14.9,0.4,26.4-0.5,26.4-0.5s-8.1,0.9-19.1,0.4
		c-8.9-0.4-10.6-1.4-24.1-3.1c-24.4-3.2-28.8-1.4-31.8,0.5c-4,2.6-5.9,6.1-9.2,12.2c-4.4,8.1-3.8,12-9.1,22.1
		C210.3,208.8,207.6,212.6,207.6,212.6L207.6,212.6z"/>
</g>
</svg>
