<svg width="158" height="142" viewBox="0 0 158 142" fill="none" xmlns="http://www.w3.org/2000/svg">
<path d="M77.4295 61.3561C79.508 62.2044 82.3077 63.6042 84.8952 66.1917C87.7796 69.0338 102.287 73.1908 98.6387 100.211C94.8211 128.208 84.2165 130.583 80.823 132.195C79.2535 132.916 75.5207 134.358 74.4178 134.358C74.2906 134.867 77.4295 137.752 78.0658 138.261C83.1984 142.333 109.159 140.721 125.956 136.225C130.58 134.994 133.973 133.976 140.675 131.813C150.007 128.801 157.94 126.214 157.643 124.432C157.473 123.584 155.607 123.457 154.249 123.032C141.778 118.918 149.244 79.299 136.731 59.5745C134.44 55.9265 129.01 49.2244 129.986 40.9952C130.325 38.4077 131.089 36.414 130.028 35.396C128.883 34.2931 126.55 35.2687 113.528 40.9528C108.48 43.1585 104.408 44.7704 96.8572 48.9699C94.1848 50.4969 92.0215 51.5574 90.0278 52.4906C85.8708 54.4418 85.2345 54.2298 83.2409 55.4599C81.629 56.4779 79.4656 58.1747 77.4295 61.3561Z" fill="#631A86"/>
<path d="M102.796 104.75C101.566 109.289 100.081 112.852 98.851 115.397C97.8329 117.518 96.7301 119.766 94.8637 122.439C93.8032 123.923 91.8095 126.638 88.5433 129.311C84.556 132.577 80.3566 134.273 77.0903 135.249C78.2356 136.267 79.2537 136.903 79.8051 137.285C82.1805 138.685 87.6525 141.23 109.328 137.879C110.092 137.752 111.025 137.625 112.086 137.412C115.564 136.776 119.551 135.758 136.434 131.728C149.244 128.674 157.813 126.681 157.728 124.56C157.643 123.075 153.486 123.457 150.305 119.724C149.456 118.706 148.268 116.967 146.869 108.271C146.402 105.429 145.893 101.611 145.554 97.0725C141.821 98.642 136.137 100.72 128.841 101.781C124.09 102.46 121.121 102.332 113.952 102.629C109.328 102.799 111.195 104.114 102.838 104.75H102.796Z" fill="#3B1050"/>
<path d="M130.538 37.2625C130.41 37.8987 130.283 38.8319 130.156 39.9348C129.901 43.5404 130.58 47.0611 132.234 50.9212C134.737 56.7749 137.028 57.7081 140.082 62.7559C142.839 67.2947 143.73 71.1124 145.002 76.5419C150.135 98.345 143.348 111.071 151.874 120.021C153.529 121.76 155.225 122.736 156.201 123.287C155.819 123.584 155.48 123.881 155.098 124.178C154.928 124.093 154.419 123.881 153.91 123.584C137.113 114.209 149.838 81.42 136.391 60.126C134.822 57.6657 128.756 50.497 129.647 41.5467C129.817 39.6803 130.241 38.2381 130.538 37.2625Z" fill="#3B1050"/>
<path d="M77.3875 61.7804C79.466 62.6287 82.2657 64.0285 84.8532 66.6161C87.7376 69.4581 102.245 73.6151 98.5968 100.636C94.7791 128.632 84.1745 131.007 80.781 132.619C79.2115 133.34 75.4787 134.782 74.3758 134.782C74.2486 135.292 77.3875 138.176 78.0238 138.685C83.1564 142.757 109.117 141.145 125.914 136.649C130.538 135.419 133.931 134.401 140.633 132.237C149.965 129.226 157.898 126.638 157.601 124.857C157.431 124.008 155.565 123.881 154.207 123.457C141.736 119.342 149.202 79.7234 136.689 59.9988C134.398 56.3508 128.968 49.6487 129.944 41.4195C130.283 38.832 131.047 36.8383 129.986 35.8203C128.841 34.7174 126.508 35.693 113.486 41.3771C108.438 43.5829 104.366 45.1948 96.8152 49.3942C94.1428 50.9212 91.9795 51.9817 89.9858 52.9149C85.8288 54.8662 85.1925 54.6541 83.1989 55.8842C81.587 56.9023 79.4236 58.599 77.3875 61.7804Z" fill="#631A86"/>
<path d="M102.753 105.174C101.523 109.713 100.039 113.276 98.8086 115.821C97.7905 117.942 96.6876 120.19 94.8212 122.863C93.7608 124.347 91.7671 127.062 88.5009 129.735C84.5136 133.001 80.3566 136.564 77.0903 137.497C78.2356 138.515 79.2537 139.151 79.8051 139.533C82.1805 140.933 94.1001 142.587 118.872 138.303C136.603 134.485 151.62 129.056 157.643 124.941C157.558 123.457 153.401 123.838 150.22 120.106C149.371 119.088 148.184 117.348 146.784 108.653C146.317 105.811 145.808 101.993 145.469 97.4541C141.736 99.0236 136.052 101.102 128.756 102.163C124.005 102.841 121.121 104.283 113.952 104.58C109.328 104.75 111.152 104.496 102.753 105.132V105.174Z" fill="#3B1050"/>
<path d="M130.495 37.6868C130.367 38.323 130.24 39.2563 130.113 40.3591C129.858 43.9647 130.537 47.4854 132.191 51.3455C134.694 57.1992 136.985 58.1325 140.039 63.1802C142.796 67.719 143.687 71.5367 144.959 76.9662C150.092 98.7693 143.305 111.495 151.831 120.445C153.486 122.184 155.182 123.16 156.158 123.711C155.776 124.008 155.437 124.305 155.055 124.602C154.885 124.517 154.376 124.305 153.867 124.008C137.07 114.634 149.795 81.8444 136.348 60.5503C134.779 58.09 128.713 50.9213 129.604 41.971C129.774 40.1046 130.198 38.6624 130.495 37.6868Z" fill="#3B1050"/>
<path d="M95.2465 71.4515C97.6643 74.4632 100.506 80.9108 100.506 80.9108C101.27 82.65 101.821 84.5588 102.246 87.0191C105.427 104.453 94.5678 126.341 77.8549 134.146C75.0129 135.461 72.5102 136.182 70.0075 136.437C62.2025 137.285 53.8037 138.091 23.3048 127.783C9.30675 123.075 5.44668 121.166 2.85915 116.754C-0.491904 111.113 -1.00093 102.714 1.88353 100.848C3.62268 99.7022 6.50714 99.575 6.46472 99.1508C6.46472 98.8963 5.19217 99.0235 4.3438 98.6842C-0.491904 96.8602 0.441301 76.7114 5.82844 75.2268C6.97374 74.9298 8.79773 75.3116 8.88257 74.9723C8.92499 74.7602 7.99178 74.5481 7.18583 73.9966C6.21021 73.2755 5.65877 71.9605 5.44668 69.4154C5.23458 66.1916 4.76798 60.041 9.00982 55.7143C9.77336 54.9083 11.1732 53.5509 13.4213 52.9995C15.0332 52.6177 16.3906 52.8298 17.1966 52.9995C16.4331 52.745 15.2029 52.236 14.0152 51.1755C14.0152 51.1755 12.1064 49.3939 11.5125 46.8913C10.4521 42.3101 16.3482 34.9293 23.3048 33.3598C26.9104 32.5114 30.7705 33.6143 38.4906 35.82C40.3995 36.3715 42.0114 36.9229 45.2776 38.0258C49.7315 39.5104 53.3795 40.8678 55.8822 41.801C60.8027 43.9644 66.2747 46.8488 72.0012 50.6665C82.4786 57.5807 89.9866 65.216 95.2465 71.4515Z" fill="#F8C8C9"/>
<path d="M89.5628 15.7986C88.8417 6.42417 90.7506 2.60652 88.2903 1.16429C83.497 -1.67775 77.6008 0.909779 72.3834 6.46659C71.0684 7.8664 67.0811 17.3257 66.8266 23.2643C66.6569 28.0152 66.7417 36.2019 66.063 42.7344C65.7661 45.6188 65.2995 47.867 64.7481 49.8182C62.8816 56.2658 60.888 58.4292 59.4882 62.7559C58.1732 66.9553 58.4701 70.2215 59.1912 76.6691C60.0396 84.5589 61.2697 95.6726 68.693 106.998C74.8012 116.288 81.3337 120.063 84.6847 120.615C87.3147 120.996 90.2415 120.784 90.2415 120.784C92.3625 120.615 93.7198 120.487 94.9076 119.809C97.1982 118.494 97.8769 115.736 98.6828 112.046C100.507 103.69 101.44 99.5326 101.525 98.8115C102.628 86.8919 100.38 74.8875 99.4039 70.0518C98.301 66.0221 96.8164 62.5862 95.2893 59.1079C94.5682 57.496 93.9319 56.8597 93.3805 55.2478C92.7442 53.3814 92.2776 51.7271 91.9383 50.0727C91.0899 45.9582 91.0051 42.6071 90.9627 41.377C90.8354 37.8562 90.7506 32.6388 91.0899 25.9367C90.5809 23.5188 89.9022 20.0405 89.5628 15.7986Z" fill="#F8C8C9"/>
<path d="M96.5195 118.451C95.5863 119.639 93.0836 122.566 89.0115 123.499C87.7389 123.796 86.3815 123.881 86.127 123.881C85.4059 123.923 84.5151 123.923 83.4547 123.881C81.461 123.754 76.1587 122.311 72.2138 119.3C63.9846 112.979 63.1786 101.017 63.1362 99.9993C64.6633 105.132 67.0811 108.653 68.6506 110.604C74.971 118.409 83.9213 121.293 88.1207 120.996C89.4357 120.912 90.7082 120.657 91.8111 120.36C94.0169 119.724 95.7136 118.875 96.5195 118.451Z" fill="#F0B7B9"/>
<path d="M86.7629 123.626C84.345 125.62 79.3397 129.523 74.1646 131.474C67.2504 134.061 61.5663 134.019 54.5673 133.892C39.5936 133.637 30.0919 129.268 30.007 129.48C29.9646 129.692 37.303 132.831 46.8471 135.037C56.1368 137.158 66.1899 139.194 76.7097 134.825C79.8487 133.51 87.1871 129.141 92.1076 122.651C89.817 123.287 88.5445 123.372 86.7629 123.626Z" fill="#F0B7B9"/>
<path d="M8.11914 98.1753C23.6443 99.1085 35.3518 99.7024 41.4176 100.254C42.4356 100.339 46.3381 100.72 49.9861 98.6419C50.9193 98.1329 52.913 96.9452 53.5917 94.7394C54.1856 92.7882 53.5493 90.8369 53.2948 90.8369C53.0827 90.8369 53.1675 92.1943 52.2343 93.7214C52.2343 93.7214 51.7677 94.4849 50.9193 95.206C49.4771 96.4361 44.8535 97.8784 38.4907 98.6843C33.3157 98.9813 29.0738 98.9813 26.4439 98.8964C26.147 98.8964 25.85 98.8964 25.5955 98.8964C21.3113 98.8116 18.4268 98.6419 16.0514 98.4722C14.1001 98.3874 11.4278 98.2601 8.11914 98.1753Z" fill="#F0B7B9"/>
<path d="M33.6553 78.2386C44.0902 80.3596 52.0225 80.8262 53.804 79.5112C55.2463 78.4507 55.5856 77.1782 55.5856 77.1782C55.7977 76.245 55.5856 75.3118 55.5008 75.3118C55.3735 75.3118 55.4159 75.9905 54.9493 76.6692C54.9493 76.6692 54.6948 77.0509 54.2706 77.3479C52.5739 78.7052 48.2472 78.8749 48.2472 78.8749C45.7445 78.9598 43.7084 78.9173 42.4783 78.8325C41.5451 78.7901 41.1633 78.7477 37.4729 78.4931C35.861 78.4083 34.5461 78.2811 33.6553 78.2386Z" fill="#F0B7B9"/>
<path d="M64.0268 55.46C63.9844 53.5936 64.3237 50.8788 66.1901 46.9763C65.7659 47.0612 65.1721 47.1884 64.6206 47.655C62.4997 49.2669 63.3905 53.0422 63.2208 56.775C63.136 59.0656 62.627 62.3742 60.6333 66.3615C61.1847 65.2587 61.9907 63.5195 62.7118 61.3137C63.3905 59.0656 64.0692 57.5385 64.0268 55.46Z" fill="#F0B7B9"/>
<path d="M38.7876 58.9805C46.5502 60.5076 52.3615 60.8045 53.6765 59.8289C54.7369 59.0654 54.9914 58.0898 54.9914 58.0898C55.1611 57.3686 54.9914 56.6899 54.9066 56.6899C54.8218 56.6899 54.8642 57.199 54.5248 57.708C54.5248 57.708 54.3552 57.9625 54.0582 58.217C52.7857 59.2351 49.6043 59.3623 49.6043 59.3623C47.7379 59.4471 46.2532 59.4047 45.32 59.3623C44.6413 59.3623 44.3444 59.3199 41.6296 59.1502C40.3995 59.0654 39.4239 59.023 38.7876 58.9805Z" fill="#F0B7B9"/>
<path d="M9.60387 74.2512C9.60387 74.2512 9.9008 74.7178 9.81596 75.1844C9.73113 75.7783 9.22211 76.0752 9.17969 76.1176C10.2826 76.2449 12.0217 76.4146 14.1002 76.6267C16.815 76.8812 18.7238 77.0084 19.8267 77.0933C25.3411 77.5174 26.8258 77.8144 31.7887 78.2386C34.3338 78.4506 37.897 78.7476 42.3085 78.9597C34.6732 78.4082 26.5288 77.475 17.9179 75.9055C15.1183 75.3965 12.3187 74.8451 9.60387 74.2512Z" fill="#F0B7B9"/>
<path d="M12.5732 122.524C12.5732 122.524 37.8546 130.159 47.017 125.917C47.9502 125.45 50.7922 124.178 51.5982 121.506C52.1921 119.639 51.5134 117.603 51.3013 117.603C51.0892 117.603 51.174 118.96 50.2408 120.487C50.2408 120.487 49.7318 121.293 48.8834 121.972C46.3807 124.093 37.7274 124.348 35.4368 124.432C28.6074 124.602 26.6137 124.644 23.8141 124.475C21.7356 124.348 19.445 124.178 16.5606 123.584C13.8458 123.033 12.6157 122.524 12.5732 122.524Z" fill="#F0B7B9"/>
<path d="M16.8569 54.0602C17.4084 54.1026 17.9598 53.7633 18.0871 53.2542C18.2143 52.8725 18.0446 52.4059 17.7053 52.1514C18.8506 52.4907 20.5898 53.0422 22.7955 53.6784C23.559 53.8905 24.1529 54.0602 24.6195 54.2299C25.6376 54.5268 26.4011 54.7389 26.4435 54.7813C27.504 55.0782 25.0437 54.7813 40.2295 59.3201C30.2187 57.1143 33.2304 57.7506 30.0491 56.8174C29.4976 56.6477 28.0978 56.2235 26.1466 55.7569C22.1592 54.7813 18.9354 54.3147 16.8569 54.0602Z" fill="#F0B7B9"/>
</svg>
