<svg width="1085" height="870" viewBox="0 0 1085 870" fill="none" xmlns="http://www.w3.org/2000/svg">
<path d="M1629.58 0C1546.66 12.4764 1273.48 76.1581 1112.58 128.923C732.054 254.207 250.153 520.89 279.264 696.6C284.723 729.35 306.556 751.444 321.632 766.779C385.314 830.721 499.941 848.136 697.224 815.125C1068.66 761.061 1646.47 500.096 1789.43 434.335C1789.43 434.595 1686.5 154.396 1629.58 0Z" fill="#631A86"/>
<path d="M727.894 793.812C770.002 787.054 862.795 769.898 1083.21 698.419C1189.78 663.849 1263.08 639.936 1363.41 599.647C1480.38 552.601 1661.29 472.284 1655.57 456.169C1653.49 450.19 1626.98 453.309 1550.3 470.984C1345.22 518.551 1269.84 559.099 1167.17 586.651C910.361 655.271 683.966 587.431 657.454 667.488C652.515 683.083 654.335 704.917 637.18 738.967C619.245 775.097 592.733 798.49 573.498 812.266C609.888 809.667 663.432 804.468 727.894 793.812Z" fill="#3B1050"/>
<path d="M474.466 381.57C487.202 386.768 504.357 395.346 520.213 411.201C537.888 428.616 626.782 454.089 604.429 619.661C581.035 791.212 516.054 805.768 495.26 815.645C485.643 820.064 462.769 828.901 456.011 828.901C455.232 832.02 474.466 849.695 478.365 852.814C509.816 877.767 668.89 867.89 771.821 840.338C800.152 832.8 820.946 826.562 862.014 813.306C919.198 794.851 967.804 778.996 965.985 768.079C964.945 762.88 953.508 762.1 945.191 759.501C868.773 734.288 914.519 491.518 837.841 370.653C823.806 348.299 790.535 307.231 796.513 256.806C798.593 240.95 803.271 228.734 796.773 222.496C789.755 215.738 775.459 221.716 695.662 256.546C664.731 270.062 639.778 279.939 593.512 305.672C577.137 315.029 563.88 321.527 551.664 327.245C526.191 339.202 522.292 337.902 510.076 345.44C500.199 351.678 486.942 362.075 474.466 381.57Z" fill="#631A86"/>
<path d="M629.903 647.474C622.366 675.286 613.268 697.119 605.73 712.715C599.492 725.711 592.734 739.487 581.297 755.863C574.799 764.96 562.583 781.595 542.568 797.97C518.136 817.985 492.403 828.382 472.389 834.36C479.407 840.598 485.645 844.497 489.024 846.836C503.58 855.414 537.11 871.009 669.932 850.475C674.61 849.696 680.329 848.916 686.827 847.616C708.141 843.717 732.574 837.479 836.024 812.786C914.521 794.072 967.026 781.855 966.506 768.859C965.987 759.761 940.514 762.101 921.02 739.227C915.821 732.989 908.543 722.332 899.966 669.048C897.106 651.633 893.987 628.239 891.908 600.427C869.035 610.044 834.205 622.781 789.497 629.279C760.386 633.438 742.191 632.658 698.264 634.477C669.932 635.517 681.369 643.575 630.163 647.474H629.903Z" fill="#3B1050"/>
<path d="M799.894 233.933C799.115 237.831 798.335 243.55 797.555 250.308C795.995 272.402 800.154 293.975 810.291 317.629C825.627 353.498 839.663 359.217 858.377 390.148C875.273 417.96 880.731 441.353 888.529 474.623C919.98 608.225 878.392 686.202 930.637 741.047C940.774 751.704 951.171 757.682 957.149 761.061C954.81 762.88 952.73 764.7 950.391 766.519C949.351 765.999 946.232 764.7 943.113 762.88C840.183 705.437 918.16 504.515 835.764 374.032C826.147 358.957 788.977 315.029 794.436 260.185C795.476 248.748 798.075 239.911 799.894 233.933Z" fill="#3B1050"/>
<path d="M1680.78 481.381C1617.36 334.524 1554.2 187.666 1490.78 40.8081C1407.86 53.2845 1272.96 78.7572 1112.06 131.522C731.533 256.806 249.632 523.489 278.744 699.199C284.202 731.949 306.036 754.043 321.112 769.378C384.793 833.58 499.42 850.995 696.703 817.984C1070.48 755.342 1537.82 546.623 1680.78 481.381Z" fill="#631A86"/>
<path d="M741.396 805.643C783.504 798.885 876.297 781.73 1096.71 710.25C1203.28 675.68 1276.58 651.767 1376.91 611.479C1493.88 564.432 1674.79 484.115 1669.07 468C1666.99 462.022 1640.48 465.141 1563.8 482.816C1358.72 530.382 1283.34 570.93 1180.67 598.482C923.863 667.103 697.468 599.262 670.956 679.319C666.017 694.915 667.837 716.748 650.682 750.799C632.747 786.928 606.234 810.322 587 824.098C623.39 821.498 676.934 816.3 741.396 805.643Z" fill="#3B1050"/>
<path d="M474.207 384.169C486.944 389.368 504.099 397.945 519.954 413.801C537.629 431.216 626.523 456.688 604.17 622.261C580.777 793.811 515.795 808.367 495.001 818.244C485.384 822.663 462.511 831.501 455.753 831.501C454.973 834.62 474.207 852.294 478.106 855.414C509.557 880.366 668.631 870.489 771.562 842.937C799.894 835.399 820.687 829.161 861.756 815.905C918.939 797.45 967.545 781.595 965.726 770.678C964.686 765.48 953.249 764.7 944.932 762.1C868.514 736.888 914.261 494.118 837.583 373.252C823.547 350.899 790.276 309.831 796.255 259.405C798.334 243.55 803.013 231.333 796.514 225.095C789.497 218.337 775.201 224.315 695.404 259.145C664.472 272.661 639.52 282.538 593.253 308.271C576.878 317.628 563.621 324.127 551.405 329.845C525.932 341.801 522.033 340.502 509.817 348.04C499.94 354.278 486.684 364.675 474.207 384.169Z" fill="#631A86"/>
<path d="M629.643 650.073C622.106 677.885 613.008 699.718 605.47 715.314C599.232 728.31 592.474 742.086 581.037 758.462C574.539 767.559 562.323 784.194 542.309 800.569C517.876 820.584 492.403 842.417 472.389 848.136C479.407 854.374 485.645 858.273 489.024 860.612C503.58 869.19 576.619 879.327 728.415 853.074C837.064 829.681 929.077 796.411 965.987 771.198C965.467 762.1 939.994 764.44 920.5 741.566C915.301 735.328 908.023 724.671 899.446 671.387C896.587 653.972 893.468 630.578 891.388 602.766C868.515 612.384 833.685 625.12 788.978 631.618C759.866 635.777 742.191 644.614 698.264 646.434C669.932 647.473 681.109 645.914 629.643 649.813V650.073Z" fill="#3B1050"/>
<path d="M799.636 236.532C798.856 240.431 798.076 246.149 797.296 252.907C795.737 275.001 799.895 296.575 810.033 320.228C825.368 356.098 839.404 361.816 858.119 392.747C875.014 420.559 880.472 443.952 888.27 477.223C919.721 610.824 878.133 688.802 930.378 743.646C940.515 754.303 950.912 760.281 956.89 763.66C954.551 765.48 952.472 767.299 950.132 769.119C949.092 768.599 945.973 767.299 942.854 765.48C839.924 708.036 917.902 507.114 835.505 376.632C825.888 361.556 788.719 317.629 794.177 262.784C795.217 251.348 797.816 242.51 799.636 236.532Z" fill="#3B1050"/>
<path d="M583.637 443.433C598.453 461.887 615.868 501.396 615.868 501.396C620.546 512.053 623.925 523.75 626.525 538.825C646.019 645.654 579.478 779.776 477.068 827.602C459.653 835.66 444.317 840.079 428.982 841.638C381.155 846.837 329.69 851.775 142.804 788.613C57.0285 759.762 33.3753 748.065 17.5199 721.033C-3.01422 686.463 -6.13332 634.998 11.5416 623.561C22.1985 616.543 39.8734 615.763 39.6135 613.164C39.6135 611.604 31.8158 612.384 26.6173 610.305C-3.01422 599.128 2.70414 475.663 35.7146 466.566C42.7326 464.747 53.9094 467.086 54.4293 465.006C54.6892 463.707 48.9708 462.407 44.0322 459.028C38.054 454.609 34.6749 446.552 33.3753 430.956C32.0757 411.202 29.2165 373.513 55.209 347C59.8877 342.062 68.4652 333.744 82.2413 330.365C92.1184 328.026 100.436 329.326 105.375 330.365C100.696 328.806 93.1581 325.687 85.8802 319.188C85.8802 319.188 74.1836 308.272 70.5446 292.936C64.0465 264.864 100.176 219.637 142.804 210.02C164.897 204.821 188.551 211.579 235.857 225.096C247.554 228.475 257.431 231.854 277.445 238.612C304.737 247.709 327.091 256.027 342.426 261.745C372.578 275.001 406.108 292.676 441.198 316.069C505.4 358.437 551.406 405.224 583.637 443.433Z" fill="#F8C8C9"/>
<path d="M548.808 102.411C544.389 44.9671 556.086 21.5739 541.01 12.7364C511.639 -4.67858 475.509 11.1769 443.538 45.2271C435.481 53.8046 411.048 111.768 409.488 148.157C408.448 177.269 408.968 227.435 404.809 267.463C402.99 285.138 400.131 298.914 396.752 310.871C385.315 350.379 373.099 363.635 364.521 390.148C356.463 415.88 358.283 435.895 362.702 475.403C367.9 523.749 375.438 591.85 420.925 661.25C458.354 718.173 498.382 741.307 518.917 744.686C535.032 747.025 552.967 745.725 552.967 745.725C565.963 744.686 574.281 743.906 581.559 739.747C595.595 731.689 599.753 714.794 604.692 692.181C615.869 640.976 621.587 615.503 622.107 611.084C628.865 538.045 615.089 464.486 609.111 434.855C602.353 410.162 593.255 389.108 583.898 367.794C579.479 357.917 575.58 354.018 572.201 344.141C568.302 332.704 565.443 322.567 563.364 312.43C558.165 287.217 557.645 266.683 557.386 259.146C556.606 237.572 556.086 205.601 558.165 164.533C555.046 149.717 550.887 128.403 548.808 102.411Z" fill="#F8C8C9"/>
<path d="M591.436 731.43C585.718 738.708 570.382 756.642 545.429 762.361C537.632 764.18 529.314 764.7 527.754 764.7C523.336 764.96 517.877 764.96 511.379 764.7C499.163 763.92 466.672 755.083 442.499 736.628C392.073 697.899 387.135 624.601 386.875 618.362C396.232 649.813 411.048 671.387 420.665 683.344C459.394 731.17 514.238 748.845 539.971 747.025C548.029 746.505 555.826 744.946 562.584 743.126C576.101 739.228 586.498 734.029 591.436 731.43Z" fill="#F0B7B9"/>
<path d="M531.653 763.14C516.837 775.357 486.166 799.27 454.455 811.227C412.088 827.082 377.258 826.822 334.37 826.042C242.616 824.483 184.393 797.71 183.873 799.01C183.613 800.31 228.58 819.544 287.063 833.06C343.987 846.057 405.589 858.533 470.051 831.761C489.285 823.703 534.252 796.931 564.404 757.162C550.368 761.061 542.57 761.581 531.653 763.14Z" fill="#F0B7B9"/>
<path d="M49.751 607.185C144.884 612.904 216.623 616.543 253.792 619.922C260.03 620.441 283.944 622.781 306.297 610.044C312.016 606.925 324.232 599.647 328.391 586.131C332.03 574.175 328.131 562.218 326.571 562.218C325.272 562.218 325.792 570.536 320.073 579.893C320.073 579.893 317.214 584.572 312.016 588.991C303.178 596.528 274.846 605.366 235.857 610.304C204.147 612.124 178.154 612.124 162.039 611.604C160.219 611.604 158.4 611.604 156.84 611.604C130.588 611.084 112.913 610.044 98.357 609.005C86.4004 608.485 70.0251 607.705 49.751 607.185Z" fill="#F0B7B9"/>
<path d="M206.227 485.02C270.168 498.017 318.774 500.876 329.691 492.818C338.529 486.32 340.608 478.522 340.608 478.522C341.908 472.804 340.608 467.085 340.088 467.085C339.308 467.085 339.568 471.244 336.709 475.403C336.709 475.403 335.149 477.742 332.55 479.562C322.153 487.879 295.641 488.919 295.641 488.919C280.305 489.439 267.829 489.179 260.291 488.659C254.573 488.399 252.233 488.139 229.62 486.58C219.743 486.06 211.685 485.28 206.227 485.02Z" fill="#F0B7B9"/>
<path d="M392.332 345.441C392.072 334.004 394.152 317.369 405.588 293.456C402.989 293.976 399.35 294.756 395.971 297.615C382.975 307.492 388.433 330.625 387.394 353.499C386.874 367.535 383.755 387.809 371.538 412.242C374.917 405.484 379.856 394.827 384.274 381.311C388.433 367.535 392.592 358.177 392.332 345.441Z" fill="#F0B7B9"/>
<path d="M237.677 367.014C285.243 376.372 320.853 378.191 328.911 372.213C335.409 367.534 336.968 361.556 336.968 361.556C338.008 357.137 336.968 352.979 336.448 352.979C335.928 352.979 336.188 356.098 334.109 359.217C334.109 359.217 333.069 360.776 331.25 362.336C323.452 368.574 303.958 369.354 303.958 369.354C292.521 369.874 283.424 369.614 277.705 369.354C273.546 369.354 271.727 369.094 255.092 368.054C247.554 367.534 241.576 367.274 237.677 367.014Z" fill="#F0B7B9"/>
<path d="M58.8483 460.587C58.8483 460.587 60.6678 463.447 60.1479 466.306C59.6281 469.945 56.5089 471.764 56.249 472.024C63.0071 472.804 73.664 473.844 86.4003 475.143C103.036 476.703 114.732 477.483 121.49 478.002C155.281 480.602 164.378 482.421 194.789 485.02C210.385 486.32 232.218 488.139 259.251 489.439C212.464 486.06 162.558 480.342 109.794 470.725C92.6386 467.605 75.4835 464.226 58.8483 460.587Z" fill="#F0B7B9"/>
<path d="M77.043 756.383C77.043 756.383 231.958 803.169 288.102 777.177C293.821 774.318 311.236 766.52 316.174 750.145C319.813 738.708 315.654 726.231 314.355 726.231C313.055 726.231 313.575 734.549 307.857 743.906C307.857 743.906 304.737 748.845 299.539 753.004C284.203 766 231.179 767.56 217.143 768.079C175.295 769.119 163.078 769.379 145.923 768.339C133.187 767.56 119.151 766.52 101.476 762.881C84.8407 759.502 77.3029 756.383 77.043 756.383Z" fill="#F0B7B9"/>
<path d="M103.295 336.863C106.674 337.123 110.053 335.044 110.833 331.925C111.613 329.585 110.573 326.726 108.493 325.167C115.511 327.246 126.168 330.625 139.684 334.524C144.363 335.824 148.002 336.863 150.861 337.903C157.099 339.723 161.778 341.022 162.038 341.282C168.536 343.102 153.461 341.282 246.514 369.094C185.171 355.578 203.626 359.477 184.132 353.759C180.753 352.719 172.175 350.12 160.219 347.26C135.786 341.282 116.031 338.423 103.295 336.863Z" fill="#F0B7B9"/>
</svg>
